<svg width="404" height="404" viewBox="0 0 404 404" fill="none" xmlns="http://www.w3.org/2000/svg">
<path d="M301.747 177.538C303.49 178.397 305.4 178.866 307.343 178.912C307.452 178.899 307.557 178.865 307.653 178.811C307.749 178.758 307.833 178.686 307.901 178.599C307.968 178.513 308.018 178.414 308.047 178.308C308.076 178.202 308.084 178.091 308.07 177.982C307.908 176.71 306.474 177.801 302.495 175.962L302.697 174.468C302.798 174.043 302.293 173.357 301.747 173.559C301.202 173.761 301.06 174.407 300.899 175.579C300.737 176.75 300.656 176.993 301.747 177.538ZM90.8997 183.275C93.3304 182.614 95.6132 181.496 97.6263 179.982C98.4141 179.376 98.1515 177.962 97.9293 177.154C97.866 176.945 97.7276 176.766 97.5406 176.652C97.3535 176.538 97.1311 176.497 96.9158 176.537C96.7006 176.577 96.5077 176.695 96.3741 176.869C96.2405 177.042 96.1757 177.259 96.1921 177.477C96.2304 177.915 96.3116 178.348 96.4345 178.77C91.6471 182.265 89.7887 181.396 90.0715 182.81C90.1343 182.972 90.2512 183.106 90.4023 183.191C90.5533 183.276 90.7292 183.305 90.8997 183.275ZM85.4053 179.538C89.4453 179.538 88.0717 177.154 86.9809 177.518L85.4255 177.76C84.0923 171.438 85.1629 170.104 84.0115 170.064C83.8378 170.053 83.6667 170.11 83.5346 170.223C83.4025 170.336 83.3199 170.497 83.3045 170.67C83.1618 173.168 83.3451 175.673 83.8499 178.124C84.0721 179.215 84.4761 179.538 85.4053 179.538ZM202.707 176.063C203.858 176.063 209.918 174.75 210.948 174.589C212.463 174.326 214.261 173.862 214.382 172.225C214.382 171.215 213.655 170.044 212.827 170.65C212.655 170.771 212.527 170.945 212.465 171.147C212.403 171.348 212.409 171.564 212.483 171.761C212.786 172.549 212.14 172.488 202.383 174.609C202.204 174.664 202.052 174.785 201.958 174.948C201.864 175.11 201.834 175.302 201.875 175.485C201.915 175.668 202.024 175.83 202.178 175.937C202.332 176.044 202.521 176.089 202.707 176.063ZM69.8513 126.614C70.2957 127.119 71.3865 126.614 71.0633 125.846C69.0433 120.917 65.3265 115.423 62.9832 110.009C62.6197 109.141 61.8925 107.666 61.1855 107.585C61.0969 107.573 61.0067 107.585 60.9247 107.621C60.8427 107.657 60.7721 107.714 60.7208 107.787C60.2765 108.393 60.9228 110.07 61.2258 110.777C62.155 112.777 66.6597 122.958 69.8513 126.614ZM135.34 118.089C135.378 118.247 135.456 118.392 135.567 118.51C135.679 118.628 135.819 118.715 135.974 118.762C136.129 118.809 136.294 118.814 136.452 118.778C136.61 118.741 136.756 118.664 136.875 118.554C138.543 117.035 140.058 115.358 141.4 113.544C147.46 132.936 147.46 133.623 148.409 133.623C148.545 133.619 148.679 133.586 148.801 133.526C148.923 133.466 149.031 133.381 149.117 133.275C149.204 133.17 149.266 133.047 149.301 132.916C149.335 132.784 149.341 132.646 149.318 132.512C147.056 125.361 144.672 118.372 142.612 111.242C142.565 111.064 142.468 110.905 142.331 110.783C142.195 110.661 142.025 110.582 141.844 110.556C141.663 110.53 141.478 110.558 141.312 110.637C141.147 110.716 141.009 110.842 140.915 110.999C139.755 112.824 138.4 114.517 136.875 116.049C135.663 110.514 132.835 97.8692 132.835 97.8692C132.784 97.6656 132.654 97.4906 132.474 97.3826C132.294 97.2747 132.079 97.2426 131.875 97.2935C131.672 97.3444 131.497 97.4741 131.389 97.654C131.281 97.834 131.249 98.0494 131.3 98.253C131.986 101.384 134.915 116.696 135.34 118.089ZM30.1178 223.17C23.6135 220.059 17.8161 216.867 11.1501 213.353C9.85725 212.666 8.96845 215.029 10.9885 215.575C16.8084 219.207 23.0143 222.182 29.4917 224.442C30.2997 224.665 30.8652 223.614 30.1178 223.17ZM35.289 176.528C35.4279 176.651 35.601 176.728 35.7852 176.75C35.9693 176.772 36.1557 176.736 36.3193 176.649C37.6525 176.003 35.9355 174.407 36.5819 164.812C52.9641 184.588 52.055 184.083 52.7419 184.083C52.8841 184.092 53.0258 184.06 53.1505 183.991C53.2751 183.922 53.3775 183.818 53.4454 183.693C53.5133 183.568 53.544 183.426 53.5339 183.284C53.5238 183.142 53.4732 183.005 53.3883 182.891C50.8228 179.659 39.5917 165.701 36.6021 161.903C36.4896 161.761 36.3387 161.653 36.1672 161.594C35.9957 161.535 35.8108 161.526 35.6344 161.568C35.458 161.611 35.2974 161.703 35.1718 161.834C35.0461 161.965 34.9607 162.129 34.9255 162.307C34.5148 165.996 34.4472 169.716 34.7235 173.417C28.6635 167.983 22.8661 162.226 16.7455 156.934C16.5602 156.785 16.3284 156.707 16.0908 156.712C15.8533 156.717 15.6253 156.806 15.4468 156.963C15.2683 157.12 15.1508 157.334 15.1149 157.569C15.079 157.804 15.1271 158.044 15.2507 158.247C17.6343 161.944 31.0875 172.71 35.289 176.528ZM194.627 101.606C194.627 101.804 194.705 101.995 194.846 102.135C194.986 102.275 195.176 102.354 195.374 102.354C195.572 102.354 195.762 102.275 195.903 102.135C196.043 101.995 196.121 101.804 196.121 101.606C196.468 94.1866 196.157 86.7509 195.192 79.3862C195.171 79.1919 195.095 79.0078 194.971 78.8562C194.848 78.7046 194.683 78.592 194.497 78.5321C194.311 78.4723 194.112 78.4677 193.923 78.5189C193.735 78.5701 193.565 78.6749 193.435 78.8206C192.526 79.9922 194.707 83.6888 194.627 101.606ZM249.288 136.694C264.66 110.757 263.832 112.05 263.711 111.585C263.367 110.413 262.398 110.979 254.621 113.322C256.641 106.151 259.166 98.4954 260.842 91.2436C260.877 91.0091 260.823 90.7701 260.69 90.5735C260.558 90.3769 260.357 90.237 260.126 90.1813C259.896 90.1256 259.653 90.1581 259.445 90.2724C259.238 90.3868 259.08 90.5747 259.004 90.7992C256.721 98.8792 254.459 106.777 252.277 114.534C252.242 114.695 252.248 114.861 252.295 115.019C252.342 115.176 252.428 115.319 252.545 115.434C252.662 115.549 252.806 115.632 252.964 115.676C253.123 115.72 253.289 115.724 253.449 115.686C253.449 115.686 258.802 114.029 260.963 113.322L248.056 136.007C247.979 136.169 247.967 136.354 248.022 136.524C248.077 136.695 248.195 136.838 248.351 136.925C248.508 137.013 248.691 137.037 248.865 136.994C249.039 136.951 249.19 136.844 249.288 136.694ZM393.718 195.94C392.667 195.435 373.235 207.515 373.033 207.656C372.326 208.161 373.033 209.414 373.76 209.03C374.932 208.505 393.496 198.182 394.122 197.071C394.17 196.971 394.197 196.861 394.203 196.75C394.208 196.638 394.192 196.527 394.154 196.422C394.117 196.317 394.059 196.22 393.984 196.138C393.909 196.055 393.819 195.988 393.718 195.94ZM342.289 172.852C342.289 172.852 361.761 158.005 365.397 155.177C366.185 154.55 365.397 153.157 364.468 153.258C360.803 153.345 357.153 153.757 353.56 154.49C358.774 148.927 363.392 142.834 367.337 136.31C368.003 135.219 366.387 134.088 365.741 135.199C361.29 142.458 355.995 149.164 349.965 155.177C349.318 155.803 349.722 157.338 350.773 157.197C354.338 156.289 357.973 155.681 361.64 155.379C361.64 155.379 346.207 167.802 341.44 171.741C341.36 171.869 341.321 172.02 341.328 172.171C341.336 172.323 341.389 172.468 341.481 172.589C341.573 172.71 341.7 172.799 341.844 172.846C341.988 172.893 342.143 172.895 342.289 172.852ZM314.433 114.373C326.836 93.001 328.997 89.8902 326.916 89.365C326.028 89.1428 326.068 89.2236 313.039 113.605C312.978 113.785 312.982 113.98 313.051 114.157C313.119 114.334 313.248 114.481 313.414 114.573C313.58 114.665 313.774 114.695 313.96 114.658C314.146 114.621 314.314 114.52 314.433 114.373Z" fill="#DF9EF7"/>
<path d="M371.679 246.218C363.438 220.221 342.612 200.223 314.493 191.375C314.474 190.86 314.42 190.347 314.332 189.84C322.008 186.487 323.725 174.953 322.028 164.913C323.502 162.509 327.421 150.147 324.533 151.844L319.26 154.955C318.513 152.935 317.644 151.056 316.715 149.198C316.917 145.966 313.968 140.188 308.777 136.411C304.009 132.937 295.808 129.826 283.85 134.795C274.517 138.673 263.993 147.238 262.397 159.681C260.377 175.841 265.73 183.679 255.731 198.688C244.683 193.685 232.906 190.48 220.846 189.194C220.846 188.288 220.786 187.384 220.664 186.487C225.815 183.881 226.906 175.397 227.128 172.63C233.188 167.378 233.895 156.914 229.148 156.672C230.368 149.175 230.835 141.576 230.542 133.987C230.279 129.28 228.259 128.23 227.33 128.028C226.674 127.904 225.997 127.967 225.375 128.21C224.754 128.453 224.213 128.866 223.815 129.402C222.3 126.311 219.392 126.695 217.755 129.038C217.595 128.206 217.177 127.446 216.56 126.865C215.944 126.284 215.161 125.911 214.321 125.8C213.482 125.688 212.628 125.843 211.881 126.243C211.135 126.643 210.533 127.267 210.16 128.028C209.769 127.194 209.138 126.495 208.348 126.021C207.559 125.546 206.646 125.317 205.725 125.362C204.805 125.408 203.919 125.726 203.18 126.276C202.441 126.826 201.883 127.584 201.575 128.452C199.555 124.069 194.404 125.079 193.253 129.523C191.738 126.109 187.597 126.129 186.163 130.088C182.385 127.301 179.416 130.088 178.81 134.674C178.443 142.471 178.767 150.285 179.779 158.025C172.932 156.49 178.264 172.529 182.345 172.912C183.052 178.972 185.557 185.638 190.425 187.254C190.425 188.062 190.304 188.891 190.304 189.699C177.243 191.784 164.674 196.241 153.216 202.849C146.914 198.405 132.895 192.365 119.422 193.476C116.98 188.318 115.144 182.896 113.948 177.316C113.059 172.448 115.341 170.529 115.321 166.327C117.936 161.057 118.588 155.027 117.159 149.319C110.796 129.119 72.3557 136.795 73.4465 158.974C73.5879 161.499 73.8101 164.024 74.0323 165.984C69.2853 167.418 69.9923 167.761 71.3053 173.539C72.0123 176.69 72.8203 179.296 76.1331 178.609C77.6481 185.174 81.4659 195.658 90.4751 195.658C91.0205 195.658 90.4751 195.314 90.9801 198.708C68.3763 208.545 39.9953 226.988 32.6425 259.308C30.8649 267.105 29.7943 278.175 34.8847 286.537C40.4801 295.85 50.3781 296.435 57.4885 295.971C55.8242 305.116 55.2883 314.43 55.8927 323.705C55.8964 323.835 55.9356 323.961 56.0061 324.07C56.0766 324.179 56.1756 324.266 56.2924 324.322C56.4092 324.379 56.5392 324.402 56.6682 324.389C56.7972 324.376 56.9203 324.329 57.0239 324.251C58.1147 323.604 55.9735 322.918 59.3873 295.829C78.4157 294.072 96.5553 285.891 113.321 277.286C116.089 279.306 118.836 281.326 121.684 283.144C124.026 287.879 127.614 291.885 132.063 294.733C136.512 297.58 141.654 299.161 146.934 299.304C146.429 307.807 146.429 316.333 146.934 324.837C146.942 324.939 146.97 325.04 147.017 325.131C147.064 325.223 147.129 325.304 147.208 325.37C147.287 325.436 147.379 325.486 147.478 325.515C147.576 325.545 147.68 325.555 147.783 325.544C149.52 325.382 147.278 324.513 148.651 299.284C165.458 299.284 179.254 288.315 193.091 279.932C209.372 287.386 249.288 301.263 270.397 297.264C271.366 305.869 271.225 314.03 272.053 322.352C272.08 322.501 272.158 322.636 272.274 322.734C272.391 322.831 272.538 322.885 272.689 322.885C272.841 322.885 272.988 322.831 273.104 322.734C273.22 322.636 273.299 322.501 273.326 322.352C273.856 313.848 273.511 305.313 272.295 296.88C286.94 293.405 295.929 283.083 298.313 267.044C299.283 266.398 300.333 265.671 301.424 264.843C313.928 269.832 339.804 281.972 352.449 282.417C351.863 291.81 351.035 301.728 350.894 311.464C350.922 311.629 351.007 311.778 351.135 311.886C351.262 311.993 351.424 312.052 351.59 312.052C351.757 312.052 351.919 311.993 352.046 311.886C352.174 311.778 352.259 311.629 352.287 311.464C352.57 308.778 354.408 285.851 354.307 282.356C374.548 281.891 377.739 265.327 371.679 246.218ZM227.532 159.883C228.078 159.156 228.381 158.308 229.168 158.55C231.996 159.378 229.734 166.408 227.371 169.539C227.573 166.327 227.633 163.075 227.532 159.883ZM179.315 159.883C179.961 159.883 179.88 160.166 181.335 160.449L182.143 170.428C179.153 167.66 176.992 159.924 179.315 159.924V159.883ZM319.664 157.863C319.75 157.579 319.945 157.341 320.206 157.201C320.468 157.061 320.774 157.03 321.058 157.116C321.342 157.202 321.58 157.397 321.72 157.658C321.861 157.919 321.891 158.226 321.806 158.51C321.099 161.015 320.553 162.833 320.089 164.57C319.969 164.786 319.801 164.971 319.598 165.112C319.395 165.252 319.161 165.343 318.917 165.378C317.139 165.438 319.038 159.681 319.664 157.823V157.863ZM285.668 165.943C286.819 165.075 288.213 166.186 288.435 166.206C290.334 167.418 292.475 165.661 291.93 165.156L291.526 164.832C290.031 163.661 286.961 161.237 287.607 159.58C288.092 158.328 290.071 158.51 291.364 158.449C291.41 158.448 291.455 158.436 291.496 158.415C291.536 158.393 291.572 158.363 291.599 158.326C291.626 158.289 291.645 158.246 291.653 158.201C291.661 158.156 291.659 158.11 291.647 158.065C291.445 157.419 291.203 156.773 290.96 156.045C298.594 152.259 306.964 150.191 315.483 149.985C316.352 152.005 317.099 153.924 317.766 155.823C315.241 157.257 312.372 158.833 311.706 161.701C311.105 161.627 310.496 161.688 309.923 161.88C309.349 162.073 308.827 162.391 308.393 162.812C305.221 158.995 292.091 159.318 289.445 159.419C286.031 159.56 295.041 166.448 297.525 168.388C305.868 174.872 311.322 170.408 309.241 164.489C309.533 164.131 309.916 163.86 310.35 163.703C310.784 163.547 311.253 163.511 311.706 163.6C311.781 163.984 311.903 164.357 312.069 164.711C311.969 164.661 311.858 164.635 311.746 164.635C311.634 164.635 311.523 164.661 311.423 164.711C310.595 165.236 311.423 165.943 313.322 169.317C313.087 169.555 312.838 169.778 312.574 169.983C311.807 170.549 312.473 173.013 315.039 169.983C315.422 169.519 314.695 168.165 313.887 166.974C314.862 167.638 316.031 167.959 317.209 167.886C318.386 167.813 319.506 167.35 320.392 166.57C321.275 171.993 320.774 177.551 318.937 182.73C316.917 187.679 311.847 187.961 312.877 189.84C313.144 196.5 312.601 203.167 311.261 209.697C306.07 208.565 295.849 195.9 291.768 190.022C292.191 185.11 291.557 180.165 289.91 175.518C288.556 173.175 285.87 172.104 285.163 169.458C284.887 168.868 284.788 168.211 284.877 167.565C284.967 166.92 285.241 166.315 285.668 165.822V165.943ZM316.291 162.57C316.069 163.237 315.927 164.166 315.2 164.166C314.473 164.166 314.109 163.317 314.19 162.59C314.271 161.863 314.473 160.186 315.241 159.742C315.388 159.669 315.551 159.631 315.715 159.631C315.88 159.631 316.042 159.669 316.19 159.742C317.139 160.005 316.634 161.419 316.291 162.449V162.57ZM305.403 167.216C305.181 167.761 304.959 168.751 304.312 169.054C304.199 169.11 304.075 169.138 303.949 169.138C303.823 169.138 303.698 169.11 303.585 169.054C302.373 168.61 303.706 164.105 304.797 163.237C304.892 163.14 305.01 163.068 305.14 163.029C305.271 162.99 305.408 162.984 305.541 163.012C305.674 163.041 305.798 163.102 305.901 163.19C306.004 163.279 306.083 163.392 306.13 163.519C306.555 164.449 305.524 166.792 305.403 167.095V167.216ZM300.979 165.257C300.717 165.782 300.596 166.267 299.909 166.267C299.747 166.278 299.585 166.249 299.437 166.183C299.289 166.117 299.16 166.016 299.06 165.889C298.961 165.761 298.894 165.611 298.866 165.451C298.837 165.292 298.849 165.128 298.899 164.974C299.121 164.307 299.363 162.792 300.171 162.388C300.299 162.329 300.438 162.297 300.579 162.293C300.72 162.29 300.86 162.316 300.991 162.369C301.122 162.422 301.24 162.501 301.339 162.602C301.437 162.702 301.515 162.822 301.565 162.954C301.848 163.62 301.383 164.529 300.979 165.257ZM290.879 191.153C296.616 201.051 311.726 215.393 312.897 210.585C314.219 204.878 314.829 199.03 314.715 193.173C342.389 202.95 361.175 220.867 369.356 245.047C363.435 242.22 356.928 240.836 350.368 241.007C350.086 234.361 340.975 221.514 337.481 217.655C336.774 216.868 335.461 217.878 336.228 218.665C341.468 224.598 345.478 231.513 348.025 239.007C338.127 231.553 318.19 221.15 290.859 229.715C283.769 217.612 273.415 207.749 260.983 201.253C269.929 195.402 280.218 191.927 290.879 191.153ZM185.536 145.582C197.684 142.266 210.447 141.899 222.765 144.511C222.558 147.934 222.666 151.369 223.088 154.773H222.725C221.048 147.056 210.302 144.673 206.686 152.753C204.839 152.126 202.836 152.126 200.989 152.753C197.495 145.481 187.375 147.824 185.516 155.015H185.132C185.557 151.89 185.692 148.732 185.536 145.582ZM213.008 162.206C213.372 161.176 216.644 153.541 218.765 153.318C218.942 153.316 219.116 153.356 219.274 153.435C219.432 153.513 219.569 153.629 219.674 153.771C219.779 153.913 219.848 154.078 219.876 154.252C219.904 154.426 219.891 154.605 219.836 154.773C218.033 157.342 216.426 160.043 215.028 162.853C214.523 164.105 212.544 163.62 213.008 162.206ZM210.079 159.378C209.837 159.984 208.746 160.348 208.362 159.641C207.979 158.934 208.908 156.247 211.534 152.308C212.2 151.319 212.827 150.834 213.372 150.915C213.549 150.965 213.712 151.059 213.845 151.187C213.978 151.314 214.078 151.473 214.136 151.648C214.193 151.824 214.207 152.01 214.176 152.192C214.145 152.374 214.07 152.546 213.958 152.692C212.42 154.77 211.12 157.012 210.079 159.378ZM192.505 162.732C193.374 160.833 194.344 158.914 195.273 157.035C195.372 156.854 195.518 156.703 195.696 156.598C195.873 156.492 196.076 156.437 196.283 156.437C196.489 156.437 196.692 156.492 196.87 156.598C197.047 156.703 197.194 156.854 197.293 157.035C197.42 157.227 197.487 157.452 197.487 157.682C197.487 157.911 197.42 158.136 197.293 158.328C196.404 160.085 195.495 161.924 194.525 163.701C193.758 164.711 191.899 163.944 192.505 162.732ZM190.061 160.186L189.94 160.328C189.314 161.237 187.738 160.651 188.162 159.5C189.329 156.396 190.818 153.424 192.606 150.632C193.475 149.581 195.232 150.49 194.626 151.723C193.192 154.591 191.435 157.278 190.061 160.186ZM182.85 160.368C184.143 159.823 184.506 158.348 184.87 157.076L185.294 156.954C185.188 158.356 185.36 159.764 185.8 161.099C186.241 162.434 186.94 163.668 187.859 164.731C188.949 165.801 190.314 166.548 191.803 166.887C193.292 167.226 194.846 167.145 196.291 166.653C197.737 166.16 199.017 165.276 199.989 164.099C200.961 162.921 201.587 161.497 201.797 159.984C201.588 161.93 201.501 163.886 201.535 165.842C201.535 167.054 201.252 168.569 202.747 168.67H204.767C205.817 168.67 206.1 166.852 204.888 166.832H203.393C203.275 163.233 203.471 159.631 203.979 156.066C204.12 155.076 202.686 154.934 202.484 155.864C201.595 160.207 202.484 157.722 201.696 154.51C203.107 154.005 204.649 154.005 206.06 154.51C205.615 156.13 205.527 157.826 205.803 159.483C206.078 161.14 206.71 162.717 207.655 164.105C208.375 165.038 209.287 165.805 210.329 166.354C211.371 166.903 212.519 167.222 213.695 167.289C214.871 167.357 216.048 167.17 217.146 166.743C218.244 166.315 219.237 165.657 220.058 164.812C222.043 162.598 223.099 159.704 223.007 156.732H223.391C223.634 158.49 223.997 160.914 225.856 160.772C225.654 167.681 226.26 179.518 220.785 183.841C220.078 184.406 219.27 185.053 219.169 185.699C218.917 187.839 218.917 190.002 219.169 192.143C219.755 197.738 209.958 208.808 204.888 213.535C195.111 200.243 192.303 198.93 192.324 187.275C192.324 186.103 192.182 185.921 191.374 185.517C183.193 181.558 183.941 170.145 182.85 160.368ZM190.405 191.476C190.627 197.678 195.495 206.061 204.08 215.09C205.817 217.352 221.169 198.506 220.866 194.425V191.012C262.216 195.88 291.849 219.675 296.576 251.753C279.406 248.38 257.711 252.339 254.035 253.046C252.458 243 249.487 233.223 245.207 223.998C245.135 223.819 244.994 223.675 244.816 223.6C244.638 223.524 244.437 223.522 244.258 223.594C244.078 223.667 243.935 223.807 243.859 223.985C243.783 224.163 243.781 224.364 243.854 224.544C247.568 233.648 250.277 243.131 251.934 252.824C241.309 241.633 225.149 236.664 202.626 237.674C189.069 238.302 175.602 240.216 162.407 243.39C163.463 237.23 165.977 231.412 169.74 226.422C169.822 226.272 169.847 226.096 169.81 225.929C169.773 225.761 169.676 225.613 169.538 225.512C169.399 225.411 169.229 225.363 169.058 225.378C168.887 225.393 168.727 225.47 168.609 225.594C164.364 230.838 161.577 237.109 160.529 243.774C145.883 247.287 131.661 252.373 118.109 258.944C119.967 219.372 156.549 198.162 190.405 191.476ZM102.797 154.066C102.776 155.984 102.891 157.901 103.141 159.803C95.8685 159.984 84.3141 162.812 75.7089 165.479C75.4867 163.701 74.9817 160.469 74.9615 158.55C83.6201 154.424 93.2807 152.867 102.797 154.066ZM96.3735 164.913C92.3335 171.781 93.2021 172.993 91.8487 172.993C91.6969 173.002 91.545 172.975 91.4059 172.913C91.2669 172.852 91.1447 172.757 91.0496 172.639C90.9546 172.52 90.8895 172.38 90.8598 172.231C90.8301 172.082 90.8368 171.927 90.8791 171.781C92.7173 164.832 94.4747 163.54 95.3635 163.378C95.5573 163.339 95.7584 163.358 95.941 163.434C96.1236 163.51 96.2793 163.639 96.3879 163.804C96.4966 163.969 96.5533 164.163 96.5508 164.361C96.5482 164.558 96.4865 164.751 96.3735 164.913ZM90.1317 166.428C89.3843 167.66 89.2025 169.377 88.1117 169.115C87.0209 168.852 87.8087 166.388 88.4551 165.075C89.1015 163.762 89.6671 163.742 90.0509 163.843C90.2672 163.901 90.4596 164.027 90.6009 164.201C90.7423 164.375 90.8254 164.588 90.8387 164.812C90.7595 165.407 90.5145 165.967 90.1317 166.428ZM75.1029 170.468C74.8807 170.993 74.8605 172.609 73.7697 172.609C73.5575 172.618 73.3485 172.554 73.1764 172.43C73.0043 172.305 72.8789 172.127 72.8203 171.923C72.7134 170.509 73.1628 169.11 74.0727 168.024C74.2604 167.856 74.4963 167.752 74.7467 167.727C74.997 167.701 75.249 167.756 75.4665 167.883C75.9513 168.206 75.8503 169.054 75.1029 170.408V170.468ZM75.8503 175.175C77.6885 168.569 78.7389 167.6 79.3651 167.458C79.4939 167.429 79.6283 167.436 79.7533 167.479C79.8782 167.521 79.9887 167.598 80.0721 167.701C80.3467 168.019 80.4846 168.433 80.4559 168.852L77.7895 175.74C77.7065 175.998 77.5247 176.211 77.2841 176.334C77.0436 176.457 76.764 176.48 76.5068 176.397C76.2497 176.314 76.036 176.132 75.9129 175.892C75.7898 175.651 75.7673 175.371 75.8503 175.114V175.175ZM77.8703 178.225C81.7487 177.094 83.0011 177.417 82.5769 171.519C82.4355 169.842 82.1123 166.024 83.8091 166.085C85.1827 166.085 85.2231 172.468 87.2633 174.448C89.3035 176.427 91.9497 175.033 94.1717 174.448C100.232 172.791 98.8985 170.206 98.4541 162.186L103.545 161.782C105.827 173.619 108.898 164.752 110.958 163.418C112.271 162.59 113.402 164.408 113.645 165.802C114.109 168.792 111.625 172.064 112.15 176.447C113.34 182.792 115.378 188.947 118.21 194.749C113.786 203.152 101.08 210.909 95.4241 213.979C93.0405 205.333 92.8385 193.981 91.3841 194.021C84.6777 194.062 80.2741 188.992 77.7895 178.164L77.8703 178.225ZM91.1619 200.647C91.5255 203.697 93.0203 216.807 95.2019 215.716C100.696 213.131 117.422 202.142 119.806 195.072C123.341 195.88 134.37 193.739 151.499 204.061C138.859 211.611 128.716 222.71 122.331 235.977C105.989 233.957 85.7685 231.432 68.7803 240.401C73.9717 228.159 77.0825 226.947 75.6079 225.978C75.5316 225.926 75.4455 225.889 75.3548 225.871C75.2641 225.853 75.1707 225.853 75.0801 225.872C74.9896 225.891 74.9038 225.928 74.8278 225.981C74.7519 226.034 74.6875 226.101 74.6383 226.18C74.1131 226.968 66.7401 239.148 66.5583 241.633C63.7101 243.37 57.6299 247.814 55.8119 251.309C48.3858 251.453 41.1493 253.679 34.9251 257.732C41.0659 233.957 60.4781 214.221 91.0811 200.586L91.1619 200.647ZM38.7833 288.86C31.0669 280.78 32.7233 267.267 34.3191 259.853C54.0343 246.905 80.0923 252.44 111.806 276.336C101.141 280.902 54.5393 305.202 38.7833 288.86ZM57.8521 251.268C73.8909 233.512 97.0805 234.644 121.502 237.653C115.24 252.096 114.695 267.347 119.927 279.791C101.747 266.176 80.2741 251.208 57.8521 251.208V251.268ZM148.51 297.728C128.613 297.728 117.927 280.255 118.21 260.863C146.49 248.157 171.194 241.653 198.262 239.774C222.987 238.057 239.632 242.562 250.54 253.914C197.252 265.853 175.255 297.668 148.51 297.668V297.728ZM270.679 295.506C250.904 299.97 218.159 288.295 194.889 278.983C231.976 257.086 265.347 248.824 296.838 253.733C299.323 276.296 290.031 291.123 270.679 295.506ZM298.697 264.923C299.745 253.243 297.276 241.516 291.607 231.25C313.301 225.634 331.623 228.907 347.54 241.229C326.633 242.784 305.565 259.106 298.677 264.923H298.697ZM353.641 280.619C341.278 280.619 315.261 268.499 303.282 263.61C316.089 253.914 331.259 243.633 349.52 242.905C356.654 242.465 363.769 244.025 370.063 247.41C375.477 265.671 372.77 280.498 353.621 280.619H353.641Z" fill="#DF9EF7"/>
</svg>
