<svg width="494" height="499" viewBox="0 0 494 499" fill="none" xmlns="http://www.w3.org/2000/svg">
<path d="M276.223 140.17C274.116 130.022 281.716 119.232 278.866 109.059C278.308 106.687 276.969 104.576 275.069 103.071C269.588 99.1493 252.501 105.097 247.983 120.773C240.171 148.328 282.867 166.03 274.479 193.378C271.888 200.863 264.905 205.222 261.482 213.088C259.855 217.503 259.283 222.244 259.814 226.924C260.345 231.604 261.963 236.091 264.537 240.019C268.226 238.45 271.765 236.544 275.111 234.326C269.944 226.187 272.424 215.626 279.063 208.513C285.821 200.778 294.232 194.511 295.094 180.798C296.482 160.179 279.021 153.663 276.223 140.17ZM265.468 145.102C266.485 149.35 268.765 153.181 272.002 156.08C272.728 156.734 271.656 157.812 270.932 157.161C267.505 154.076 265.092 150.009 264.016 145.501C263.796 144.551 265.241 144.147 265.468 145.102ZM273.896 115.11C271.91 118.632 270.929 122.642 271.063 126.694C271.1 127.68 269.581 127.675 269.549 126.694C269.384 122.368 270.438 118.083 272.589 114.339C272.697 114.178 272.862 114.064 273.049 114.021C273.237 113.978 273.434 114.009 273.6 114.107C273.766 114.205 273.889 114.363 273.944 114.549C273.999 114.735 273.982 114.936 273.896 115.11ZM282.469 167.55C280.538 164.407 278.37 161.42 275.986 158.613C275.353 157.864 276.418 156.786 277.053 157.532C279.526 160.434 281.773 163.526 283.774 166.779C284.297 167.617 282.981 168.383 282.469 167.55ZM276.68 201.801C274.594 204.748 272.873 207.941 271.554 211.309C271.204 212.218 269.742 211.808 270.097 210.905C271.447 207.407 273.22 204.091 275.376 201.033C275.936 200.237 277.245 201.003 276.68 201.801ZM267.336 225.91L269.05 234.905C269.23 235.868 267.773 236.274 267.59 235.311L265.878 226.317C265.696 225.356 267.153 224.947 267.336 225.91ZM279.622 182.385C279.949 178.758 278.917 175.138 276.729 172.243C276.139 171.474 277.206 170.386 277.799 171.162C280.271 174.347 281.462 178.357 281.133 182.39C281.049 183.358 279.535 183.365 279.622 182.385ZM285.698 189.93C285.261 190.808 283.969 190.035 284.394 189.156C285.903 186.124 286.705 182.783 286.74 179.388C286.751 179.193 286.836 179.01 286.976 178.875C287.117 178.741 287.303 178.666 287.497 178.666C287.691 178.666 287.877 178.741 288.018 178.875C288.159 179.01 288.243 179.193 288.254 179.388C288.203 183.052 287.329 186.657 285.698 189.93ZM260.153 122.727C260.556 121.831 261.855 122.607 261.46 123.498C259.764 127.322 258.971 131.492 259.143 135.679C259.182 136.664 257.661 136.659 257.634 135.679C257.469 131.223 258.332 126.789 260.153 122.727Z" fill="#FFD35C"/>
<path d="M386.691 260.479C369.875 246.135 342.172 240.377 319.443 243.548C327.525 248.014 331.66 258.832 331.546 267.809C331.025 276.621 321.204 280.98 313.898 282.966C305.576 285.249 296.84 285.529 288.392 283.783C279.944 282.038 272.019 278.315 265.254 272.914C252.022 274.134 243.587 271.916 235.31 267.397C200.5 277.54 186.325 287.44 175.536 295.302C164.517 303.338 158.999 316.354 157.473 330.049C163.895 326.582 171.042 324.709 178.324 324.586C185.605 324.462 192.81 326.092 199.344 329.341C205.519 318.028 224.165 308.523 266.328 314.034C272.133 330.975 291.492 347.312 288.763 364.46C288.269 367.484 286.5 374.408 285.369 378.682L287.592 380.231C293.652 377.673 299.937 375.697 306.364 374.331C311.667 373.013 326.808 368.288 331.44 367.627C331.294 367.588 331.161 367.509 331.058 367.397C330.955 367.285 330.886 367.146 330.858 366.997C330.83 366.847 330.845 366.692 330.902 366.55C330.958 366.409 331.053 366.286 331.175 366.197C339.919 360.099 347.836 355.411 354.784 348.385C354.132 348.186 353.479 347.988 352.847 347.726C351.955 347.36 352.353 345.883 353.25 346.254C354.134 346.612 355.042 346.908 355.967 347.14C356.431 346.631 356.883 346.113 357.323 345.586C357.142 345.149 357.382 344.568 358.133 344.568C360.274 342.086 361.873 339.176 362.826 336.028C363.778 332.88 364.063 329.564 363.661 326.297C363.414 324.713 362.848 323.218 362.562 321.656C360.435 308.947 349.989 300.349 340.853 291.404C340.154 290.718 341.223 289.64 341.925 290.324C350.651 298.867 360.45 307.04 363.542 318.862C363.76 319.74 363.861 320.641 364.061 321.521C364.802 323.767 365.247 326.102 365.385 328.465C365.534 334.264 363.681 339.935 360.144 344.505C363.363 344.33 366.513 343.496 369.404 342.053C370.273 341.616 371.039 342.934 370.167 343.373C366.68 345.121 362.844 346.043 358.951 346.067C358.558 346.566 358.14 347.033 357.716 347.504C359.556 347.816 361.43 347.874 363.285 347.677C364.251 347.572 364.244 349.101 363.285 349.206C361.019 349.44 358.731 349.309 356.505 348.819C353.662 351.733 350.59 354.408 347.317 356.818C343.567 359.648 332.035 367.492 331.788 367.574C338.14 367.486 344.387 369.216 349.807 372.564C354.539 375.352 358.507 379.289 361.351 384.019C364.195 388.748 365.824 394.12 366.091 399.647C375.045 398.452 383.606 395.192 391.113 390.119C398.619 385.046 404.87 378.297 409.381 370.394C427.137 339.802 419.819 288.735 386.691 260.479ZM236.518 311.876C236.506 311.997 236.467 312.114 236.405 312.218C236.342 312.322 236.257 312.411 236.156 312.478C236.055 312.544 235.941 312.587 235.821 312.603C235.702 312.619 235.58 312.607 235.465 312.569C235.33 312.655 235.17 312.689 235.012 312.668C234.854 312.646 234.708 312.569 234.601 312.45C232.723 310.555 231.485 308.11 231.061 305.464C230.908 304.503 232.366 304.091 232.519 305.059C232.842 307.104 233.71 309.022 235.031 310.606C235.089 307.866 234.496 305.152 233.302 302.692C232.869 301.813 234.174 301.043 234.608 301.921C236.152 304.994 236.813 308.442 236.518 311.876ZM300.933 308.383L296.129 298.236C295.635 297.195 297.168 296.287 297.662 297.33C299.266 300.71 300.868 304.092 302.469 307.477C302.963 308.505 301.427 309.416 300.933 308.383ZM357.837 262.595L347.618 267.694C346.593 268.193 345.694 266.656 346.719 266.142L356.938 261.043C357.96 260.521 358.862 262.073 357.837 262.585V262.595ZM385.995 291.986C384.932 296.21 383.772 300.406 382.665 304.62C382.598 304.845 382.447 305.034 382.244 305.148C382.041 305.261 381.801 305.29 381.577 305.228C381.354 305.166 381.163 305.017 381.046 304.815C380.928 304.612 380.894 304.371 380.951 304.144L384.278 291.507C384.34 291.275 384.49 291.078 384.695 290.959C384.9 290.839 385.144 290.807 385.373 290.869C385.602 290.931 385.797 291.083 385.916 291.29C386.034 291.498 386.066 291.744 386.004 291.976L385.995 291.986Z" fill="#CF52FC"/>
<path d="M219.746 234.822C219.575 232.207 218.76 229.676 217.375 227.46C215.943 225.62 214.079 224.171 211.952 223.246C209.824 222.32 207.502 221.947 205.195 222.16C199.131 222.482 193.386 225.202 187.628 226.918C176.802 230.144 164.68 231.831 154.385 226.015C149.942 223.609 146.454 219.733 144.505 215.037C142.851 210.156 142.135 205 142.395 199.847C142.395 190.214 143.25 179.518 136.662 171.654C130.013 163.705 115.648 159.633 99.3925 166.06C94.1388 168.004 88.7715 170.247 83.0634 169.843C80.5136 169.744 78.0507 168.88 75.9888 167.362C73.9269 165.843 72.3595 163.739 71.4865 161.317C69.9963 156.209 69.2475 150.909 69.2635 145.584L68.6237 136.282C68.5447 135.135 66.7663 135.127 66.8453 136.282C67.8901 151.442 67.5073 161.856 73.4106 167.642C82.9769 175.985 93.798 169.521 103.957 166.377C117.913 162.061 134.452 165.683 139.014 179.496C140.425 184.599 140.982 189.905 140.664 195.194C140.575 205.252 140.397 216.092 148.15 223.6C160.644 235.693 179.747 232.065 196.019 226.095C201.488 224.266 207.83 222.51 213.097 225.845C214.15 226.462 215.062 227.298 215.771 228.298C216.481 229.297 216.972 230.438 217.212 231.644C217.365 232.944 217.707 234.214 218.227 235.414C218.722 235.188 219.229 234.991 219.746 234.822ZM289.303 223.303C288.152 217.552 293.811 212.747 299.23 211.901C305.425 210.671 311.62 211.494 317.587 205.993C326.842 197.492 329.053 180.045 326.257 167.45C323.246 153.895 313.383 143.054 310.738 129.416C309.632 123.218 310.382 116.827 312.894 111.061C315.405 105.296 319.563 100.42 324.834 97.056C327.621 95.3244 331.056 94.2266 332.874 91.2775C334.336 88.1352 334.673 84.578 333.828 81.2127C332.612 72.2648 330.659 63.4351 327.989 54.8156C327.648 53.7153 325.931 54.1844 326.274 55.2922C328.644 62.9352 330.448 70.7452 331.674 78.6578C332.185 81.9612 333.089 85.8659 331.936 89.1368C330.743 92.5101 327.05 93.6278 324.279 95.312C319.21 98.4541 315.069 102.913 312.288 108.223C309.508 113.534 308.189 119.501 308.471 125.501C309.73 146.227 329.466 158.283 325.104 185.821C323.31 197.021 318.081 207.472 306.991 209.007C303.089 209.294 299.228 209.989 295.469 211.082C290.667 212.996 285.589 219.224 287.908 224.618C288.414 224.226 288.881 223.785 289.303 223.303Z" fill="#B26EE6"/>
<path d="M297.23 250.044C297.23 249.841 297.31 249.647 297.451 249.504C297.593 249.361 297.785 249.28 297.986 249.28C298.186 249.28 298.378 249.361 298.52 249.504C298.662 249.647 298.742 249.841 298.742 250.044C298.811 264.837 281.916 271.339 267.459 272.713C286.908 287.546 314.206 285.45 326.299 275.086C327.864 273.749 329.025 271.994 329.648 270.021C330.271 268.049 330.331 265.939 329.822 263.934C326.117 240.051 310.239 243.657 298.376 237.487C298.264 237.418 298.172 237.321 298.107 237.206C298.043 237.09 298.009 236.96 298.009 236.828C298.009 236.696 298.043 236.565 298.107 236.45C298.172 236.335 298.264 236.238 298.376 236.169C299.359 235.62 300.139 234.764 300.599 233.729C301.678 229.076 299.364 221.928 294.567 222.192C291.996 222.332 290.297 224.508 288.484 226.107C282.133 231.868 275.01 236.696 267.326 240.448C262.663 242.675 257.67 244.113 252.545 244.705C242.258 246.017 225.395 246.202 219.368 237.741C218.491 248.991 226.501 262.087 239.284 267.701C245.985 270.867 253.308 272.422 265.49 271.371C279.703 270.433 297.294 264.37 297.23 250.044ZM240.667 251.641C240.81 250.67 242.267 251.084 242.124 252.045C241.619 253.956 241.728 255.981 242.435 257.826C242.748 258.515 243.307 259.06 244.001 259.35C244.694 259.641 245.471 259.656 246.175 259.393C247.037 258.926 247.798 260.246 246.941 260.71C246.002 261.15 244.94 261.237 243.943 260.956C242.947 260.674 242.083 260.043 241.507 259.176C240.882 258.037 240.486 256.786 240.342 255.493C240.198 254.2 240.309 252.891 240.667 251.641ZM266.229 249.852L268.017 254.637C268.363 255.56 266.901 255.957 266.56 255.044L264.769 250.258C264.426 249.335 265.886 248.941 266.229 249.852ZM290.978 234.033C294.916 229.293 294.795 227.404 295.948 228.138C296.11 228.242 296.226 228.404 296.275 228.591C296.324 228.779 296.3 228.977 296.21 229.148C294.994 231.253 293.601 233.249 292.048 235.114C291.42 235.867 290.358 234.779 290.978 234.031V234.033ZM231.076 254.031C230.468 252.838 229.86 251.648 229.251 250.461C228.804 249.587 230.11 248.816 230.557 249.69L232.38 253.257C232.827 254.131 231.523 254.904 231.076 254.031ZM260.57 265.208C260.377 265.155 260.213 265.025 260.114 264.849C260.015 264.673 259.989 264.464 260.043 264.269C260.096 264.074 260.224 263.908 260.399 263.808C260.573 263.708 260.78 263.683 260.973 263.736C263.759 264.508 266.717 264.363 269.415 263.321C272.114 262.279 274.414 260.395 275.981 257.943C276.494 257.107 277.803 257.876 277.287 258.714C275.567 261.474 273.01 263.598 269.998 264.77C266.985 265.942 263.678 266.1 260.57 265.218V265.208Z" fill="#FFCEB6"/>
<path d="M221.396 156.096C221.841 150.043 221.49 143.957 220.354 137.997C218.23 126.916 208.547 117.228 197.26 120.23C192.344 121.679 188.382 125.14 183.689 127.076C181.423 128.195 178.845 128.494 176.386 127.922C173.928 127.351 171.738 125.944 170.183 123.937C162.447 114.856 167.491 101.233 162.479 88.5284C158.631 77.7799 146.578 70.6667 136.643 77.236C126.45 84.1597 126.538 98.2115 128.043 109.172C129.297 120.449 133.845 131.094 141.109 139.751C151.599 151.642 169.687 156.575 183.445 148.603C185.857 146.86 188.392 145.298 191.03 143.93C198.536 140.836 206.097 147.503 208.407 156.173C209.918 161.834 210.311 168.149 214.7 172.473C216.4 174.204 218.659 175.261 221.065 175.452C223.091 175.649 220.221 171.445 221.396 156.096ZM209.456 140.482C206.976 138.917 204.007 138.344 201.13 138.875C200.177 139.055 199.774 137.583 200.73 137.403C204 136.771 207.385 137.398 210.22 139.162C211.05 139.678 210.289 141.003 209.456 140.482ZM192.339 130.963C195.975 130.23 199.635 129.631 203.318 129.167C204.282 129.045 204.269 130.574 203.318 130.694C199.772 131.148 196.246 131.73 192.742 132.44C191.791 132.628 191.388 131.155 192.342 130.963H192.339ZM183.959 136.49C180.024 138.003 175.713 138.202 171.658 137.059C171.475 136.996 171.324 136.864 171.233 136.692C171.143 136.52 171.121 136.319 171.172 136.132C171.223 135.944 171.343 135.782 171.508 135.681C171.673 135.579 171.869 135.544 172.058 135.584C175.851 136.648 179.881 136.449 183.553 135.018C184.47 134.666 184.858 136.145 183.961 136.49H183.959ZM146.743 100.574C146.135 97.3465 145.975 94.0488 146.269 90.7764C146.355 89.8034 147.869 89.7959 147.78 90.7764C147.485 93.9112 147.627 97.0724 148.2 100.168C148.381 101.131 146.926 101.547 146.743 100.574ZM159.506 114.923C160.034 115.751 158.725 116.515 158.199 115.691C155.192 110.968 153.907 105.335 154.563 99.7584C154.682 98.7928 156.191 98.7854 156.075 99.7584C155.43 105.063 156.643 110.428 159.506 114.923ZM164.176 142.927C159.708 142.549 155.491 140.679 152.192 137.61C151.473 136.941 152.545 135.864 153.261 136.527C156.266 139.326 160.105 141.039 164.176 141.397C165.14 141.48 165.145 143.009 164.176 142.927ZM151.604 123.004C152.263 124.594 153.282 126.006 154.578 127.127C155.874 128.248 157.412 129.048 159.068 129.461C159.252 129.524 159.405 129.655 159.496 129.828C159.587 130.001 159.609 130.202 159.558 130.391C159.506 130.58 159.385 130.742 159.219 130.843C159.053 130.944 158.855 130.978 158.666 130.936C156.764 130.441 155.003 129.502 153.526 128.195C152.048 126.887 150.895 125.248 150.159 123.409C149.776 122.505 151.236 122.109 151.604 123.004ZM139.948 111.872C138.724 107.548 138.234 103.045 138.501 98.5558C138.55 97.5753 140.062 97.5728 140.012 98.5558C139.479 108.87 142.608 111.956 140.847 112.386C140.66 112.435 140.462 112.409 140.294 112.312C140.126 112.216 140.002 112.057 139.948 111.869V111.872Z" fill="#B26EE6"/>
<path d="M237.93 59.7807C234.304 57.8645 233.128 59.2118 227.595 58.9698C223.643 58.3236 221.287 52.9818 226.113 45.6914C234.082 32.5652 241.138 35.0952 236.359 22.5478C234.368 16.5024 229.495 11.1407 223.041 12.7624C221.565 13.1374 220.206 13.8828 219.091 14.9294C217.976 15.9761 217.141 17.2901 216.663 18.7498C216.185 20.2094 216.079 21.7674 216.356 23.2792C216.633 24.791 217.283 26.2078 218.246 27.3981C221.272 30.8013 223.458 30.4295 224.668 33.8302C225.493 37.5403 221.507 40.2274 219.054 42.1336C209.853 48.1914 213.593 61.899 225.523 63.9024C229.917 64.7083 235.45 63.3061 238.048 66.6694C240.933 71.1604 234.343 76.4174 235.445 82.6199C235.549 83.3959 236.463 83.1389 236.216 83.1838C236.382 83.2187 236.556 83.1859 236.699 83.0925C236.841 82.9991 236.942 82.8526 236.979 82.6848C238.589 74.9079 241.63 72.9543 242.46 66.5471C242.332 65.1245 241.85 63.7578 241.058 62.5745C240.265 61.3913 239.189 60.4301 237.93 59.7807Z" fill="#6DD3A8"/>
<path d="M173.802 168.263C169.311 167.15 165.367 171.968 165.723 176.621C166.078 181.275 172.97 182.28 176.507 179.274C177.28 178.455 177.837 177.452 178.124 176.359C178.412 175.265 178.421 174.115 178.152 173.017C177.882 171.919 177.342 170.907 176.581 170.076C175.821 169.245 174.865 168.621 173.802 168.263Z" fill="#FCAFB7"/>
<path d="M203.241 88.6059C202.261 88.3064 201.22 88.2723 200.223 88.507C199.226 88.7417 198.308 89.237 197.56 89.9432C197.046 90.7606 196.785 91.7141 196.81 92.6819C196.835 93.6498 197.145 94.5882 197.701 95.3773C198.325 95.8382 199.051 96.1371 199.817 96.2478C200.582 96.3585 201.363 96.2776 202.09 96.0122C202.817 95.7469 203.468 95.3051 203.987 94.7259C204.505 94.1467 204.875 93.4476 205.064 92.6902C205.242 91.9018 205.16 91.0762 204.831 90.339C204.502 89.6018 203.943 88.9933 203.241 88.6059Z" fill="#FFD35C"/>
<path d="M242.991 220.491C236.794 221.312 230.549 221.708 224.298 221.676C224.259 216.665 224.621 211.658 225.38 206.706C225.424 206.519 225.401 206.322 225.314 206.15C225.228 205.978 225.084 205.843 224.908 205.769C224.732 205.694 224.536 205.685 224.354 205.743C224.173 205.801 224.017 205.922 223.915 206.085C222.088 208.98 219.397 211.215 216.231 212.467C215.283 212.841 215.695 214.403 216.658 214.026C226.907 210.007 222.443 202.734 222.69 222.479C222.694 222.693 222.78 222.897 222.93 223.048C223.08 223.198 223.281 223.285 223.493 223.288C229.288 223.338 235.081 223.022 240.837 222.342C237.397 225.786 234.069 229.343 230.859 233.006C230.177 233.782 231.308 234.929 231.99 234.148C235.695 229.91 239.55 225.814 243.557 221.861C244.009 221.426 243.707 220.396 242.991 220.491Z" fill="#6DD3A8"/>
<path d="M299.476 38.6729C293.469 32.2782 287.158 25.5741 284.559 16.9414C284.231 15.8386 282.512 16.3077 282.845 17.418C285.295 25.5691 290.863 32.0761 296.556 38.1714C293.407 37.9831 290.253 38.4593 287.296 39.5697C284.339 40.6801 281.643 42.4004 279.38 44.621C278.419 45.5765 277.428 46.7367 278.224 48.1314C281.272 51.9403 285.154 54.9825 289.564 57.0186L274.422 56.9363C274.187 56.9363 273.96 57.0309 273.794 57.1994C273.627 57.3678 273.533 57.5963 273.533 57.8345C273.533 58.0727 273.627 58.3012 273.794 58.4696C273.96 58.638 274.187 58.7327 274.422 58.7327L294.378 58.84C294.589 58.8345 294.792 58.7535 294.95 58.6113C295.107 58.4692 295.21 58.2751 295.24 58.0636C295.27 57.852 295.224 57.6367 295.111 57.4559C294.999 57.2751 294.826 57.1405 294.625 57.076C288.974 55.3371 283.914 52.0418 280.014 47.5601C279.716 47.1783 279.666 47.0187 279.963 46.617C282.311 44.0793 285.242 42.1641 288.496 41.0398C291.75 39.9155 295.228 39.6168 298.623 40.1699C298.81 40.211 299.004 40.1911 299.178 40.1132C299.352 40.0353 299.497 39.9033 299.592 39.7365C299.687 39.5697 299.727 39.3767 299.706 39.1855C299.685 38.9942 299.604 38.8147 299.476 38.6729Z" fill="#FF9F48"/>
<path d="M260.153 122.727C258.332 126.788 257.47 131.222 257.634 135.678C257.671 136.659 259.182 136.664 259.143 135.678C258.971 131.491 259.764 127.322 261.46 123.498C261.855 122.607 260.556 121.831 260.153 122.727ZM271.063 126.694C270.9 122.639 271.883 118.621 273.896 115.109C273.982 114.935 273.999 114.735 273.944 114.549C273.889 114.363 273.766 114.205 273.6 114.107C273.434 114.009 273.237 113.978 273.049 114.021C272.862 114.064 272.697 114.177 272.59 114.338C270.439 118.083 269.385 122.368 269.549 126.694C269.589 127.674 271.1 127.679 271.063 126.694ZM272.002 156.087C268.765 153.188 266.485 149.357 265.469 145.109C265.241 144.154 263.784 144.558 264.014 145.516C265.09 150.023 267.503 154.091 270.93 157.175C271.658 157.819 272.73 156.741 272.002 156.087ZM277.053 157.532C276.418 156.783 275.353 157.871 275.986 158.612C278.37 161.42 280.537 164.407 282.47 167.549C282.981 168.385 284.29 167.617 283.774 166.778C281.773 163.526 279.526 160.435 277.053 157.532ZM276.729 172.242C278.922 175.135 279.954 178.757 279.622 182.384C279.535 183.365 281.049 183.358 281.133 182.384C281.463 178.351 280.272 174.341 277.799 171.157C277.206 170.386 276.146 171.474 276.729 172.242ZM286.74 179.391C286.683 182.782 285.881 186.118 284.394 189.158C283.957 190.037 285.261 190.81 285.698 189.932C287.33 186.66 288.203 183.054 288.249 179.391C288.231 179.201 288.143 179.026 288.004 178.898C287.864 178.771 287.683 178.7 287.495 178.7C287.307 178.7 287.125 178.771 286.986 178.898C286.846 179.026 286.759 179.201 286.74 179.391ZM275.376 201.032C273.219 204.09 271.446 207.406 270.097 210.905C269.742 211.821 271.201 212.217 271.555 211.309C272.872 207.94 274.593 204.746 276.68 201.801C277.248 201 275.936 200.236 275.376 201.032ZM265.879 226.316L267.59 235.311C267.773 236.274 269.233 235.867 269.05 234.904L267.336 225.91C267.153 224.947 265.696 225.353 265.879 226.316ZM234.616 301.912C234.179 301.032 232.887 301.803 233.309 302.683C234.505 305.143 235.098 307.858 235.038 310.598C233.718 309.013 232.849 307.096 232.526 305.051C232.373 304.083 230.916 304.495 231.069 305.455C231.494 308.102 232.732 310.546 234.608 312.441C234.716 312.56 234.861 312.637 235.019 312.659C235.177 312.68 235.338 312.646 235.473 312.561C235.587 312.599 235.709 312.611 235.829 312.595C235.948 312.579 236.063 312.536 236.164 312.469C236.265 312.403 236.35 312.314 236.412 312.21C236.475 312.106 236.513 311.989 236.525 311.868C236.804 308.435 236.143 304.991 234.616 301.912Z" fill="black"/>
<path d="M197.2 344.51C196.633 343.731 196.314 342.796 196.284 341.83C195.76 337.92 196.36 333.94 198.013 330.365C191.748 327.346 184.863 325.875 177.925 326.072C170.986 326.27 164.194 328.13 158.108 331.501C157.399 344.871 158.688 358.273 161.931 371.256C163.225 375.029 166.392 379.345 170.929 378.342C175.269 377.384 175.111 371.975 174.829 368.489C174.763 367.643 175.837 367.578 176.24 368.105L181.056 374.44C182.19 375.937 183.618 378.497 185.804 378.287C186.767 378.1 187.647 377.61 188.318 376.887C188.988 376.164 189.416 375.246 189.538 374.263C189.671 371.732 189.134 369.211 187.982 366.96C187.718 366.296 188.572 365.819 189.094 366.096C194.844 369.839 193.616 373.257 198.425 377.074C198.955 377.346 199.535 377.501 200.128 377.529C200.72 377.557 201.313 377.458 201.865 377.239C202.417 377.019 202.917 376.683 203.331 376.254C203.746 375.825 204.065 375.312 204.269 374.749C206.939 368.23 205.159 359.749 201.738 353.828C201.658 353.682 201.628 353.514 201.651 353.349C201.674 353.184 201.749 353.031 201.866 352.913C201.983 352.794 202.134 352.718 202.298 352.694C202.461 352.67 202.628 352.701 202.773 352.781C206.586 355.525 212.21 356.585 214.31 352.282C215.901 348.31 210.459 346.221 207.535 345.964C203.346 345.665 199.999 346.985 197.2 344.51ZM168.677 359.634C168.343 360.553 166.881 360.153 167.217 359.23C167.731 357.846 168.063 356.4 168.205 354.929C168.294 353.956 169.808 353.951 169.716 354.929C169.578 356.537 169.228 358.119 168.677 359.634ZM179.957 357.601C179.804 358.571 178.347 358.16 178.5 357.194L178.994 354.061C179.149 353.092 180.604 353.507 180.451 354.467C180.29 355.513 180.125 356.558 179.957 357.601ZM192.423 354.911C192.255 355.877 190.8 355.465 190.966 354.505L191.783 349.764C191.949 348.796 193.409 349.208 193.241 350.168C192.969 351.752 192.693 353.333 192.413 354.911H192.423Z" fill="#FFCEB6"/>
<path d="M312.482 426.855C311.025 422.685 309.911 418.401 309.153 414.046C305.695 419.215 304.531 425.894 299.026 427.768C298.109 428.019 297.137 427.975 296.245 427.642C295.354 427.309 294.588 426.703 294.054 425.909C293.517 424.585 293.395 423.126 293.705 421.73C294.634 411.81 294.755 411.915 294.343 411.603C293.491 410.962 289.282 412.102 286.777 415.271C284.307 418.082 284.411 419.038 282.578 421.047C282.181 421.396 281.707 421.645 281.196 421.772C280.684 421.899 280.15 421.9 279.638 421.776C279.126 421.651 278.651 421.405 278.252 421.057C277.853 420.709 277.543 420.27 277.347 419.777C276.112 417.249 277.231 415.301 280.955 403.861C276.149 404.709 273.254 412.636 268.65 413.557C267.755 413.759 266.817 413.594 266.043 413.098C265.268 412.602 264.72 411.816 264.52 410.912C264.375 408.326 265.09 405.765 266.55 403.636C270.735 396.302 275.901 389.586 281.901 383.676C282.983 382.449 283.22 382.005 287.568 380.201C284.186 377.831 281.037 375.658 278.088 373.412C277.966 373.337 277.826 373.298 277.684 373.298C277.541 373.298 277.402 373.337 277.28 373.412C249.053 395.036 247.146 395.076 247.452 396.381C250.022 407.921 253.304 419.287 257.278 430.413C258.987 435.009 258.834 434.774 259.995 435.423C286.34 450.056 285.525 449.395 286.021 449.098C295.501 442.912 304.297 435.719 312.26 427.641C312.363 427.542 312.438 427.417 312.477 427.278C312.516 427.14 312.518 426.994 312.482 426.855ZM249.273 397.414C249.168 397.3 249.101 397.157 249.08 397.003C249.06 396.849 249.088 396.693 249.159 396.556L249.144 396.493C249.436 396.271 249.357 396.244 249.609 396.141C249.736 396.088 249.877 396.078 250.011 396.113C250.144 396.147 250.263 396.225 250.35 396.334C254.084 400.592 258.354 404.339 263.05 407.479C263.863 408.018 263.105 409.34 262.29 408.796C257.481 405.59 253.105 401.765 249.273 397.419V397.414ZM285.387 448.122C282.773 440.955 280.561 433.645 278.762 426.226C278.532 425.268 279.997 424.864 280.222 425.82C282.021 433.238 284.232 440.548 286.844 447.716C287.182 448.646 285.72 449.04 285.387 448.127V448.122Z" fill="#FFD35C"/>
<path d="M310.578 410.026C325.166 397.439 345.934 401.097 364.523 399.048C364.035 393.766 362.382 388.661 359.687 384.108C356.743 379.699 352.826 376.04 348.245 373.42C343.663 370.799 338.542 369.288 333.285 369.006C330.684 368.914 329.726 369.335 323.798 371.002C295.64 378.859 295.958 378.44 288.183 381.608C285.564 382.386 283.264 383.997 281.625 386.202C275.991 391.877 271.191 398.339 267.373 405.391C266.592 406.948 265.073 409.867 266.432 411.506C268.193 413.624 271.177 410.413 272.347 409.123C275.003 406.197 277.66 402.195 282.047 402.252C282.249 402.255 282.442 402.338 282.583 402.484C282.724 402.63 282.802 402.826 282.801 403.03C282.801 403.215 282.936 402.753 279.891 412.082C279.38 413.48 278.94 414.903 278.574 416.346C278.348 416.995 278.318 417.697 278.487 418.363C278.656 419.029 279.016 419.629 279.523 420.089C282.734 422.359 284.028 411.728 292.061 410.126C293.063 409.822 294.138 409.869 295.111 410.261C295.499 410.533 295.798 410.915 295.969 411.36C296.14 411.805 296.175 412.291 296.069 412.756C295.247 423.16 294.74 423.315 295.328 425.066C295.572 425.485 295.924 425.829 296.345 426.063C296.767 426.297 297.244 426.411 297.724 426.394C303.339 426.573 305.097 414.757 310.578 410.026ZM286.056 393.559C286.056 393.762 285.976 393.956 285.835 394.099C285.693 394.242 285.501 394.323 285.3 394.323C285.1 394.323 284.907 394.242 284.766 394.099C284.624 393.956 284.544 393.762 284.544 393.559V389.969C284.544 389.767 284.624 389.572 284.766 389.429C284.907 389.286 285.1 389.206 285.3 389.206C285.501 389.206 285.693 389.286 285.835 389.429C285.976 389.572 286.056 389.767 286.056 389.969V393.559ZM306.718 400.089C307.122 402.076 307.271 404.108 307.162 406.134C307.105 407.112 305.596 407.115 305.65 406.134C305.763 404.246 305.632 402.35 305.26 400.495C305.065 399.532 306.527 399.123 306.718 400.086V400.089ZM296.343 399.378L295.783 395.321C295.649 394.358 297.109 393.946 297.243 394.914L297.801 398.971C297.932 399.932 296.472 400.343 296.341 399.375L296.343 399.378Z" fill="#FFCEB6"/>
<path d="M176.012 392.256C176.026 392.127 176.002 391.997 175.944 391.881C175.886 391.766 175.795 391.67 175.684 391.605C183.87 388.166 192.311 385.384 200.93 383.284C201.784 382.758 201.483 381.538 200.984 380.912C200.364 380.138 199.327 381.149 199.794 381.945C191.512 383.995 183.394 386.668 175.509 389.944C175.54 389.843 175.551 389.737 175.541 389.633C175.531 389.528 175.501 389.426 175.452 389.333C175.403 389.24 175.337 389.158 175.256 389.092C175.175 389.025 175.082 388.975 174.982 388.946C147.514 380.176 143.784 381.316 140.481 378.289C140.325 378.143 140.117 378.066 139.904 378.075C139.691 378.083 139.49 378.176 139.345 378.334C139.345 378.334 139.306 377.691 139.291 377.369L158.908 370.6C159.878 370.265 159.461 368.704 158.483 369.04L139.13 375.717C138.787 375.046 137.579 375.158 137.621 376.064C138.14 387.631 139.113 399.16 140.541 410.652C140.669 411.672 142.27 411.685 142.141 410.652C140.855 400.298 139.944 389.908 139.407 379.482C144.391 383.317 145.886 381.341 174.365 390.445C174.252 390.535 174.163 390.653 174.106 390.787C174.05 390.921 174.029 391.067 174.044 391.212C174.059 391.357 174.11 391.495 174.192 391.615C174.275 391.734 174.386 391.83 174.516 391.895C173.839 399.518 174.605 407.203 176.773 414.537C176.829 414.744 176.965 414.919 177.149 415.025C177.241 415.078 177.342 415.111 177.446 415.125C177.55 415.138 177.656 415.13 177.757 415.102C177.859 415.074 177.954 415.026 178.037 414.96C178.12 414.895 178.189 414.814 178.241 414.722C178.293 414.629 178.326 414.528 178.339 414.422C178.352 414.317 178.345 414.21 178.317 414.108C176.183 407.038 175.401 399.622 176.012 392.256ZM216.414 402.194C204.199 406.896 192.172 412.053 180.332 417.663C179.401 418.105 180.214 419.497 181.143 419.06C192.34 413.761 203.712 408.865 215.258 404.372C215.162 404.329 215.076 404.268 215.004 404.191C214.931 404.115 214.875 404.025 214.837 403.926C214.799 403.827 214.781 403.722 214.784 403.616C214.787 403.51 214.81 403.406 214.853 403.309C215.221 402.466 216.14 402.965 217.323 403.274C217.541 402.693 217.13 401.915 216.414 402.194Z" fill="#B26EE6"/>
<path d="M172.576 420.066C172.576 420.066 152.638 414.354 150.21 413.641C148.054 413.165 146.05 412.151 144.381 410.692C143.64 409.963 142.514 411.106 143.247 411.837C146.352 414.681 146.777 414.332 172.146 421.625C172.346 421.668 172.555 421.632 172.729 421.525C172.904 421.418 173.032 421.248 173.087 421.049C173.142 420.85 173.119 420.638 173.024 420.455C172.929 420.272 172.769 420.133 172.576 420.066ZM215.912 381.924C215.848 380.892 214.247 380.884 214.311 381.924C214.685 388.079 215.239 394.222 215.974 400.353C216.095 401.373 217.703 401.385 217.574 400.353C216.838 394.228 216.284 388.085 215.912 381.924Z" fill="#B26EE6"/>
<path d="M206.987 433.881C198.292 431.356 189.603 428.816 181.126 425.622C180.16 425.258 179.743 426.82 180.701 427.181C189.178 430.373 197.809 433.129 206.562 435.44C206.766 435.497 206.985 435.469 207.17 435.363C207.354 435.257 207.49 435.082 207.546 434.875C207.602 434.668 207.575 434.447 207.47 434.261C207.365 434.074 207.191 433.937 206.987 433.881ZM206.367 437.623L208.155 469.504C208.214 470.54 209.815 470.547 209.755 469.504L207.975 437.623C207.91 436.598 206.31 436.59 206.367 437.623ZM246.754 416.116C237.169 410.095 226.713 405.622 215.763 402.858C215.572 402.82 215.374 402.854 215.206 402.953C215.038 403.053 214.912 403.211 214.852 403.397C214.791 403.584 214.8 403.786 214.877 403.967C214.953 404.147 215.093 404.293 215.269 404.377C226.116 407.104 236.472 411.535 245.958 417.508C246.825 418.062 247.628 416.665 246.754 416.116ZM216.296 437.144C241.819 427.251 241.826 427.723 244.79 424.846C245.494 424.098 244.365 422.942 243.659 423.703C241.006 426.198 241.633 425.62 215.871 435.585C214.918 435.954 215.333 437.518 216.296 437.144ZM205.653 467.521C185.537 460.861 185.078 461.034 182.292 458.646C181.536 457.94 180.402 459.083 181.16 459.789C184.124 462.553 188.35 463.499 192.088 464.734L205.228 469.08C206.209 469.404 206.631 467.842 205.653 467.521ZM245.047 457.698C237.282 462.27 229.101 466.079 220.616 469.073C217.731 470.348 214.6 470.955 211.452 470.849C210.43 470.734 210.44 472.346 211.452 472.466C214.577 472.597 217.692 472.026 220.572 470.794C229.36 467.747 237.828 463.828 245.852 459.095C246.034 458.986 246.165 458.809 246.218 458.603C246.271 458.397 246.242 458.177 246.135 457.993C246.029 457.809 245.855 457.674 245.651 457.619C245.447 457.564 245.23 457.592 245.047 457.698Z" fill="#6DD3A8"/>
<path d="M166.335 427.367L144.152 434.103C143.956 434.05 143.749 434.066 143.564 434.148L142.415 434.659C141.487 435.071 142.151 436.591 143.102 436.301L166.814 429.093C167.028 429.018 167.206 428.863 167.311 428.661C167.415 428.458 167.44 428.222 167.379 428.002C167.318 427.782 167.176 427.593 166.982 427.475C166.788 427.357 166.556 427.318 166.335 427.367ZM175.066 433.569C175.066 433.331 174.973 433.102 174.806 432.934C174.639 432.766 174.413 432.671 174.177 432.671C173.941 432.671 173.715 432.766 173.548 432.934C173.382 433.102 173.288 433.331 173.288 433.569C173.532 443.581 174.397 453.569 175.876 463.472C176.047 464.609 177.761 464.128 177.605 462.993C176.182 453.244 175.334 443.419 175.066 433.569ZM164.685 464.32C138.471 474.535 138.856 474.594 134.956 475.32L135.131 474.961C135.192 474.829 135.221 474.684 135.218 474.539C135.215 474.393 135.179 474.25 135.113 474.121C135.047 473.991 134.953 473.878 134.838 473.791C134.722 473.704 134.589 473.644 134.447 473.616C133.164 462.549 132.176 451.452 131.483 440.328C131.411 439.18 129.631 439.173 129.705 440.328C130.105 446.775 132.32 474.881 133.037 476.054C132.802 476.608 133.037 477.354 133.795 477.289C136.367 477.002 138.887 476.353 141.282 475.36C143.942 474.347 165.164 466.054 165.164 466.054C166.216 465.65 165.757 463.911 164.685 464.32ZM131.172 434.492C121.683 430.538 111.867 427.44 101.838 425.233C114.353 420.967 126.717 416.261 138.93 411.117C139.97 410.68 139.513 408.939 138.456 409.385C109.557 421.588 99.6769 423.417 99.3089 424.582C99.0075 424.502 98.7062 424.432 98.4049 424.353C98.1796 424.296 97.9412 424.33 97.7406 424.448C97.5401 424.567 97.3933 424.759 97.3317 424.986C97.2701 425.212 97.2985 425.453 97.4109 425.659C97.5233 425.864 97.7107 426.017 97.9331 426.084C109.125 428.502 120.089 431.895 130.7 436.226C131.755 436.665 132.217 434.929 131.172 434.492Z" fill="#FF9F48"/>
<path d="M135.939 389.078C125.83 394.191 115.247 398.286 104.343 401.304C103.355 401.62 104.069 403.549 104.911 403.878L107.001 420.123C107.124 421.084 108.638 421.096 108.512 420.123L106.497 404.46C112.277 406.648 118.311 408.082 124.451 408.726C125.419 408.828 125.412 407.302 124.451 407.202C119.049 406.625 109.11 404.492 105.946 402.426C116.551 399.404 126.849 395.375 136.702 390.393C137.579 389.956 136.808 388.639 135.939 389.078ZM207.525 344.428C203.745 344.128 197.664 345.902 197.756 341.528C197.269 337.707 197.925 333.827 199.64 330.386C199.738 330.21 199.764 330.003 199.713 329.808C199.663 329.613 199.539 329.445 199.369 329.34H199.344C192.816 326.086 185.612 324.453 178.333 324.577C171.054 324.702 163.91 326.58 157.495 330.056C157.195 330.161 156.94 330.368 156.772 330.64C156.605 330.913 156.536 331.235 156.576 331.553C156.034 340.334 156.437 349.148 157.779 357.841C159.16 368.819 160.249 373.422 163.954 377.569C165.207 378.879 166.876 379.704 168.67 379.899C170.464 380.094 172.268 379.647 173.77 378.636C174.775 377.642 175.541 376.427 176.008 375.086C176.475 373.745 176.631 372.314 176.464 370.902L180.804 376.596C182.212 378.442 183.941 380.261 186.468 379.732C191.082 378.484 192.048 373.335 190.338 368.976C194.214 373.357 193.796 375.894 198.153 378.654C199.357 379.174 200.705 379.244 201.956 378.852C203.206 378.46 204.277 377.631 204.978 376.513C208.609 371.291 206.929 361.147 204.197 355.306C208.34 357.621 213.83 357.272 215.772 352.646C217.585 347.586 211.486 344.739 207.525 344.428ZM214.3 352.269C212.2 356.588 206.539 355.513 202.762 352.768C202.618 352.688 202.451 352.658 202.287 352.682C202.124 352.705 201.973 352.782 201.856 352.9C201.739 353.018 201.664 353.171 201.641 353.337C201.617 353.502 201.648 353.67 201.727 353.816C205.136 359.719 206.937 368.195 204.259 374.737C204.056 375.299 203.737 375.811 203.323 376.24C202.91 376.669 202.411 377.004 201.86 377.224C201.309 377.444 200.718 377.544 200.126 377.517C199.534 377.49 198.954 377.337 198.425 377.067C193.606 373.247 194.856 369.832 189.093 366.089C188.572 365.812 187.72 366.286 187.982 366.952C189.134 369.204 189.671 371.725 189.538 374.255C189.415 375.238 188.988 376.157 188.317 376.879C187.646 377.602 186.766 378.092 185.803 378.28C183.615 378.489 182.187 375.922 181.056 374.432L176.24 368.098C175.839 367.571 174.758 367.636 174.829 368.482C175.108 371.975 175.269 377.374 170.929 378.335C166.392 379.333 163.225 375.024 161.931 371.249C158.688 358.263 157.398 344.859 158.105 331.486C164.193 328.121 170.985 326.263 177.922 326.065C184.86 325.868 191.744 327.337 198.01 330.351C196.358 333.926 195.758 337.905 196.281 341.815C196.459 347.524 203.691 345.67 207.522 345.937C210.444 346.209 215.89 348.302 214.3 352.269Z" fill="black"/>
<path d="M191.783 349.777L190.965 354.518C190.797 355.478 192.257 355.89 192.423 354.924C192.698 353.348 192.97 351.767 193.24 350.184C193.401 349.218 191.951 348.802 191.783 349.777ZM178.998 354.061L178.504 357.195C178.351 358.158 179.808 358.572 179.962 357.602L180.456 354.468C180.609 353.505 179.151 353.093 178.998 354.061ZM168.207 354.929C168.066 356.401 167.734 357.847 167.219 359.231C166.883 360.154 168.343 360.551 168.679 359.635C169.227 358.119 169.576 356.537 169.716 354.929C169.802 353.951 168.291 353.956 168.207 354.929ZM369.396 342.033C366.506 343.477 363.355 344.311 360.136 344.485C362.382 341.622 363.961 338.284 364.755 334.72C365.55 331.156 365.541 327.456 364.727 323.897C364.537 323.088 364.233 322.307 364.053 321.501C363.851 320.621 363.754 319.722 363.534 318.842C360.437 307.025 350.651 298.854 341.917 290.304C341.215 289.62 340.146 290.698 340.845 291.384C350.503 300.838 360.439 309.004 362.554 321.636C363.161 324.964 366.985 333.101 358.125 344.548C357.547 344.548 357.268 344.87 357.258 345.266C357.248 345.663 357.653 345.266 355.959 347.12C355.034 346.888 354.126 346.592 353.242 346.234C352.34 345.863 351.948 347.34 352.839 347.706C353.472 347.956 354.124 348.165 354.776 348.365C347.805 355.406 339.956 360.057 331.168 366.177C331.045 366.266 330.95 366.388 330.894 366.53C330.838 366.672 330.822 366.826 330.85 366.976C330.878 367.126 330.947 367.265 331.05 367.377C331.153 367.488 331.286 367.568 331.432 367.607C326.566 368.3 312.85 372.696 306.356 374.311C299.044 375.88 291.917 378.229 285.095 381.317C283.841 381.802 282.741 382.621 281.911 383.687C275.912 389.597 270.746 396.314 266.56 403.647C265.303 405.568 264.574 407.792 264.448 410.091C264.431 411.017 264.778 411.911 265.412 412.578C266.047 413.245 266.918 413.63 267.834 413.649C272.745 413.744 275.936 404.757 280.965 403.871C277.28 415.219 276.106 417.245 277.356 419.787C277.552 420.281 277.863 420.72 278.261 421.068C278.66 421.415 279.135 421.662 279.647 421.786C280.159 421.91 280.694 421.909 281.205 421.782C281.717 421.655 282.191 421.407 282.588 421.057C284.373 419.098 284.272 418.145 286.787 415.281C289.148 412.287 293.428 410.917 294.352 411.613C294.752 411.913 294.661 411.775 293.715 421.741C293.405 423.137 293.526 424.596 294.063 425.92C294.598 426.713 295.364 427.318 296.255 427.651C297.146 427.984 298.118 428.029 299.035 427.778C303.284 426.329 304.541 422.743 307.581 416.741C309.807 412.282 313.522 408.763 318.069 406.805C332.607 399.665 348.618 402.499 365.352 400.498C365.552 400.496 365.743 400.414 365.885 400.272C366.026 400.129 366.107 399.937 366.111 399.735C365.691 393.943 363.94 388.33 360.995 383.342C357.999 378.772 353.996 374.964 349.3 372.218C344.604 369.471 339.342 367.859 333.926 367.509C331.77 367.404 331.597 367.706 331.938 367.509C341.193 361.06 349.107 356.411 356.512 348.814C358.738 349.305 361.026 349.436 363.292 349.201C364.251 349.096 364.261 347.569 363.292 347.671C361.437 347.87 359.563 347.812 357.722 347.499C358.137 347.028 358.55 346.551 358.957 346.062C362.85 346.038 366.687 345.116 370.174 343.368C371.031 342.916 370.268 341.599 369.396 342.033ZM333.284 369.011C338.544 369.285 343.667 370.793 348.25 373.414C352.833 376.036 356.748 379.699 359.686 384.113C362.382 388.666 364.035 393.771 364.522 399.053C345.815 401.112 325.16 397.449 310.578 410.031C305.097 414.772 303.338 426.576 297.711 426.379C297.231 426.395 296.755 426.281 296.333 426.047C295.911 425.814 295.56 425.47 295.315 425.051C294.757 423.357 295.227 423.09 296.056 412.741C296.162 412.276 296.127 411.79 295.956 411.345C295.785 410.9 295.486 410.518 295.098 410.246C294.126 409.853 293.05 409.806 292.048 410.111C284.067 411.701 282.714 422.337 279.51 420.074C279.005 419.613 278.646 419.013 278.477 418.347C278.308 417.681 278.338 416.98 278.561 416.331C278.929 414.874 282.827 402.953 282.76 403.205C282.79 403.091 282.793 402.971 282.77 402.855C282.746 402.74 282.697 402.631 282.625 402.537C282.554 402.444 282.462 402.368 282.357 402.316C282.252 402.264 282.136 402.237 282.019 402.237C277.633 402.182 274.977 406.182 272.32 409.108C271.149 410.398 268.165 413.599 266.404 411.491C265.046 409.852 266.565 406.933 267.345 405.376C271.161 398.323 275.961 391.86 281.597 386.187C283.235 383.981 285.536 382.37 288.155 381.593C298.218 377.497 302.698 376.988 313.334 373.959C331.871 368.674 330.933 368.931 333.284 369.011Z" fill="black"/>
<path d="M284.545 389.969V393.562C284.545 393.764 284.624 393.958 284.766 394.102C284.908 394.245 285.1 394.325 285.3 394.325C285.501 394.325 285.693 394.245 285.835 394.102C285.977 393.958 286.056 393.764 286.056 393.562V389.969C286.056 389.767 285.977 389.572 285.835 389.429C285.693 389.286 285.501 389.206 285.3 389.206C285.1 389.206 284.908 389.286 284.766 389.429C284.624 389.572 284.545 389.767 284.545 389.969ZM295.781 395.318L296.341 399.375C296.475 400.343 297.932 399.932 297.799 398.968L297.24 394.912C297.107 393.944 295.66 394.355 295.781 395.318ZM305.26 400.493C305.631 402.348 305.762 404.243 305.651 406.132C305.594 407.112 307.106 407.11 307.162 406.132C307.275 404.106 307.126 402.073 306.718 400.086C306.528 399.126 305.068 399.532 305.26 400.493ZM329.212 255.638C323.862 240.169 310.418 241.429 300.204 236.676C300.867 236.129 301.407 235.446 301.789 234.671C302.17 233.897 302.383 233.049 302.415 232.185C302.516 227.42 300.518 221.324 295.348 220.683C294.243 220.635 293.141 220.834 292.12 221.265C291.099 221.697 290.185 222.35 289.443 223.178C284.767 227.528 279.708 231.436 274.329 234.855C265.251 241.012 254.494 244.144 243.565 243.812C235.997 243.974 230.088 243.615 223.676 239.792C221.825 238.702 220.435 236.964 219.769 234.907C219.648 234.146 218.479 234.214 218.309 234.907C215.017 248.667 226.43 268.201 249.569 272.582C254.772 273.288 260.036 273.4 265.264 272.919C272.029 278.32 279.954 282.043 288.402 283.788C296.851 285.534 305.586 285.254 313.908 282.971C321.214 280.975 331.037 276.626 331.556 267.814C331.608 263.636 330.81 259.492 329.212 255.638ZM329.634 270.182C325.658 281.998 292.132 291.539 267.46 272.714C281.983 271.332 298.811 264.797 298.742 250.044C298.742 249.842 298.663 249.648 298.521 249.505C298.379 249.361 298.187 249.281 297.986 249.281C297.786 249.281 297.594 249.361 297.452 249.505C297.31 249.648 297.23 249.842 297.23 250.044C297.312 268.183 270.307 272.998 251.782 271.357C231.183 268.724 218.228 252.272 219.366 237.739C223.093 243.014 230.447 244.618 236.75 245.149C247.17 246.186 257.681 244.569 267.324 240.446C275.008 236.693 282.131 231.865 288.482 226.105C290.295 224.503 291.994 222.332 294.565 222.19C299.355 221.926 301.676 229.071 300.597 233.727C300.136 234.761 299.356 235.617 298.374 236.167C298.262 236.236 298.17 236.333 298.105 236.448C298.041 236.563 298.007 236.694 298.007 236.826C298.007 236.958 298.041 237.088 298.105 237.204C298.17 237.319 298.262 237.416 298.374 237.485C310.252 243.665 326.115 240.037 329.82 263.932C330.218 266.003 330.155 268.138 329.634 270.182Z" fill="black"/>
<path d="M230.558 249.69C230.111 248.816 228.805 249.587 229.252 250.461L231.077 254.031C231.524 254.902 232.828 254.131 232.381 253.257L230.558 249.69ZM266.561 255.044C266.902 255.957 268.364 255.56 268.018 254.637C267.421 253.044 266.825 251.449 266.23 249.852C265.889 248.941 264.427 249.335 264.77 250.258L266.561 255.044ZM275.982 257.943C274.423 260.404 272.124 262.294 269.423 263.337C266.721 264.38 263.76 264.52 260.974 263.736C260.781 263.682 260.574 263.708 260.4 263.808C260.225 263.908 260.097 264.074 260.044 264.269C259.991 264.464 260.016 264.673 260.115 264.849C260.214 265.025 260.378 265.155 260.571 265.208C263.678 266.068 266.976 265.902 269.983 264.735C272.99 263.568 275.55 261.461 277.288 258.721C277.805 257.876 276.503 257.112 275.982 257.943ZM246.176 259.393C245.472 259.659 244.695 259.645 244 259.355C243.306 259.064 242.747 258.517 242.437 257.826C241.729 255.981 241.62 253.956 242.125 252.045C242.269 251.084 240.811 250.67 240.668 251.641C240.31 252.891 240.201 254.2 240.346 255.493C240.491 256.786 240.887 258.038 241.513 259.176C242.089 260.043 242.953 260.674 243.95 260.956C244.946 261.237 246.009 261.15 246.947 260.71C247.799 260.248 247.036 258.926 246.176 259.393ZM294.904 228.377C293.742 230.362 292.43 232.253 290.98 234.033C290.357 234.782 291.422 235.867 292.049 235.114C293.603 233.25 294.996 231.254 296.211 229.148C296.297 228.974 296.314 228.774 296.259 228.588C296.204 228.402 296.081 228.243 295.915 228.145C295.749 228.047 295.552 228.017 295.364 228.06C295.177 228.103 295.012 228.216 294.904 228.377ZM296.745 74.6504C295.822 73.843 294.682 73.3316 293.471 73.1814C292.259 73.0312 291.031 73.249 289.942 73.8071C286.422 77.3649 288.606 83.4228 293.069 83.4602C298.071 83.4378 300.711 77.4373 296.745 74.6504ZM301.689 134.91C299.678 134.992 297.663 134.904 295.665 134.648C296.9 132.936 298.101 131.18 299.197 129.363C299.706 128.522 298.397 127.754 297.891 128.592C296.848 130.319 295.719 131.985 294.544 133.615C293.043 131.655 291.84 129.479 290.975 127.16C290.639 126.247 289.176 126.641 289.515 127.567C290.4 129.942 291.612 132.178 293.116 134.211C291.865 133.965 290.629 133.652 289.411 133.273C288.48 132.978 288.082 134.453 289.008 134.745C290.307 135.151 291.626 135.484 292.96 135.743C291.653 137.435 290.273 139.069 288.826 140.641C288.159 141.359 289.226 142.442 289.893 141.723C291.562 139.922 293.139 138.042 294.623 136.085C296.198 137.875 298.005 139.443 299.995 140.745C300.815 141.279 301.576 139.957 300.758 139.426C299.374 138.518 298.084 137.471 296.908 136.302C298.498 136.453 300.096 136.5 301.692 136.444C302.66 136.394 302.665 134.87 301.689 134.91ZM259.541 188.103C257.578 186.636 255.784 184.951 254.194 183.078C255.602 183.001 257.013 183.037 258.415 183.185C259.381 183.295 259.371 181.768 258.415 181.658C257.176 181.527 255.93 181.481 254.685 181.521C255.478 179.902 256.269 178.278 257.118 176.683C257.578 175.818 256.274 175.047 255.812 175.912C254.824 177.759 253.905 179.632 252.993 181.511C251.95 180.15 251.01 178.71 250.183 177.205C249.721 176.342 248.414 177.11 248.878 177.976C249.607 179.311 250.423 180.596 251.321 181.821C249.838 182.033 248.374 182.366 246.944 182.819C246.021 183.115 246.413 184.59 247.345 184.291C248.917 183.794 250.532 183.445 252.168 183.25C251.247 185.221 250.348 187.202 249.503 189.208C249.128 190.104 250.43 190.882 250.81 189.982C251.603 188.093 252.452 186.239 253.317 184.378C254.955 186.253 256.786 187.948 258.778 189.433C259.564 190.007 260.319 188.682 259.541 188.103ZM188.857 202.986C187.296 203.864 185.758 204.795 184.209 205.698C184.671 204.378 185.115 203.051 185.508 201.706C185.561 201.511 185.536 201.302 185.437 201.126C185.338 200.95 185.174 200.82 184.981 200.766C184.787 200.712 184.581 200.738 184.407 200.838C184.232 200.938 184.104 201.104 184.051 201.299C183.777 202.235 183.486 203.164 183.176 204.086C182.435 202.589 181.694 201.077 181.015 199.54C180.622 198.642 179.316 199.42 179.709 200.311C180.568 202.27 181.494 204.196 182.46 206.102C182.08 207.147 182.954 206.424 176.186 210.378C176.019 210.483 175.899 210.65 175.852 210.843C175.805 211.036 175.834 211.24 175.933 211.412C176.033 211.584 176.195 211.709 176.384 211.762C176.574 211.815 176.777 211.791 176.95 211.696L181.267 209.176C180.773 210.343 180.279 211.501 179.748 212.644C179.331 213.527 180.632 214.303 181.052 213.415C181.902 211.618 182.682 209.789 183.391 207.926L183.426 207.906C184.276 209.515 185.133 211.119 186.056 212.684C186.164 212.845 186.329 212.958 186.516 213.001C186.704 213.044 186.901 213.014 187.067 212.916C187.233 212.818 187.356 212.659 187.411 212.473C187.466 212.287 187.449 212.087 187.363 211.913C186.45 210.343 185.574 208.753 184.735 207.142L189.621 204.291C189.767 204.177 189.867 204.013 189.902 203.83C189.937 203.647 189.905 203.457 189.811 203.297C189.717 203.136 189.568 203.016 189.392 202.959C189.217 202.902 189.027 202.911 188.857 202.986ZM118.24 132.195C116.183 131.551 114.14 130.87 112.102 130.174C113.443 129.55 114.765 128.882 116.042 128.126C116.204 128.019 116.32 127.853 116.365 127.662C116.41 127.471 116.38 127.27 116.282 127.101C116.185 126.932 116.026 126.807 115.84 126.752C115.653 126.698 115.453 126.718 115.281 126.808C113.568 127.801 111.79 128.677 109.961 129.428C109.565 129.288 109.168 129.156 108.775 129.014C109.406 126.47 109.866 123.886 110.153 121.279C110.255 120.304 108.74 120.311 108.642 121.279C108.372 123.709 107.944 126.117 107.362 128.49C104.545 127.46 101.745 126.379 98.9642 125.246C98.0627 124.875 97.6724 126.352 98.5641 126.719C108.182 130.656 107.115 129.578 106.831 130.591C104.973 131.217 103.075 131.717 101.15 132.088C100.194 132.267 100.599 133.739 101.55 133.56C103.141 133.249 104.715 132.852 106.263 132.37C105.621 134.433 104.86 136.458 103.986 138.433C103.586 139.321 104.89 140.097 105.292 139.206C109.267 130.279 106.475 132.469 110.008 131.045C112.601 131.953 115.195 132.831 117.828 133.65C118.771 133.959 119.166 132.484 118.24 132.195ZM165.054 39.3336C164.407 39.7778 163.735 40.167 163.061 40.5587L164.607 38.3132C165.163 37.5048 163.866 36.7413 163.303 37.5422L161.275 40.4888C160.628 38.7544 160.187 36.9487 159.961 35.1096C159.845 34.1465 158.331 34.1341 158.449 35.1096C158.736 37.4697 159.343 39.7785 160.255 41.9709C158.228 42.9093 156.096 43.593 153.904 44.0068C152.951 44.1914 153.354 45.666 154.307 45.4788C155.796 45.1735 157.261 44.7566 158.689 44.2313L155.317 49.1515C154.762 49.9598 156.058 50.7233 156.624 49.9199L160.986 43.5826C161.898 45.4195 163.025 47.1392 164.343 48.7049C164.975 49.4534 166.04 48.368 165.412 47.6245C164.159 46.1348 163.094 44.4939 162.241 42.7393C163.477 42.1275 164.672 41.4341 165.817 40.6635C166.618 40.1021 165.862 38.7798 165.054 39.3336ZM244.796 91.2246C244.484 90.2965 243.025 90.6957 243.336 91.6313C243.664 92.6119 246.717 101.751 246.873 102.327C246.978 102.77 246.907 103.237 246.676 103.628C246.446 104.019 246.073 104.303 245.638 104.421C241.118 105.3 236.458 105.104 232.026 103.849C231.509 103.717 230.88 104.219 231.094 104.787C234.582 114.029 238.067 123.272 241.55 132.517C236.98 131.818 232.438 130.945 227.943 129.85C227.256 129.683 226.604 130.598 227.202 131.125C232.858 136.035 238.42 141.053 243.887 146.18L231.593 148.999C230.647 149.216 231.047 150.69 231.996 150.471L245.665 147.337C245.761 147.309 245.851 147.263 245.929 147.2C246.008 147.137 246.073 147.059 246.121 146.97C246.17 146.881 246.201 146.784 246.212 146.684C246.223 146.583 246.214 146.481 246.186 146.384C245.969 145.636 231.01 132.462 230.425 131.953C234.429 132.851 238.455 133.635 242.516 134.221C243.01 134.293 243.677 133.892 243.447 133.283L233.023 105.641C235.328 106.149 237.675 106.435 240.033 106.497C242.335 106.786 244.672 106.453 246.806 105.533C247.51 105.163 248.045 104.534 248.302 103.776C248.559 103.018 248.518 102.19 248.187 101.462C247.831 100.092 246.907 97.5694 244.796 91.2246ZM140.013 98.5525C140.065 97.5694 138.553 97.5744 138.502 98.5525C138.273 103.041 138.762 107.537 139.949 111.868C140.002 112.063 140.13 112.229 140.305 112.329C140.479 112.429 140.686 112.455 140.879 112.401C141.072 112.347 141.236 112.218 141.335 112.042C141.434 111.865 141.46 111.657 141.406 111.462C140.259 107.262 139.789 102.903 140.013 98.5525ZM147.781 90.7755C147.873 89.795 146.359 89.8025 146.27 90.7755C145.974 94.0478 146.133 97.3459 146.744 100.573C146.924 101.536 148.382 101.127 148.204 100.167C147.631 97.0714 147.489 93.9105 147.781 90.7755ZM159.506 114.922C156.646 110.427 155.432 105.062 156.076 99.7575C156.194 98.7845 154.68 98.792 154.564 99.7575C153.906 105.334 155.192 110.968 158.2 115.691C158.726 116.516 160.035 115.75 159.506 114.922ZM158.654 130.935C158.844 130.977 159.042 130.943 159.208 130.842C159.374 130.741 159.495 130.579 159.546 130.39C159.598 130.201 159.576 130 159.485 129.827C159.394 129.654 159.241 129.523 159.057 129.461C157.404 129.042 155.87 128.241 154.577 127.12C153.283 125.999 152.266 124.59 151.605 123.003C151.239 122.105 149.777 122.504 150.148 123.41C150.878 125.253 152.029 126.895 153.507 128.203C154.986 129.511 156.749 130.447 158.654 130.935ZM164.177 141.397C160.105 141.04 156.265 139.327 153.262 136.526C152.546 135.86 151.474 136.941 152.193 137.609C155.491 140.678 159.708 142.549 164.177 142.926C165.145 143.008 165.14 141.481 164.177 141.397ZM183.557 135.017C179.884 136.446 175.854 136.644 172.061 135.583C171.873 135.544 171.676 135.578 171.511 135.68C171.347 135.782 171.227 135.943 171.176 136.131C171.125 136.319 171.147 136.519 171.237 136.691C171.327 136.864 171.479 136.995 171.661 137.058C175.716 138.199 180.027 138 183.962 136.489C184.858 136.142 184.468 134.663 183.557 135.017ZM203.322 129.166C199.641 129.632 195.982 130.231 192.343 130.963C191.389 131.152 191.792 132.627 192.745 132.435C196.249 131.731 199.775 131.149 203.322 130.688C204.27 130.573 204.287 129.044 203.322 129.166ZM210.223 139.161C207.389 137.395 204.003 136.768 200.733 137.402C199.775 137.582 200.18 139.054 201.133 138.874C204.01 138.341 206.98 138.914 209.46 140.481C210.29 141 211.05 139.68 210.223 139.161ZM147.314 160.825C146.524 160.254 145.766 161.574 146.554 162.145C148.783 163.748 151.271 164.949 153.907 165.693C154.098 165.741 154.301 165.712 154.472 165.611C154.642 165.511 154.767 165.347 154.819 165.154C154.871 164.962 154.847 164.757 154.751 164.582C154.656 164.408 154.496 164.278 154.307 164.221C151.8 163.505 149.434 162.356 147.314 160.825ZM205.686 191.721C206.287 190.856 206.684 189.862 206.846 188.818C207.008 187.773 206.93 186.705 206.619 185.695C206.338 184.757 204.89 185.156 205.164 186.099C205.417 186.914 205.478 187.777 205.341 188.619C205.205 189.461 204.875 190.259 204.379 190.95C203.818 191.756 205.13 192.519 205.686 191.721ZM180.766 79.0016C181.736 79.0466 181.734 77.5196 180.766 77.4722C178.311 77.3582 175.976 76.3649 174.181 74.6703C173.467 74.0017 172.395 75.0795 173.109 75.7482C175.197 77.718 177.912 78.8715 180.766 79.0016ZM199.15 35.2568L201.047 26.9036C201.264 25.9455 199.812 25.5388 199.59 26.4969L197.69 34.8526C197.473 35.8082 198.93 36.2174 199.15 35.2568ZM113.621 36.7114C114.572 36.8786 114.982 35.4065 114.024 35.2393C110.518 34.6393 107.325 32.8332 104.986 30.1271C104.341 29.3786 103.277 30.4714 103.917 31.2099C106.435 34.1093 109.859 36.0507 113.621 36.7114ZM307.454 180.586V189.568C307.465 189.763 307.55 189.946 307.691 190.081C307.832 190.215 308.018 190.29 308.212 190.29C308.405 190.29 308.591 190.215 308.732 190.081C308.873 189.946 308.958 189.763 308.969 189.568V180.586C308.958 180.39 308.873 180.207 308.732 180.072C308.591 179.938 308.405 179.863 308.212 179.863C308.018 179.863 307.832 179.938 307.691 180.072C307.55 180.207 307.465 180.39 307.454 180.586ZM374.433 242.244C373.463 242.167 373.468 243.697 374.433 243.771C396.93 245.543 410.683 267.03 421.223 284.47C421.729 285.306 423.038 284.54 422.527 283.696C410.945 264.545 397.491 244.176 374.433 242.244ZM430.082 272.681C426.192 263.987 420.512 256.23 413.421 249.927C406.33 243.624 397.991 238.92 388.96 236.127C388.77 236.085 388.572 236.118 388.406 236.22C388.24 236.321 388.119 236.483 388.067 236.672C388.016 236.86 388.038 237.062 388.129 237.235C388.22 237.408 388.373 237.539 388.557 237.601C397.399 240.346 405.559 244.963 412.495 251.145C419.431 257.327 424.982 264.932 428.778 273.452C429.171 274.348 430.48 273.569 430.082 272.681ZM109.491 347.646C102.28 338.145 95.7043 328.168 89.8079 317.783C89.7039 317.614 89.5387 317.493 89.3476 317.445C89.1565 317.398 88.9544 317.427 88.7845 317.528C88.6146 317.628 88.4902 317.792 88.4378 317.983C88.3853 318.175 88.409 318.38 88.5038 318.554C94.3975 328.941 100.973 338.919 108.185 348.419C108.768 349.188 110.084 348.427 109.491 347.646ZM106.587 353.477C93.3547 348.996 80.4876 343.482 68.1016 336.987C67.242 336.535 66.4739 337.853 67.3408 338.307C79.8415 344.864 92.8284 350.429 106.184 354.951C107.11 355.265 107.508 353.791 106.587 353.477ZM97.3686 361.139C88.2012 364.088 78.706 365.873 69.1019 366.453C68.1337 366.51 68.1263 368.04 69.1019 367.982C78.8415 367.396 88.4715 365.592 97.7712 362.611C98.695 362.314 98.3072 360.839 97.3686 361.139ZM291.096 460.427C290.891 459.464 289.431 459.871 289.636 460.831C291.413 469.215 293.186 477.599 294.956 485.983C295.159 486.944 296.619 486.537 296.416 485.577L291.096 460.427ZM297.481 458.272C296.861 457.523 295.799 458.598 296.409 459.354L315.405 482.683C316.025 483.431 317.087 482.356 316.477 481.602L297.481 458.272ZM327.523 464.172C319.755 459.859 311.597 456.303 303.162 453.551C302.23 453.249 301.835 454.721 302.757 455.023C311.069 457.733 319.107 461.238 326.76 465.49C327.627 465.964 328.39 464.646 327.523 464.172Z" fill="black"/>
<path d="M234.418 192.495C233.468 192.47 232.534 192.736 231.737 193.258C230.941 193.781 230.32 194.535 229.957 195.422C229.861 196.649 230.158 197.875 230.805 198.919C231.451 199.963 232.413 200.768 233.548 201.217C234.151 201.319 234.767 201.3 235.362 201.161C235.958 201.022 236.52 200.766 237.017 200.407C237.514 200.048 237.936 199.594 238.259 199.07C238.583 198.547 238.801 197.964 238.901 197.355C238.944 196.734 238.861 196.109 238.655 195.522C238.45 194.934 238.127 194.396 237.706 193.94C237.286 193.484 236.777 193.12 236.211 192.871C235.645 192.623 235.035 192.495 234.418 192.495ZM82.0952 61.2005C88.9787 62.5871 96.058 62.6633 102.969 61.4251C88.574 85.0752 90.2066 82.1336 89.5323 83.8452C89.0556 85.5742 89.6558 87.1411 92.0591 86.1505C94.0351 85.3372 98.8862 83.2563 111.118 78.0942C104.619 97.0188 103.236 99.8531 103.577 104.711C103.579 104.852 103.618 104.99 103.689 105.111C103.759 105.232 103.86 105.333 103.981 105.404C104.102 105.474 104.239 105.511 104.378 105.512C104.518 105.513 104.655 105.478 104.777 105.409C108.391 103.286 111.575 100.492 114.163 97.1759C114.791 96.3676 113.669 95.2149 113.029 96.0357C110.824 98.8587 108.169 101.291 105.172 103.234C105.281 99.2692 105.987 97.9943 113.239 76.8791C113.425 76.3377 112.815 75.6491 112.251 75.8811L91.0094 84.8631C90.8563 84.3292 91.5355 83.3112 91.7331 82.9894C92.3753 81.929 105.288 60.7215 105.288 60.7215C105.392 60.5312 105.416 60.3074 105.355 60.0992C105.295 59.8911 105.156 59.7155 104.967 59.6112C103.861 58.9975 96.8164 62.2185 83.7105 59.8607C87.2686 55.1218 90.2336 49.9571 92.5383 44.484C92.936 43.5384 91.5503 42.7126 91.1576 43.6707C85.1654 58.0319 79.5535 60.4196 82.0952 61.2005ZM331.091 213.69L317.963 218.855C316.908 219.271 317.368 221.008 318.435 220.601L331.563 215.434C332.615 215.007 332.158 213.268 331.091 213.69ZM332.262 158.473L334.66 174.638C334.828 175.776 336.54 175.292 336.374 174.159C335.574 168.773 334.775 163.386 333.978 157.997C333.808 156.856 332.094 157.343 332.262 158.473ZM106.514 199.536L108.124 212.729C108.26 213.862 110.041 213.875 109.902 212.729L108.292 199.536C108.154 198.403 106.375 198.388 106.514 199.536ZM123.537 242.395C132.305 234.748 135.393 234.967 134.405 233.413C134.284 233.22 134.096 233.081 133.878 233.023C133.66 232.965 133.428 232.993 133.229 233.101C129.361 235.459 125.698 238.144 122.28 241.127C121.413 241.881 122.675 243.146 123.537 242.395ZM157.378 190.569C157.619 192.907 158.419 195.15 159.71 197.106C160.347 198.059 161.888 197.161 161.246 196.2C160.109 194.525 159.392 192.596 159.157 190.579C159.031 189.434 157.255 189.419 157.378 190.569ZM62.9502 176.667L55.8909 179.783C54.8437 180.244 55.7501 181.794 56.7875 181.335L63.8468 178.219C64.8941 177.754 63.9901 176.21 62.9502 176.667ZM58.0448 105.182C53.0671 105.535 48.0711 104.84 43.373 103.141C42.2961 102.75 41.8292 104.486 42.9012 104.873C47.7509 106.624 52.9071 107.341 58.0448 106.979C59.1785 106.899 59.1859 105.1 58.0448 105.182ZM222.841 79.8033C220.472 77.7326 218.885 74.8989 218.348 71.7818C218.143 70.6441 216.431 71.1256 216.619 72.2584C217.228 75.6823 218.978 78.7928 221.579 81.0732C222.443 81.8367 223.708 80.5617 222.841 79.8033ZM254.178 40.5669C257.902 38.1268 261.629 35.6883 265.357 33.2515C266.315 32.6253 265.426 31.0709 264.46 31.7021L253.279 39.015C252.323 39.6412 253.214 41.1981 254.178 40.5669ZM364.873 181.22L377.27 183.321C378.389 183.508 378.871 181.779 377.742 181.589L365.345 179.489C364.226 179.299 363.744 181.028 364.873 181.22ZM385.641 116.664C384.862 111.875 384.837 106.991 385.567 102.193C385.74 101.063 384.025 100.574 383.85 101.717C383.07 106.828 383.096 112.033 383.927 117.136C384.112 118.281 385.826 117.8 385.641 116.664ZM356.937 261.033C353.533 262.734 350.127 264.434 346.719 266.132C345.694 266.646 346.593 268.196 347.618 267.684L357.836 262.585C358.861 262.073 357.96 260.521 356.937 261.033ZM384.287 291.497L380.96 304.134C380.904 304.361 380.938 304.602 381.055 304.805C381.172 305.007 381.363 305.156 381.587 305.218C381.811 305.28 382.05 305.251 382.253 305.138C382.456 305.024 382.608 304.835 382.674 304.61L386.004 291.976C386.053 291.75 386.015 291.514 385.897 291.317C385.779 291.119 385.591 290.974 385.371 290.913C385.151 290.851 384.915 290.878 384.714 290.986C384.512 291.095 384.359 291.278 384.287 291.497ZM263.512 339.895C264.623 340.159 265.1 338.428 263.983 338.163C260.933 337.443 257.993 336.31 255.242 334.795C254.237 334.243 253.338 335.793 254.346 336.347C257.23 337.939 260.313 339.132 263.512 339.895ZM297.662 297.32C297.168 296.275 295.634 297.185 296.128 298.226L300.932 308.373C301.426 309.416 302.96 308.507 302.469 307.467L297.662 297.32ZM444.871 316.883L450.046 326.307C450.16 326.515 450.352 326.669 450.579 326.735C450.805 326.801 451.049 326.773 451.255 326.657C451.461 326.542 451.614 326.348 451.679 326.119C451.744 325.89 451.716 325.645 451.602 325.436L446.415 316.012C446.288 315.832 446.1 315.705 445.886 315.656C445.672 315.607 445.448 315.64 445.256 315.748C445.065 315.856 444.92 316.031 444.849 316.241C444.778 316.451 444.786 316.679 444.871 316.883ZM429.333 174.97L422.17 178.478C421.14 178.977 422.039 180.531 423.064 180.03L430.227 176.522C431.262 176.018 430.358 174.469 429.333 174.97Z" fill="#B26EE6"/>
</svg>
