<svg width="353" height="353" viewBox="0 0 353 353" fill="none" xmlns="http://www.w3.org/2000/svg">
<path d="M316.13 59.5818C314.417 54.5667 311.747 49.9316 308.269 45.933C306.395 43.6915 304.309 41.6358 302.04 39.7943C301.555 39.3972 300.847 40.1032 301.334 40.5003C305.237 43.7075 308.593 47.5266 311.273 51.8087C312.718 54.0878 313.917 56.5135 314.851 59.0452C315.744 61.6929 316.206 64.467 316.218 67.2613C316.203 70.4543 315.967 73.6423 315.512 76.8029C314.674 81.4836 314.055 86.2544 313.349 90.9811C311.714 101.802 310.124 112.669 308.49 123.491C306.372 137.713 304.254 151.981 302.136 166.204C299.928 181.001 297.723 195.755 295.466 210.551C293.566 223.185 291.623 235.773 289.68 248.407C288.178 257.991 286.503 267.576 285.041 277.206C283.931 286.184 282.308 295.091 280.182 303.884C277.93 312.453 274.534 321.022 268.653 327.781C265.112 331.767 260.812 335.008 256.004 337.314C251.195 339.619 245.976 340.944 240.65 341.209C234.828 341.481 228.994 341.289 223.203 340.635C216.621 340.016 210.039 339.354 203.458 338.648C176.956 335.776 150.63 331.941 124.481 326.81C112.289 324.424 99.9213 322.127 87.9069 318.814C76.9092 315.766 66.3068 310.775 59.9917 300.88C57.072 296.316 55.2154 291.154 54.559 285.775C54.469 285.156 53.5 285.156 53.5424 285.775C54.1808 291.059 55.9467 296.143 58.7204 300.685C61.4942 305.227 65.2111 309.12 69.6197 312.1C79.0731 318.454 90.6462 320.714 101.6 323.1C127.75 328.842 154.091 333.45 180.622 336.925C193.919 338.648 207.229 340.118 220.552 341.338C231.993 342.442 243.963 343.503 254.784 338.953C263.326 335.24 270.362 328.749 274.75 320.533C278.857 312.511 281.689 303.898 283.142 295.003C284.777 286.354 285.79 277.6 287.294 268.943C287.913 265.277 288.529 261.565 289.106 257.855C290.946 246.289 292.742 234.716 294.495 223.137C296.747 208.472 298.956 193.808 301.121 179.143C303.329 164.301 305.533 149.503 307.745 134.665C309.557 122.518 311.368 110.326 313.179 98.1788C314.15 91.553 315.121 84.883 316.18 78.259C316.268 77.816 316.314 77.3306 316.402 76.8893V76.757C317.235 71.1549 317.897 65.1927 316.13 59.5818Z" fill="black"/>
<path d="M305.266 87.3223C307.43 70.493 313.968 47.2144 297.315 35.5089C290.821 30.9199 282.916 28.9273 275.185 27.5665C264.629 25.7114 253.94 24.5183 243.295 23.281C221.607 20.713 138.345 8.96335 116.259 8.82568C107.426 8.78156 98.5459 8.91393 92.0101 15.7092C85.9138 21.9926 84.3235 31.0488 82.9557 39.3602C75.8003 82.7792 53.759 213.525 51.2863 235.655C50.1372 245.858 49.2089 256.858 50.7991 267.193C50.7991 269.048 50.7991 270.859 50.9756 272.714C52.4335 290.294 63.5212 302.751 79.6869 308.934C88.0156 311.83 96.5698 314.031 105.262 315.516C115.865 317.634 126.481 319.607 137.109 321.435C158.973 325.182 180.928 328.286 202.976 330.748C213.135 331.897 223.427 333.31 233.674 333.663C242.676 333.972 252.006 332.867 259.117 326.78C272.412 315.383 273.427 294.314 276.211 278.324C283.843 234.499 302.395 109.452 305.266 87.3223ZM257.514 289.713C195.233 282.337 69.3016 263.829 68.6397 263.254C67.5807 262.327 87.1475 113.338 98.2776 44.5705C167.626 50.0031 229.77 59.4547 290.377 70.2336C279.47 143.421 268.516 216.581 257.514 289.713Z" fill="#E653C2"/>
<path d="M294.71 208.8C294.71 208.756 294.666 208.712 294.666 208.667C294.023 207.665 293.316 206.706 292.548 205.796L287.253 198.773C284.691 195.419 282.173 192.066 279.612 188.702L270.326 176.5C267.015 172.128 263.702 167.799 260.389 163.427C257.076 159.097 253.808 154.768 250.495 150.44L241.483 138.646C239.054 135.469 236.625 132.292 234.195 129.149C232.56 127.031 230.97 124.913 229.336 122.834C228.939 122.304 228.542 121.817 228.144 121.288C228.1 121.243 228.056 121.155 228.012 121.111C228.056 120.582 227.483 120.405 227.084 120.271C225.802 119.786 224.523 119.3 223.201 118.813C221.965 118.372 220.77 117.886 219.535 117.445C218.473 116.955 217.291 116.785 216.134 116.958C215.997 116.995 215.876 117.076 215.788 117.187C215.7 117.299 215.651 117.436 215.646 117.578C215.733 120.222 215.955 122.861 216.31 125.483C216.442 126.588 216.707 127.693 216.796 128.796C216.782 128.933 216.798 129.071 216.844 129.201C216.89 129.331 216.964 129.45 217.06 129.548C217.325 129.857 217.59 130.21 217.856 130.518C218.077 130.827 218.342 131.138 218.562 131.447C218.695 131.623 218.871 131.844 219.004 132.021C219.092 132.109 219.136 132.197 219.224 132.285C219.279 132.336 219.323 132.395 219.357 132.462C219.224 132.329 219.401 132.506 219.401 132.55C220.197 133.609 221.035 134.668 221.831 135.727C224.083 138.687 226.381 141.647 228.633 144.607C231.533 148.38 234.419 152.163 237.291 155.957C240.559 160.193 243.784 164.482 247.053 168.724C250.406 173.096 253.723 177.469 257.036 181.841C260.17 185.994 263.351 190.101 266.487 194.254C269.182 197.784 271.876 201.366 274.571 204.899C276.558 207.506 278.502 210.111 280.489 212.718C281.462 214.042 282.478 215.323 283.449 216.649C283.493 216.737 283.581 216.825 283.625 216.913C283.678 217.018 283.761 217.104 283.864 217.159C283.967 217.214 284.085 217.237 284.201 217.222C285.13 218.09 286.281 218.685 287.526 218.942C288.772 219.199 290.064 219.109 291.261 218.68C292.559 218.187 293.677 217.309 294.465 216.165C295.253 215.021 295.675 213.664 295.673 212.275C295.664 211.052 295.332 209.853 294.71 208.8Z" fill="#FFD35C"/>
<path d="M182.867 152.782C184.164 154.38 185.179 156.188 185.867 158.127C186.648 160 187.024 162.018 186.97 164.047C186.927 165.062 186.674 166.057 186.225 166.968C185.777 167.88 185.143 168.688 184.365 169.342C183.578 169.979 182.614 170.358 181.604 170.429C180.594 170.5 179.586 170.259 178.717 169.739L181.012 170.491C180.924 170.888 180.526 173.539 180.438 173.98L168.424 172.794C168.512 172.044 168.865 169.702 168.953 168.952" fill="#FCAFB7"/>
<path d="M186.093 157.774C185.379 155.882 184.381 154.109 183.133 152.518C182.868 152.209 182.383 152.65 182.647 153.003C183.939 154.615 184.94 156.439 185.607 158.393C186.439 160.357 186.758 162.5 186.534 164.62C186.434 165.527 186.147 166.403 185.692 167.192C185.236 167.982 184.621 168.669 183.886 169.209C182.979 169.827 181.89 170.122 180.794 170.048C180.088 169.827 179.425 169.606 178.719 169.386C178.366 169.253 178.143 169.783 178.452 170.004C179.069 170.42 179.786 170.664 180.529 170.71C180.353 171.68 180.219 172.609 180.042 173.581C176.641 173.228 173.196 172.918 169.795 172.565L168.647 172.432C168.824 171.283 168.956 170.138 169.133 168.943C169.177 168.546 168.559 168.323 168.515 168.766L167.986 172.609C167.972 172.656 167.969 172.706 167.978 172.754C167.987 172.802 168.007 172.848 168.038 172.887C168.068 172.926 168.107 172.957 168.152 172.977C168.196 172.998 168.245 173.008 168.294 173.006C171.784 173.359 175.319 173.712 178.809 174.022L180.311 174.155C180.443 174.155 180.619 174.022 180.619 173.89C180.796 172.785 180.972 171.68 181.149 170.621C182.147 170.552 183.114 170.244 183.968 169.721C184.821 169.199 185.536 168.478 186.052 167.621C187.992 164.664 187.33 160.954 186.093 157.774Z" fill="black"/>
<path d="M182.866 152.385C182.277 150.481 181.121 148.801 179.553 147.57C176.553 144.965 172.266 143.066 168.289 144.434C167.86 144.545 167.458 144.744 167.108 145.017C166.759 145.291 166.469 145.633 166.258 146.023C166.053 146.497 166.022 147.029 166.169 147.525C165.124 147.246 164.025 147.238 162.975 147.501C161.925 147.764 160.96 148.289 160.168 149.027C159.832 149.391 159.582 149.827 159.437 150.301C159.292 150.775 159.254 151.276 159.328 151.766C159.417 152.271 159.665 152.734 160.034 153.09C159.173 153.213 158.377 153.618 157.77 154.242C157.164 154.866 156.781 155.672 156.681 156.537C156.572 157.541 156.799 158.553 157.326 159.416C157.854 160.278 158.651 160.941 159.595 161.302C159.551 161.302 159.507 161.346 159.462 161.346C158.855 161.876 158.434 162.587 158.259 163.374C158.084 164.161 158.166 164.983 158.492 165.72C158.905 166.549 159.482 167.286 160.188 167.885C160.894 168.485 161.714 168.935 162.599 169.209C164.583 169.996 166.693 170.414 168.827 170.445C170.815 170.388 172.776 169.969 174.613 169.209C176.663 168.35 178.546 167.14 180.178 165.632C180.24 165.566 180.275 165.479 180.275 165.389C180.275 165.299 180.24 165.212 180.178 165.146C179.489 164.577 178.96 163.839 178.642 163.003C178.325 162.168 178.23 161.264 178.367 160.381C178.483 159.456 178.959 158.614 179.693 158.039C180.054 157.77 180.502 157.644 180.951 157.685C181.399 157.726 181.817 157.931 182.123 158.261C182.166 158.301 182.217 158.33 182.274 158.345C182.33 158.361 182.389 158.362 182.446 158.348C182.503 158.335 182.556 158.308 182.599 158.269C182.643 158.231 182.677 158.182 182.697 158.127C183.303 156.269 183.361 154.276 182.866 152.385Z" fill="black"/>
<path d="M240.952 171.29C241.393 169.92 242.454 165.642 242.94 164.267C243.781 165.188 244.564 166.162 245.282 167.183C246.916 164.929 248.55 162.677 250.273 160.476C250.758 159.812 251.42 159.106 252.26 159.195C252.375 161.859 251.797 164.507 250.582 166.881C251.332 165.909 252.084 164.98 252.834 164.009C253.501 163.057 254.305 162.208 255.22 161.491C255.404 161.334 255.641 161.255 255.882 161.27C256.368 161.358 256.412 162.066 256.279 162.552C255.574 164.899 254.502 167.121 253.102 169.133C254.087 167.927 255.283 166.91 256.632 166.133C256.798 166.009 257.001 165.947 257.208 165.956C257.561 165.956 257.826 166.353 257.87 166.706C257.871 167.062 257.78 167.413 257.605 167.723C256.771 169.448 255.796 171.101 254.689 172.665C255.336 172.143 256.031 171.685 256.765 171.295C256.833 171.241 256.911 171.202 256.995 171.179C257.078 171.156 257.166 171.151 257.252 171.163C257.605 171.251 257.649 171.781 257.561 172.135C257.053 173.498 256.254 174.734 255.22 175.757C253.033 177.902 250.566 179.743 247.887 181.229" fill="#FCAFB7"/>
<path d="M256.676 170.937C256.411 171.07 256.191 171.202 255.926 171.334C256.366 170.667 256.764 169.974 257.119 169.259C257.561 168.42 258.531 167.095 257.958 166.122C257.384 165.107 256.279 165.857 255.617 166.343C255.315 166.553 255.021 166.774 254.735 167.006C255.132 166.353 255.486 165.673 255.794 164.973C256.105 164.255 256.37 163.517 256.588 162.765C256.677 162.528 256.712 162.274 256.689 162.021C256.666 161.769 256.586 161.525 256.456 161.307C255.617 160.204 254.027 162.059 253.542 162.633C252.966 163.295 252.392 164.001 251.819 164.751C252.394 162.953 252.662 161.072 252.613 159.186C252.613 159.009 252.481 158.877 252.26 158.833C251.89 158.836 251.526 158.925 251.196 159.094C250.866 159.262 250.581 159.505 250.361 159.804C249.753 160.486 249.192 161.21 248.683 161.969C247.534 163.471 246.388 165.017 245.281 166.558C244.624 165.666 243.917 164.811 243.163 163.997C243.121 163.957 243.07 163.928 243.013 163.913C242.957 163.897 242.898 163.896 242.841 163.909C242.784 163.922 242.732 163.949 242.688 163.988C242.644 164.026 242.61 164.075 242.59 164.13C241.751 166.424 241.308 168.812 240.602 171.152C240.47 171.55 241.132 171.726 241.22 171.329C241.884 169.211 242.325 166.957 243.031 164.836C243.726 165.606 244.374 166.418 244.973 167.266C245.002 167.316 245.044 167.358 245.094 167.387C245.144 167.416 245.201 167.431 245.259 167.431C245.317 167.431 245.374 167.416 245.425 167.387C245.475 167.358 245.517 167.316 245.546 167.266C246.605 165.808 247.664 164.394 248.723 162.936C249.253 162.23 249.826 161.524 250.358 160.772C250.716 160.175 251.258 159.71 251.904 159.447C251.936 161.942 251.376 164.41 250.269 166.646C250.093 166.957 250.534 167.352 250.799 167.045C251.637 165.986 252.477 164.88 253.316 163.821C253.669 163.379 254.068 162.938 254.465 162.495C254.729 162.23 255.923 161.037 256.011 161.966C255.984 162.545 255.849 163.114 255.614 163.644C255.394 164.267 255.128 164.872 254.818 165.455C254.215 166.637 253.552 167.787 252.83 168.9C252.654 169.209 253.095 169.606 253.36 169.297C253.955 168.57 254.621 167.905 255.349 167.31C255.766 166.981 256.208 166.686 256.673 166.428C256.849 166.339 257.116 166.119 257.336 166.207C257.645 166.339 257.601 166.782 257.513 167.047C257.158 168.029 256.684 168.963 256.101 169.829C255.571 170.711 255.042 171.594 254.422 172.436C254.202 172.789 254.687 173.053 254.952 172.833C255.51 172.357 256.118 171.943 256.764 171.597C256.985 171.465 257.162 171.333 257.25 171.641C257.268 171.781 257.237 171.922 257.162 172.04C257.048 172.372 256.915 172.696 256.763 173.011C256.118 174.148 255.298 175.176 254.334 176.059C252.3 177.897 250.062 179.496 247.664 180.825C247.592 180.873 247.542 180.948 247.524 181.033C247.506 181.118 247.521 181.206 247.567 181.28C247.612 181.354 247.684 181.408 247.768 181.43C247.852 181.452 247.941 181.44 248.017 181.398C251.051 179.77 253.785 177.636 256.101 175.088C256.647 174.476 257.108 173.793 257.471 173.057C257.813 172.536 257.954 171.909 257.868 171.292C257.753 171.09 257.566 170.941 257.343 170.875C257.121 170.808 256.882 170.831 256.676 170.937Z" fill="black"/>
<path d="M94.7916 189.533C93.3796 189.18 92.01 188.781 90.5962 188.428C89.2948 187.971 87.9021 187.834 86.5367 188.031C85.8307 188.163 85.0788 188.737 85.2571 189.443C85.3683 189.709 85.5517 189.938 85.7866 190.105C86.4392 190.631 87.1334 191.103 87.8622 191.517C85.1031 191.456 82.3625 191.983 79.8227 193.063C79.6295 193.116 79.4503 193.21 79.2977 193.34C79.1452 193.469 79.0231 193.631 78.9402 193.813C78.8897 194.03 78.9146 194.258 79.0109 194.459C79.1071 194.659 79.2689 194.821 79.4697 194.918C79.8709 195.108 80.3072 195.213 80.7511 195.227C81.9001 195.315 83.0456 195.403 84.1522 195.448C82.7826 195.758 81.4571 196.067 80.0927 196.42C79.439 196.527 78.8099 196.751 78.2359 197.082C78.0052 197.19 77.8136 197.367 77.6872 197.588C77.5608 197.809 77.5059 198.064 77.5299 198.317C77.6623 198.891 78.3701 199.069 78.8996 199.158C80.4508 199.37 82.0193 199.43 83.5821 199.334C82.0273 199.59 80.5026 200.004 79.0319 200.57C78.7001 200.672 78.4171 200.893 78.2359 201.189C78.1036 201.63 78.4583 202.027 78.8113 202.292C79.6562 202.72 80.6083 202.889 81.5488 202.779C82.8232 202.735 84.093 202.601 85.3489 202.38C84.4205 202.779 83.4497 203.176 82.5249 203.616C82.0836 203.792 81.5524 204.145 81.5965 204.588C81.6406 204.986 82.0836 205.25 82.479 205.383C84.1627 205.751 85.9132 205.675 87.5587 205.162C90.7833 204.412 93.9127 203.484 97.1003 202.515" fill="#FCAFB7"/>
<path d="M97.0897 202.121C93.8651 203.094 90.6404 204.063 87.3717 204.816C85.8166 205.344 84.1385 205.39 82.5567 204.949C82.0714 204.728 81.939 204.375 82.4244 204.02C82.7394 203.855 83.0635 203.708 83.3951 203.579C84.147 203.27 84.8971 202.917 85.649 202.608C86.002 202.432 85.7373 201.945 85.3843 201.989C84.3027 202.172 83.2112 202.289 82.1155 202.342C81.1597 202.493 80.1807 202.37 79.2915 201.989C79.0267 201.856 78.5414 201.503 78.762 201.15C78.8502 200.974 79.115 200.886 79.2915 200.797C79.7897 200.574 80.3072 200.397 80.8376 200.268C81.8208 199.965 82.8232 199.729 83.8381 199.562C84.1911 199.518 84.1029 198.898 83.7499 198.898C82.6163 198.95 81.4806 198.935 80.3487 198.854C79.7733 198.81 77.2123 198.722 78.2307 197.574C79.0308 196.979 79.9777 196.613 80.97 196.515C82.119 196.251 83.2221 195.986 84.3712 195.721C84.7683 195.631 84.6359 195.102 84.2829 195.058C83.0898 194.969 81.8984 194.925 80.6611 194.793C80.1758 194.749 78.9385 194.44 79.468 193.688C79.7327 193.247 80.617 193.07 81.0565 192.938C83.2646 192.153 85.5973 191.779 87.94 191.833C88.0098 191.828 88.0763 191.801 88.1306 191.757C88.1849 191.713 88.2243 191.653 88.2435 191.586C88.2627 191.518 88.2609 191.447 88.2382 191.38C88.2154 191.314 88.173 191.257 88.1165 191.215C87.6752 190.95 87.234 190.686 86.791 190.375C86.438 190.154 85.732 189.757 85.6437 189.316C85.5113 188.829 86.1732 188.476 86.5262 188.343C87.0445 188.211 87.5815 188.166 88.1147 188.211C89.2356 188.361 90.3432 188.597 91.4276 188.917C92.5325 189.226 93.6815 189.491 94.7811 189.8C95.1783 189.888 95.3565 189.27 94.9576 189.182C93.4938 188.772 92.0227 188.389 90.5451 188.033C89.228 187.567 87.8135 187.445 86.4362 187.68C85.642 187.9 84.7136 188.606 85.0242 189.535C85.2522 189.965 85.5871 190.33 85.9967 190.594C86.2615 190.77 86.5262 190.991 86.791 191.167C85.6785 191.213 84.5714 191.345 83.4798 191.565C82.6888 191.729 81.907 191.935 81.1377 192.182C80.4841 192.357 79.8592 192.625 79.2827 192.978C79.0801 193.111 78.9192 193.298 78.8186 193.519C78.718 193.739 78.6817 193.983 78.7141 194.223C78.7464 194.463 78.8459 194.689 79.0012 194.875C79.1564 195.06 79.3611 195.199 79.5915 195.273C80.277 195.486 80.9917 195.59 81.7095 195.582C81.8289 195.575 81.9486 195.59 82.0625 195.626L79.8086 196.155C78.882 196.376 77.4682 196.817 77.3376 197.966C77.2053 199.025 78.3543 199.336 79.1926 199.468C79.7627 199.556 80.3385 199.6 80.9153 199.601C80.4299 199.733 79.9869 199.91 79.5033 200.042C79.0216 200.161 78.5796 200.404 78.2219 200.748C78.0944 200.942 78.0342 201.172 78.0504 201.404C78.0667 201.635 78.1586 201.855 78.3119 202.029C78.6991 202.407 79.1653 202.694 79.6768 202.87C80.1883 203.046 80.7325 203.106 81.27 203.046C81.9337 203.046 82.5514 203.002 83.2116 202.958C82.9909 203.046 82.7262 203.178 82.5056 203.267C81.9761 203.487 81.3565 203.884 81.4007 204.548C81.4448 205.212 82.1526 205.563 82.7262 205.695C83.6218 205.918 84.5525 205.963 85.4655 205.828C87.4547 205.539 89.4185 205.096 91.3394 204.504C93.3268 203.974 95.3159 203.355 97.3404 202.781C97.6634 202.652 97.4869 202.033 97.0897 202.121Z" fill="black"/>
<path d="M196.428 231.849C196.428 231.714 196.374 231.585 196.279 231.49C196.184 231.394 196.054 231.341 195.919 231.341C195.785 231.341 195.655 231.394 195.56 231.49C195.465 231.585 195.411 231.714 195.411 231.849C195.455 236.353 195.367 240.904 195.235 245.41C192.315 242.755 190.462 239.128 190.023 235.206C189.934 234.587 188.964 234.587 189.008 235.206C189.492 239.693 191.709 243.813 195.185 246.691V247.441C195.009 253.619 194.7 259.853 194.347 266.037C193.994 272.568 193.507 279.068 192.977 285.604C192.448 291.877 191.872 298.105 191.166 304.377C190.549 309.672 189.841 314.979 188.958 320.235C188.87 320.72 188.782 321.162 188.692 321.647C184.014 322.338 179.278 322.545 174.558 322.265C173.808 312.723 173.499 303.139 173.146 293.554C172.793 283.924 172.44 274.252 171.599 264.622C171.114 259.189 170.452 253.8 169.568 248.412C169.48 247.792 168.509 248.059 168.597 248.677C169.303 253.049 169.877 257.422 170.32 261.794C170.232 261.838 170.099 261.882 170.053 262.017C167.912 265.938 165.494 269.702 162.817 273.279C160.434 276.95 157.322 280.093 153.674 282.512C151.733 283.615 149.698 284.499 147.673 285.426C145.588 286.369 143.482 287.268 141.358 288.121C137.122 289.886 132.833 291.474 128.459 292.98C123.729 294.611 118.941 296.069 114.105 297.352C112.643 294.393 111.243 291.404 109.907 288.386L109.378 287.192C109.157 286.707 108.981 286.398 109.51 286.045C110.172 285.558 110.88 285.163 111.542 284.72C112.911 283.837 114.281 283.041 115.693 282.249C121.362 279.084 127.219 276.267 133.23 273.814C136.584 272.402 139.988 271.075 143.345 269.705C143.919 269.484 143.654 268.512 143.081 268.734C142.948 268.778 142.77 268.866 142.638 268.911C143.742 259.636 145.379 250.433 147.541 241.347C148.16 238.699 148.866 236.052 149.572 233.441C149.59 233.377 149.594 233.311 149.586 233.245C149.578 233.18 149.557 233.117 149.524 233.059C149.491 233.002 149.447 232.951 149.395 232.911C149.343 232.871 149.283 232.841 149.219 232.823C149.091 232.788 148.953 232.806 148.837 232.872C148.721 232.938 148.637 233.048 148.602 233.176C146.047 242.503 144.044 251.971 142.601 261.533C142.203 264.14 141.85 266.747 141.542 269.352C135.717 271.692 129.88 274.034 124.225 276.684C121.153 278.138 118.133 279.7 115.171 281.366C113.669 282.205 112.211 283.089 110.758 284.014C110.054 284.429 109.375 284.885 108.725 285.382C108.45 285.562 108.252 285.839 108.17 286.157C108.088 286.476 108.129 286.814 108.284 287.104C109.036 288.959 109.918 290.77 110.755 292.576C111.637 294.475 112.52 296.33 113.448 298.185C113.51 298.275 113.598 298.345 113.701 298.384C113.803 298.423 113.915 298.431 114.022 298.406C123.026 295.979 131.876 293.015 140.525 289.528C144.761 287.805 149.05 286.082 153.113 283.963C155.016 282.978 156.771 281.73 158.327 280.256C159.872 278.697 161.304 277.029 162.61 275.265C165.524 271.465 168.166 267.465 170.518 263.294C170.959 268.021 171.268 272.748 171.532 277.519C172.062 287.147 172.284 296.776 172.681 306.362C172.902 311.795 173.211 317.227 173.654 322.66C173.664 322.786 173.718 322.904 173.807 322.993C173.896 323.083 174.014 323.137 174.139 323.147C179.198 323.5 184.281 323.278 189.29 322.484C189.376 322.463 189.454 322.419 189.516 322.357C189.579 322.295 189.622 322.216 189.643 322.131C190.616 317.012 191.322 311.839 191.938 306.671C192.689 300.531 193.307 294.348 193.837 288.163C194.412 281.582 194.853 275 195.249 268.418C195.648 262.147 195.912 255.874 196.131 249.602C196.308 244.257 196.44 238.869 196.44 233.524C196.472 232.996 196.428 232.423 196.428 231.849Z" fill="#7D4AB4"/>
<path d="M106.277 288.652C106.162 288.468 105.997 288.32 105.801 288.227C105.606 288.133 105.387 288.097 105.172 288.123C105.118 288.048 105.043 287.991 104.956 287.959C104.87 287.928 104.776 287.923 104.686 287.946C101.021 288.211 97.3988 288.564 93.777 289.093C93.4664 289.137 93.334 289.446 93.2899 289.713C93.1576 292.042 93.2463 294.379 93.5546 296.692C93.7311 299.076 93.8653 301.507 94.0418 303.891C94.1942 308.543 94.6815 313.178 95.4997 317.76C95.5278 318.213 95.6976 318.645 95.985 318.996C96.1501 319.161 96.3647 319.268 96.596 319.3C96.8274 319.332 97.0629 319.287 97.2664 319.172C98.0954 318.636 98.8143 317.947 99.3844 317.141C100.63 315.604 101.67 313.911 102.477 312.105C105.304 305.818 106.721 298.989 106.628 292.096C106.628 291.478 106.584 290.904 106.54 290.285C106.546 289.729 106.457 289.177 106.277 288.652ZM203.585 342.1C203.063 341.249 202.424 340.476 201.686 339.805C200.247 338.417 198.627 337.23 196.871 336.275C193.12 334.117 189.072 332.524 184.856 331.549C182.492 330.97 180.084 330.586 177.657 330.401C177.039 330.357 176.421 330.313 175.758 330.269C175.213 330.187 174.657 330.217 174.123 330.357C173.939 330.463 173.788 330.619 173.687 330.806C173.585 330.992 173.538 331.204 173.55 331.416C173.476 331.473 173.417 331.547 173.378 331.632C173.339 331.717 173.322 331.81 173.327 331.903C173.239 335.481 173.239 339.103 173.416 342.68C173.412 342.824 173.458 342.965 173.547 343.078C173.636 343.19 173.762 343.269 173.903 343.298C176.195 343.668 178.517 343.816 180.837 343.741C183.222 343.829 185.652 343.874 188.037 343.962C192.803 344.293 197.588 344.249 202.347 343.829C202.766 343.841 203.175 343.699 203.496 343.431C203.653 343.248 203.745 343.02 203.761 342.78C203.777 342.54 203.715 342.301 203.585 342.1Z" fill="black"/>
<path d="M157.911 292.45C153.498 289.097 147.089 290.95 143.291 294.44C143.247 294.484 143.203 294.484 143.203 294.528C143.159 294.572 143.115 294.616 143.115 294.66C141.546 296.584 140.614 298.948 140.448 301.425C140.281 303.902 140.889 306.369 142.186 308.485C143.604 310.591 145.713 312.136 148.148 312.853C150.583 313.571 153.193 313.416 155.526 312.416C157.765 311.45 159.626 309.776 160.821 307.651C161.672 305.994 162.14 304.168 162.191 302.306C162.286 300.445 161.949 298.586 161.206 296.876C160.464 295.167 159.336 293.652 157.911 292.45ZM156.94 310.517C155.01 311.87 152.662 312.493 150.315 312.274C147.969 312.055 145.776 311.01 144.129 309.324C142.416 307.386 141.456 304.898 141.423 302.312C141.391 299.725 142.289 297.214 143.953 295.234C147.089 292.318 152.346 290.419 156.364 292.629C157.769 293.504 158.938 294.711 159.769 296.143C160.6 297.575 161.067 299.189 161.13 300.843C161.33 302.68 161.048 304.538 160.314 306.234C159.579 307.93 158.417 309.406 156.94 310.517Z" fill="#6DD3A8"/>
<path d="M138.035 155.919C137.449 154.433 136.708 153.013 135.825 151.683C135.014 150.351 134.145 149.055 133.22 147.8C131.381 145.257 129.342 142.864 127.124 140.645C126.023 139.55 124.889 138.491 123.723 137.468C123.149 136.982 122.531 136.453 121.912 135.966C121.355 135.437 120.693 135.032 119.97 134.774C119.26 134.652 118.529 134.773 117.896 135.118C117.263 135.463 116.764 136.011 116.481 136.673C115.868 138.241 115.51 139.896 115.422 141.577C114.627 147.274 113.39 162.866 113.48 164.677C113.524 165.912 113.348 168.122 114.938 168.477C115.739 168.539 116.543 168.402 117.279 168.078C118.119 167.813 119.001 167.593 119.841 167.328C121.564 166.798 123.331 166.269 125.053 165.693C126.732 165.12 128.455 164.544 130.133 163.971C131.635 163.441 133.134 162.954 134.546 162.292C135.729 161.803 136.764 161.012 137.546 159.998C137.941 159.404 138.191 158.725 138.276 158.017C138.36 157.308 138.278 156.59 138.035 155.919ZM273.594 112.941C273.472 110.481 273.99 108.031 275.096 105.83C276.177 103.56 276.793 101.096 276.907 98.5847C276.834 96.2826 276.181 94.0363 275.008 92.0542C273.706 90.0207 271.961 88.3084 269.903 87.0459C267.845 85.7834 265.528 85.0035 263.126 84.7647C257.914 84.2784 252.68 85.4356 248.159 88.0741C247.408 88.4712 246.658 88.9566 245.906 89.3996C245.748 89.3866 245.59 89.4339 245.465 89.532C242.535 91.699 240.073 94.4368 238.229 97.5804C236.384 100.724 235.195 104.209 234.734 107.824C234.272 111.439 234.547 115.111 235.542 118.617C236.537 122.123 238.231 125.392 240.523 128.226C243.454 132.032 247.628 134.689 252.317 135.734C254.919 136.2 257.593 136.064 260.134 135.337C262.691 134.655 265.143 133.63 267.424 132.289C271.66 129.772 275.189 125.619 275.285 120.495C275.299 119.218 275.09 117.947 274.667 116.741C274.211 115.504 273.852 114.234 273.594 112.941Z" fill="#DCBEFF"/>
<path d="M216.351 112.145C215.942 111.615 215.369 111.236 214.721 111.068C214.073 110.9 213.387 110.953 212.773 111.218C211.583 111.752 210.458 112.418 209.419 113.206C208.36 113.912 207.342 114.664 206.283 115.458C202.262 118.458 198.508 121.731 194.445 124.647C192.473 126.115 190.391 127.429 188.216 128.577C187.827 128.792 187.412 128.955 186.981 129.063C186.849 129.107 186.716 129.107 186.584 129.151C186.536 129.148 186.489 129.164 186.451 129.195C186.332 129.188 186.212 129.203 186.098 129.239H185.745C185.671 129.229 185.597 129.214 185.525 129.195C185.441 129.152 185.351 129.122 185.258 129.107C185.176 129.059 185.102 129 185.038 128.93C184.797 128.611 184.658 128.227 184.641 127.827C184.473 125.234 184.896 122.636 185.876 120.229C186.811 117.762 187.903 115.357 189.145 113.029C190.38 110.558 191.706 108.126 193.075 105.742C194.357 103.532 195.682 101.412 196.782 99.1158C197.942 96.8155 198.704 94.3354 199.036 91.7805C199.168 90.4126 199.212 88.6035 197.666 88.074C196.49 87.8523 195.274 87.9907 194.177 88.4711C184.635 91.1663 176.64 97.4391 169.529 104.065C165.774 107.554 162.153 111.22 158.354 114.71C156.455 116.475 154.471 118.155 152.435 119.789C150.526 121.397 148.455 122.803 146.257 123.985C145.256 124.525 144.123 124.77 142.988 124.691C142.889 124.649 142.784 124.62 142.678 124.602C142.654 124.579 142.638 124.548 142.634 124.514C142.678 124.691 142.589 124.382 142.589 124.338V123.851C142.597 123.569 142.627 123.289 142.678 123.012C143.064 120.477 143.762 117.999 144.755 115.634C146.827 110.923 149.357 106.426 152.308 102.208C155.219 97.841 158.389 93.6517 161.8 89.6625C163.434 87.7634 165.201 85.9966 166.742 84.0145C168.345 82.2269 169.416 80.0257 169.832 77.6605C169.989 77.024 169.983 76.358 169.813 75.7247C169.643 75.0914 169.316 74.5114 168.861 74.0387C167.79 73.3036 166.48 73.0033 165.196 73.1986C162.67 73.4991 160.251 74.3923 158.136 75.8055C155.903 77.2616 153.75 78.8353 151.684 80.5198C149.607 82.1542 147.576 83.921 145.588 85.6877C141.705 89.2177 138.212 93.1519 134.37 96.6854C133.449 97.5681 132.476 98.3933 131.454 99.1564C130.626 99.9018 129.646 100.459 128.582 100.791C128.248 100.913 127.879 100.898 127.556 100.749C127.233 100.6 126.983 100.329 126.86 99.9948C126.59 99.034 126.701 98.0063 127.169 97.1249C128.17 94.8365 129.306 92.6093 130.57 90.455C131.787 88.2596 133.082 86.1085 134.453 84.0057C137.157 79.7966 140.154 75.782 143.419 71.9913C145.01 70.1442 146.658 68.3472 148.361 66.6028C149.552 65.3673 147.697 63.5105 146.506 64.7478C139.383 72.0132 133.266 80.1996 128.316 89.0889C127.08 91.2969 125.887 93.5014 124.871 95.7959C123.898 98.0039 123.459 100.964 125.577 102.679C127.871 104.534 130.695 103.032 132.69 101.53C134.76 99.9237 136.722 98.1826 138.563 96.3183C142.318 92.6118 145.939 88.7659 149.96 85.3206C151.937 83.6019 153.985 81.9661 156.099 80.4174C157.995 78.865 160.09 77.5722 162.327 76.5733C163.417 76.1057 164.587 75.8511 165.773 75.8231C166.173 75.8052 166.573 75.8348 166.966 75.9114C167.319 76.0438 167.319 76.3085 167.319 76.7074C167.083 78.8109 166.168 80.7801 164.712 82.3166C163.123 84.2581 161.358 86.0707 159.721 87.9646C157.99 90.0178 156.312 92.1141 154.687 94.2515C151.51 98.4442 148.589 102.825 145.941 107.371C143.145 111.791 141.184 116.686 140.156 121.814C139.854 122.986 139.839 124.213 140.111 125.391C140.387 126.043 140.869 126.586 141.484 126.937C142.098 127.288 142.811 127.427 143.513 127.333C146.116 127.043 148.583 126.017 150.624 124.375C154.839 121.345 158.828 118.011 162.557 114.399C169.756 107.553 176.647 100.219 185.304 95.1834C187.32 93.9782 189.433 92.9444 191.621 92.0929C192.761 91.6434 193.926 91.2598 195.111 90.9439C195.574 90.8006 196.046 90.6828 196.523 90.5909V90.8115C196.39 95.7535 193.346 100.131 190.913 104.284C189.533 106.675 188.222 109.105 186.981 111.571C185.714 113.997 184.579 116.488 183.58 119.036C182.581 121.523 182.058 124.175 182.035 126.855C181.916 128.235 182.326 129.609 183.183 130.697C183.562 131.099 184.021 131.417 184.531 131.63C185.041 131.843 185.59 131.946 186.143 131.932C188.514 131.622 190.758 130.675 192.636 129.193C194.741 127.857 196.775 126.412 198.731 124.865C202.707 121.817 206.55 118.511 210.701 115.677C211.624 114.962 212.615 114.341 213.661 113.822C213.803 113.771 213.951 113.742 214.102 113.734C213.944 113.994 213.876 114.299 213.908 114.603C213.94 114.906 214.07 115.19 214.278 115.412C214.525 115.657 214.858 115.794 215.206 115.794C215.553 115.794 215.887 115.657 216.133 115.412C216.538 114.975 216.78 114.412 216.82 113.817C216.859 113.222 216.694 112.632 216.351 112.145ZM214.097 113.557C214.053 113.601 214.097 113.601 214.097 113.557V113.557Z" fill="#6DD3A8"/>
<path d="M217.095 129.682C219.411 129.465 221.644 128.709 223.615 127.474C225.586 126.24 227.241 124.56 228.447 122.571C228.53 122.419 228.55 122.241 228.504 122.074C228.457 121.907 228.347 121.765 228.197 121.679C228.047 121.592 227.869 121.567 227.701 121.61C227.533 121.653 227.388 121.76 227.298 121.908C226.222 123.707 224.737 125.228 222.965 126.348C221.193 127.468 219.182 128.157 217.095 128.357C216.256 128.445 216.256 129.769 217.095 129.682ZM270.193 199.516C272.374 199.312 274.464 198.539 276.254 197.276C278.044 196.013 279.472 194.303 280.396 192.317C280.749 191.521 279.602 190.859 279.249 191.653C278.447 193.447 277.189 194.998 275.6 196.153C274.011 197.308 272.146 198.026 270.193 198.235C269.354 198.279 269.354 199.605 270.193 199.516Z" fill="#FFD35C"/>
<path d="M69.7893 103.975C70.8639 99.4439 71.4124 94.8042 71.4237 90.1477C71.344 85.7102 70.1437 81.3648 67.9343 77.5156C65.9845 74.183 63.1004 71.4952 59.6388 69.7849C56.2201 68.1462 52.3117 67.8471 48.6834 68.9465C45.0521 70.048 41.8556 72.2565 39.5407 75.2635C34.5052 81.7128 34.8141 90.7231 38.6123 97.7019C39.5975 99.501 40.8152 101.163 42.2341 102.644C43.8226 104.367 45.6794 105.821 47.402 107.409C50.8165 110.35 53.5072 114.038 55.2651 118.186C55.6691 119.195 56.0087 120.228 56.2818 121.279C56.3172 121.393 56.3831 121.496 56.4725 121.576C56.5618 121.656 56.6713 121.711 56.7892 121.733C56.907 121.756 57.0288 121.746 57.1415 121.705C57.2542 121.664 57.3536 121.593 57.429 121.499C57.5308 121.572 57.6509 121.615 57.7757 121.622C57.9005 121.63 58.025 121.603 58.135 121.544C61.9886 119.707 66.0324 118.299 70.1935 117.346C70.29 117.318 70.3789 117.268 70.4535 117.2C70.5282 117.133 70.5867 117.049 70.6248 116.956C70.663 116.863 70.6797 116.763 70.6737 116.662C70.6678 116.562 70.6394 116.464 70.5906 116.376C68.289 112.632 68.9509 108.082 69.7893 103.975Z" fill="#FFD35C"/>
<path d="M72.3963 121.996C71.9151 121.657 71.3493 121.458 70.7619 121.422C71.267 120.91 71.6192 120.268 71.7785 119.567C71.8317 119.306 71.8277 119.037 71.7668 118.777C71.7059 118.518 71.5894 118.275 71.4255 118.065C71.2306 117.891 70.9957 117.768 70.7417 117.706C70.4877 117.644 70.2224 117.646 69.9694 117.712C68.7219 117.898 67.4847 118.149 66.2629 118.462V118.418C63.6409 112.824 61.6415 106.958 60.3007 100.927C59.8155 98.6273 59.5052 96.2944 59.3723 93.948C60.4093 93.3376 61.2874 92.491 61.9351 91.477C62.3047 90.9093 62.5506 90.2702 62.6571 89.6012C62.7635 88.9322 62.728 88.2483 62.5529 87.594C62.4515 87.2991 62.2787 87.0338 62.05 86.8219C61.8212 86.6099 61.5436 86.4578 61.2418 86.3792C60.9401 86.3006 60.6235 86.2978 60.3204 86.3712C60.0173 86.4446 59.7371 86.5918 59.5047 86.7997C58.2692 87.7264 58.3133 89.4931 58.3133 90.9069C58.3133 91.7453 58.3133 92.5854 58.3575 93.4238C57.7267 93.7513 57.0597 94.0036 56.3701 94.1757C55.5179 94.3896 54.6418 94.4934 53.7632 94.4845C52.9678 93.029 51.8496 91.7749 50.4944 90.8186C49.8865 90.4037 49.2153 90.0902 48.507 89.8902C47.8231 89.6636 47.0894 89.633 46.389 89.802C46.0985 89.9135 45.8515 90.1154 45.6844 90.3778C45.5172 90.6403 45.4388 90.9495 45.4606 91.2599C45.4801 91.5962 45.5782 91.9233 45.7471 92.2149C45.916 92.5064 46.151 92.7542 46.4331 92.9384C48.3443 94.4694 50.6936 95.3517 53.1401 95.4571C53.1401 95.5012 53.1842 95.5012 53.1842 95.5453C53.9344 96.9132 54.5962 98.2828 55.2158 99.6966C58.0709 105.957 60.2027 112.522 61.5698 119.265C61.7021 119.883 62.6729 119.618 62.5405 118.999C61.1307 112.068 58.9221 105.324 55.9588 98.9023C55.4293 97.7974 54.8998 96.6078 54.3244 95.4571C54.4881 95.4644 54.6519 95.4495 54.8116 95.4129C56.079 95.3235 57.3203 95.0092 58.4775 94.4845L58.6099 96.1631C59.5125 103.187 61.4627 110.036 64.3955 116.482C64.7062 117.232 65.015 117.984 65.368 118.69C62.4321 119.44 59.5537 120.4 56.7548 121.561C56.1794 121.826 56.446 122.755 57.0196 122.534C61.1187 120.803 65.4009 119.543 69.7841 118.778C70.2712 118.69 70.8431 118.513 70.9331 119.177C70.9363 119.607 70.7967 120.026 70.536 120.368C70.1946 120.806 69.7929 121.193 69.3428 121.517C68.1408 121.644 66.9465 121.835 65.7652 122.091C63.2033 122.546 60.7196 123.364 58.3892 124.521C57.6373 124.918 56.5783 125.845 57.2402 126.773C57.858 127.656 59.4482 127.171 60.2884 126.994C62.6771 126.456 64.9617 125.532 67.0519 124.257C67.9785 123.727 68.8627 123.108 69.7452 122.492C70.0533 122.455 70.3635 122.44 70.6736 122.447C71.1287 122.409 71.5808 122.549 71.935 122.838C72.2891 123.126 72.5177 123.54 72.5728 123.994C72.6126 124.695 72.3926 125.386 71.955 125.935C69.7049 125.851 67.4624 126.242 65.3733 127.082C62.9642 127.576 60.7183 128.669 58.8428 130.259C58.7912 130.315 58.7522 130.381 58.7284 130.453C58.7046 130.526 58.6966 130.602 58.705 130.677C58.7134 130.753 58.7379 130.826 58.7769 130.891C58.8159 130.956 58.8685 131.012 58.9311 131.055C59.943 131.606 61.0982 131.837 62.244 131.717C63.4297 131.67 64.6034 131.462 65.7334 131.099C68.0008 130.416 70.0746 129.207 71.7856 127.569C71.9877 127.389 72.1792 127.198 72.3592 126.996C72.4916 127.04 72.6681 127.084 72.8005 127.128C73.42 127.349 73.683 126.378 73.0652 126.157C73.0211 126.157 73.0211 126.157 72.977 126.113C73.2583 125.684 73.4537 125.205 73.5523 124.701C73.5812 124.192 73.4919 123.682 73.2914 123.213C73.0908 122.744 72.7845 122.327 72.3963 121.996ZM48.537 93.152C47.9497 92.8515 47.4009 92.4811 46.9026 92.0488C46.4614 91.6499 45.9742 90.6792 46.9026 90.6368C48.2738 90.6396 49.5895 91.1787 50.5685 92.1388C51.2935 92.7949 51.9185 93.5537 52.4235 94.391C51.064 94.2153 49.7474 93.7956 48.537 93.152ZM59.277 91.7806C59.277 91.0746 59.277 90.3244 59.3211 89.6167C59.3025 89.2553 59.3553 88.8937 59.4765 88.5527C59.5976 88.2117 59.7847 87.8979 60.0271 87.6293C60.1209 87.53 60.2338 87.451 60.3592 87.3969C60.4845 87.3429 60.6196 87.315 60.7561 87.315C60.8926 87.315 61.0276 87.3429 61.153 87.3969C61.2783 87.451 61.3913 87.53 61.485 87.6293C61.7885 88.2153 61.8519 88.8965 61.6615 89.5284C61.3125 90.8811 60.4799 92.0591 59.3211 92.8396C59.2854 92.4877 59.2706 92.1341 59.277 91.7806ZM62.7664 125.139C61.837 125.505 60.8765 125.786 59.8965 125.979C59.4094 126.067 58.924 126.156 58.4386 126.2C58.2621 126.2 57.9092 126.244 57.9092 126.023C57.9092 125.803 58.3063 125.58 58.4386 125.494C59.36 124.96 60.3379 124.53 61.3544 124.212C62.3513 123.857 63.3686 123.563 64.4008 123.33C65.3733 123.109 66.3423 122.933 67.3166 122.756C65.8916 123.715 64.3657 124.514 62.7664 125.139ZM65.6822 129.998C64.6685 130.349 63.6148 130.571 62.5458 130.66C61.6579 130.786 60.753 130.711 59.8983 130.439C61.582 129.283 63.4708 128.459 65.4633 128.011C66.6124 127.658 67.8037 127.305 68.9528 127.038C69.5913 126.902 70.2415 126.828 70.8943 126.818C69.4289 128.268 67.6438 129.355 65.6822 129.991V129.998Z" fill="black"/>
<path d="M250.139 180.168C249.612 179.452 249.036 178.773 248.416 178.136C247.579 177.177 246.755 176.206 245.945 175.222C244.356 173.241 242.853 171.192 241.439 169.082C241.368 168.954 241.254 168.853 241.118 168.797C240.982 168.741 240.831 168.733 240.689 168.773C230.049 171.759 219.447 174.88 208.886 178.136C207.615 177.604 206.278 177.247 204.911 177.077C203.038 176.662 201.155 176.294 199.263 175.973C195.552 175.311 191.841 174.782 188.131 174.384C186.543 174.208 184.906 174.075 183.316 173.943C182.326 172.459 180.814 171.402 179.08 170.983C177.299 170.579 175.466 170.46 173.648 170.63C171.615 170.653 169.599 170.995 167.673 171.643C166.639 172.078 165.718 172.742 164.978 173.585C157.555 173.869 150.16 174.667 142.847 175.971C135.162 177.34 127.608 179.372 120.055 181.266C111.354 183.474 102.652 185.639 93.9066 187.848C93.7912 187.882 93.6874 187.948 93.6066 188.037C93.5258 188.127 93.4711 188.237 93.4484 188.355C93.4256 188.474 93.4358 188.596 93.4777 188.709C93.5195 188.822 93.5916 188.922 93.686 188.997C93.5524 194.167 93.8625 199.339 94.6126 204.456C94.6503 204.592 94.7305 204.713 94.8417 204.8C94.9529 204.888 95.0891 204.937 95.2304 204.942C109.278 205.118 123.28 204.5 137.281 203.572C141.08 203.307 144.871 203.087 148.722 202.822C146.605 212.994 145.495 223.351 145.409 233.741C145.413 233.915 145.484 234.081 145.608 234.205C145.731 234.328 145.897 234.399 146.071 234.403C159.209 235.434 172.399 235.626 185.561 234.978C189.268 234.846 192.974 234.712 196.691 234.535C196.835 234.539 196.975 234.493 197.088 234.404C197.201 234.316 197.279 234.19 197.309 234.05C199.075 223.413 199.654 212.614 199.034 201.849C217.965 201.056 236.019 193.647 250.051 180.913C250.139 180.812 250.195 180.687 250.211 180.554C250.227 180.421 250.202 180.286 250.139 180.168Z" fill="#CF52FC"/>
<path d="M183.001 173.941C181.735 174.909 180.273 175.587 178.717 175.929C177.059 176.446 175.336 176.728 173.599 176.767C172.098 176.841 170.598 176.614 169.187 176.099C167.776 175.584 166.482 174.79 165.383 173.767C165.074 173.456 164.631 173.943 164.896 174.252C166.058 175.343 167.427 176.19 168.921 176.744C170.416 177.298 172.006 177.547 173.599 177.477C175.439 177.406 177.264 177.11 179.032 176.594C180.674 176.237 182.213 175.513 183.536 174.476C183.797 174.118 183.31 173.633 183.001 173.941ZM149.519 198.147C149.342 198.102 149.122 198.191 149.122 198.367L148.46 202.603C148.448 202.644 148.444 202.686 148.448 202.729C148.453 202.771 148.465 202.811 148.486 202.849C148.507 202.886 148.534 202.918 148.568 202.944C148.601 202.97 148.64 202.989 148.681 203C148.857 203.044 149.078 202.956 149.078 202.78L149.741 198.544C149.754 198.503 149.758 198.46 149.753 198.418C149.748 198.376 149.735 198.335 149.715 198.298C149.694 198.261 149.666 198.228 149.632 198.202C149.599 198.176 149.56 198.157 149.519 198.147ZM198.725 198.544V201.945C198.725 202.033 198.76 202.117 198.823 202.179C198.885 202.242 198.969 202.277 199.057 202.277C199.145 202.277 199.23 202.242 199.292 202.179C199.354 202.117 199.389 202.033 199.389 201.945V198.544C199.389 198.456 199.354 198.371 199.292 198.309C199.23 198.247 199.145 198.212 199.057 198.212C198.969 198.212 198.885 198.247 198.823 198.309C198.76 198.371 198.725 198.456 198.725 198.544Z" fill="black"/>
</svg>
