<svg width="478" height="478" viewBox="0 0 478 478" fill="none" xmlns="http://www.w3.org/2000/svg">
<path d="M393.456 184.823L392.148 183.564L384.022 175.749C379.682 171.569 375.343 167.388 371.004 163.206L369.078 161.354L367.285 159.626L365.612 158.024C365.4 157.819 365.116 157.703 364.821 157.703C364.526 157.703 364.242 157.819 364.03 158.024L355.498 167.059L342.757 180.548C343.15 181.048 343.465 181.605 343.691 182.199C343.849 182.59 343.965 182.996 344.038 183.411C344.427 185.774 344.096 188.2 343.086 190.373C342.077 192.545 340.436 194.362 338.378 195.588C332.037 200.062 319.736 199.603 312.805 196.955C309.562 195.715 304.748 193.506 305.085 189.405C305.623 186.667 306.926 184.138 308.842 182.111V181.896C308.791 180.508 308.755 179.119 308.735 177.73L308.592 177.646L308.403 177.536C305.399 175.702 302.881 173.174 301.058 170.163C299.235 167.153 298.163 163.749 297.93 160.238C297.866 158.893 297.933 157.545 298.13 156.213L291.579 143.194L291.223 142.477L289.77 139.609C289.618 139.357 289.372 139.173 289.087 139.099C288.801 139.024 288.498 139.063 288.241 139.208C287.908 139.392 287.571 139.566 287.239 139.748C280.707 143.333 274.044 146.679 267.333 149.889C264.385 151.304 261.419 152.682 258.435 154.024C257.816 154.301 257.202 154.588 256.58 154.862C256.33 155.018 256.148 155.263 256.074 155.549C256 155.834 256.038 156.137 256.181 156.394L262.541 171.313L262.634 171.53L275.469 201.63L285.726 225.683L286.785 228.166C286.852 227.927 286.912 227.664 286.981 227.416C288.688 221.062 290.775 214.817 293.231 208.714C294.843 204.68 296.657 200.731 298.668 196.881C299.385 195.523 300.114 194.159 300.946 192.866C301.641 191.781 303.379 192.789 302.679 193.879L302.636 193.944C301.742 195.6 300.752 197.199 299.89 198.877C297.844 202.895 296.009 207.018 294.393 211.228C291.939 217.58 289.874 224.075 288.21 230.678C286.246 238.445 284.789 246.331 283.848 254.286C283.759 255.02 283.671 255.754 283.592 256.488C283.315 259.072 283.091 261.66 282.921 264.253C282.416 271.909 282.342 279.587 282.701 287.252L283.468 287.378L308.343 291.532L335.023 295.985L361.451 300.397L368.143 301.513C368.253 301.342 368.306 301.14 368.294 300.937C367.951 294.693 367.599 288.447 367.237 282.202C366.544 270.169 365.813 258.139 365.043 246.113C364.919 244.232 364.792 242.351 364.663 240.467C364.396 240.476 364.136 240.382 363.937 240.204C363.738 240.026 363.616 239.778 363.595 239.511L363.435 237.382L362.307 222.432C362.209 221.142 364.219 221.154 364.314 222.432L364.474 224.562L364.553 225.621L368.485 220.057C368.623 219.832 368.843 219.669 369.099 219.602C369.354 219.535 369.626 219.57 369.857 219.698C369.882 219.714 369.906 219.73 369.928 219.749L380.922 204.199L392.081 188.411L393.434 186.499L393.652 186.191C393.776 185.973 393.824 185.721 393.789 185.473C393.753 185.226 393.636 184.997 393.456 184.823Z" fill="#7000FF"/>
<path d="M430.963 399.316C427.291 398.493 423.538 398.092 419.775 398.121C416.071 398.069 412.366 398.222 408.669 398.269C405.753 398.435 402.827 398.264 399.95 397.76C399.036 397.595 398.165 397.248 397.388 396.74C397.113 396.544 396.887 396.288 396.727 395.991C396.568 395.693 396.479 395.363 396.468 395.026C396.529 393.088 397.347 391.251 398.748 389.909C400.414 388.21 402.301 386.744 404.36 385.55C406.788 384.049 409.331 382.734 411.89 381.487C416.967 378.984 422.215 376.788 427.141 373.994C429.753 372.512 434.595 369.9 433.955 366.203C433.689 365.337 433.242 364.538 432.643 363.858C432.044 363.179 431.308 362.635 430.482 362.262C428.022 360.967 425.334 360.164 422.567 359.898C416.099 359.248 409.573 359.473 403.165 360.565C398.753 361.186 394.357 361.999 390.02 363.048L389.348 363.213C389.091 363.284 388.873 363.454 388.742 363.686C388.611 363.917 388.577 364.192 388.648 364.448C388.719 364.705 388.889 364.923 389.12 365.055C389.352 365.186 389.627 365.22 389.883 365.149C392.917 364.392 395.98 363.754 399.063 363.237C405.192 362.069 411.421 361.504 417.66 361.549C420.548 361.554 423.424 361.931 426.216 362.67C427.37 362.987 428.481 363.445 429.524 364.033C429.981 364.291 430.415 364.59 430.819 364.926C430.965 365.053 431.106 365.182 431.24 365.321C431.3 365.381 431.517 365.634 431.529 365.639C431.62 365.765 431.703 365.897 431.785 366.033C431.822 366.096 431.856 366.162 431.885 366.229L431.902 366.284C431.933 366.382 431.957 366.48 431.978 366.58C431.978 366.58 432 366.85 432.002 366.934C432 366.972 432 367.009 432.002 367.046C432.002 367.046 431.988 367.073 431.971 367.125C431.931 367.269 431.895 367.412 431.842 367.553V367.575C431.809 367.642 431.778 367.708 431.742 367.773C431.651 367.931 431.555 368.084 431.453 368.234C431.4 368.331 431.332 368.419 431.252 368.495C431.125 368.642 430.994 368.785 430.86 368.925C430.557 369.23 430.238 369.519 429.904 369.79C429.16 370.38 428.379 370.922 427.566 371.413C422.885 374.088 418.063 376.51 413.121 378.667C408.095 380.813 403.358 383.58 399.02 386.905C397.403 388.16 396.101 389.775 395.218 391.623C394.671 392.571 394.411 393.657 394.47 394.75C394.528 395.842 394.901 396.895 395.545 397.779C397.234 399.233 399.383 400.042 401.611 400.064C404.731 400.34 407.866 400.403 410.994 400.251C414.672 400.172 418.353 400.057 422.031 400.208C425.711 400.171 429.369 400.787 432.834 402.026C433.384 402.237 433.892 402.542 434.337 402.928C434.462 403.01 434.566 403.121 434.641 403.251C434.716 403.381 434.76 403.526 434.77 403.676C434.751 403.554 434.741 403.862 434.741 403.86C434.729 404 434.68 404.135 434.6 404.252C434.424 404.593 434.19 404.902 433.909 405.165C432.506 406.48 430.89 407.548 429.129 408.324C428.784 408.498 428.433 408.662 428.078 408.816C427.963 408.864 427.859 408.935 427.772 409.024C426.308 407.802 424.577 406.942 422.719 406.513C419.098 405.823 415.37 405.928 411.792 406.82C408.215 407.712 404.874 409.37 402.001 411.68C397.548 415.145 393.007 421.029 395.45 426.976L395.526 427.153L395.622 427.358C398.968 434.437 408.489 434.165 414.935 432.482C415.932 432.22 416.914 431.906 417.877 431.541C420.799 430.582 423.469 428.979 425.689 426.852C427.91 424.724 429.624 422.125 430.707 419.246C431.219 417.781 431.35 416.209 431.087 414.679C430.824 413.149 430.176 411.711 429.204 410.501C430.434 409.962 431.621 409.328 432.753 408.604C434.361 407.581 436.481 406.109 436.739 404.051C437.117 401.042 433.159 399.861 430.963 399.316Z" fill="#FF9CA0"/>
<path d="M390.461 347.609C358.688 338.512 271.412 322.014 251.767 318.341C250.542 318.112 249.281 318.182 248.089 318.544C246.897 318.906 245.81 319.549 244.919 320.42L225.823 339.062C224.827 340.032 224.109 341.251 223.745 342.593C223.381 343.935 223.383 345.35 223.753 346.69C224.122 348.031 224.845 349.248 225.845 350.213C226.845 351.179 228.087 351.859 229.439 352.181L370.167 385.717C371.673 386.075 373.251 385.974 374.699 385.428C376.147 384.882 377.399 383.916 378.293 382.653L394.648 359.563C395.366 358.552 395.83 357.383 396.003 356.155C396.176 354.927 396.053 353.675 395.643 352.504C395.233 351.334 394.548 350.278 393.647 349.427C392.745 348.575 391.653 347.952 390.461 347.609Z" fill="#CF52FC"/>
<path d="M93.9122 176.045C94.141 175.909 94.3072 175.689 94.3747 175.432C94.4423 175.175 94.4057 174.901 94.273 174.671C94.1337 174.446 93.9134 174.283 93.6576 174.217C93.4018 174.15 93.1301 174.184 92.8988 174.312L82.0625 179.047L80.5377 179.714C80.3089 179.849 80.1427 180.069 80.0751 180.327C80.0076 180.584 80.0441 180.857 80.1768 181.088C80.3157 181.312 80.5356 181.475 80.791 181.542C81.0464 181.608 81.3177 181.574 81.5487 181.446L92.3873 176.712L93.9122 176.045ZM96.9785 180.163C96.8388 179.939 96.6185 179.776 96.3628 179.71C96.1072 179.643 95.8357 179.677 95.6043 179.804L84.768 184.539L83.2408 185.206C83.0124 185.342 82.8467 185.562 82.7796 185.819C82.7125 186.077 82.7494 186.35 82.8823 186.58C83.0212 186.805 83.2411 186.967 83.4965 187.034C83.7519 187.1 84.0232 187.066 84.2542 186.939L95.0928 182.204L96.6176 181.537C96.8465 181.402 97.0127 181.181 97.0802 180.924C97.1478 180.667 97.1112 180.393 96.9785 180.163Z" fill="#FF9F48"/>
<path d="M80.7646 143.821C80.4927 143.495 80.1212 143.267 79.7071 143.172C79.293 143.077 78.8592 143.122 78.4726 143.298C77.6337 143.723 77.727 145.114 77.8751 146.051C78.0916 147.3 78.4343 148.523 78.8981 149.703C79.9136 148.658 80.6628 147.384 81.0825 145.989C81.1933 145.626 81.2222 145.244 81.1672 144.869C81.1123 144.494 80.9748 144.136 80.7646 143.821Z" fill="#FFD35C"/>
<path d="M86.1711 126.558C83.7099 124.275 80.8146 122.511 77.6576 121.369C74.5006 120.228 71.1463 119.734 67.7944 119.916C64.0912 120.161 60.4993 121.283 57.3141 123.187C54.1289 125.092 51.4414 127.726 49.4726 130.872C47.4769 134.214 46.2815 137.972 45.9801 141.853C45.6786 145.734 46.2793 149.632 47.7351 153.242C49.5434 157.782 52.7446 161.631 56.8783 164.237C61.0121 166.843 65.8656 168.071 70.7412 167.745L76.6756 176.301C76.8778 176.525 77.1479 176.678 77.4447 176.735C77.7416 176.792 78.0489 176.75 78.3199 176.616L91.4482 171.186C91.7171 171.049 91.9332 170.828 92.0629 170.555C92.1926 170.283 92.2285 169.975 92.1652 169.68L88.616 158.476C92.3173 153.832 94.1233 147.959 93.6711 142.038C93.2188 136.116 90.5418 130.586 86.1782 126.558H86.1711ZM85.8795 170.335C85.1784 168.887 84.4885 167.434 83.8097 165.976C82.4395 163.027 81.129 160.05 79.8782 157.047C79.3667 155.811 78.8075 154.585 78.2267 153.261C76.7555 154.712 75.106 155.971 73.3176 157.006C73.6021 157.415 73.8841 157.824 74.1589 158.232C76.8872 162.322 79.2756 166.629 81.3002 171.11C81.8332 172.278 80.1052 173.297 79.5675 172.123C79.5293 172.042 79.4934 171.958 79.4528 171.884C77.383 167.56 75.0525 163.366 72.474 159.325C72.1489 158.847 71.8143 158.352 71.4702 157.867C70.1153 158.48 68.6298 158.749 67.1458 158.65C65.6618 158.551 64.2253 158.086 62.9642 157.298C61.1143 155.974 59.5178 153.197 61.2458 151.129C62.1311 150.305 63.2915 149.839 64.5011 149.824C65.7107 149.808 66.8829 150.242 67.7896 151.043C69.4436 152.261 70.9037 153.722 72.1203 155.376C72.6025 155.123 73.0716 154.846 73.5256 154.545C74.9166 153.588 76.2102 152.497 77.3878 151.287C76.8233 149.959 76.3771 148.583 76.0542 147.176C75.559 145.647 75.6826 143.984 76.3984 142.544C76.7077 142.152 77.0924 141.826 77.5297 141.584C77.9671 141.343 78.4483 141.191 78.9451 141.138C79.4419 141.086 79.9443 141.133 80.4226 141.277C80.9009 141.421 81.3456 141.659 81.7304 141.978C82.4891 142.699 82.9866 143.651 83.145 144.686C83.3033 145.72 83.1134 146.778 82.6052 147.692C81.8901 149.202 80.9199 150.576 79.7372 151.755C80.1459 152.68 80.5737 153.598 80.9752 154.511C83.1573 159.468 85.2437 164.444 87.6075 169.329C88.1739 170.481 86.4435 171.497 85.8795 170.335Z" fill="#FFD35C"/>
<path d="M67.0826 152.993C66.3932 152.398 65.5644 151.987 64.6735 151.798C64.3187 151.753 63.9582 151.789 63.6196 151.905C63.2811 152.02 62.9736 152.212 62.7209 152.465C62.7854 152.386 62.5822 152.754 62.6038 152.69C62.4986 153.003 62.5225 152.9 62.5225 153.099C62.5234 153.392 62.5777 153.683 62.6826 153.957C63.0806 154.827 63.767 155.533 64.6257 155.955C65.491 156.379 66.4354 156.619 67.3985 156.657C68.3616 156.695 69.3221 156.532 70.2183 156.177C69.3034 154.995 68.2508 153.926 67.0826 152.993ZM33.7851 116.687C35.1331 117.973 36.4763 119.263 37.8003 120.576C37.991 120.751 38.2423 120.846 38.5015 120.841C38.7608 120.836 39.0079 120.73 39.1911 120.547C39.3743 120.363 39.4794 120.116 39.4844 119.857C39.4893 119.597 39.3937 119.346 39.2176 119.156C34.4639 114.44 29.5381 109.892 24.6386 105.339L23.1831 103.996C22.2271 103.121 20.8122 104.536 21.7634 105.416C25.7978 109.144 29.805 112.901 33.7851 116.687ZM75.1226 111.403C75.9471 104.749 76.5303 98.0641 77.1302 91.3865L77.3023 89.441C77.417 88.1528 75.407 88.1624 75.297 89.441C74.819 94.938 74.3052 100.409 73.734 105.884C73.5428 107.725 73.3444 109.565 73.1174 111.403C72.9572 112.681 74.9672 112.669 75.1226 111.403ZM23.532 135.752C24.7677 136.137 25.2959 134.199 24.065 133.816C20.4681 132.698 16.8281 131.711 13.1929 130.723C12.9507 130.689 12.704 130.743 12.4994 130.878C12.2947 131.012 12.1461 131.216 12.0815 131.452C12.0169 131.688 12.0408 131.94 12.1486 132.159C12.2565 132.379 12.4408 132.552 12.6671 132.645C16.2951 133.639 19.9351 134.626 23.532 135.752ZM108.97 112.33C108.739 112.201 108.467 112.167 108.211 112.234C107.955 112.3 107.734 112.463 107.596 112.689C106.757 113.833 105.914 114.973 105.064 116.111C103.697 117.947 102.278 119.851 100.958 121.52C100.778 121.712 100.678 121.966 100.678 122.229C100.678 122.493 100.778 122.747 100.958 122.939C101.148 123.125 101.403 123.228 101.668 123.228C101.934 123.228 102.188 123.125 102.378 122.939C104.553 120.188 106.632 117.359 108.714 114.538L109.328 113.702C109.461 113.472 109.498 113.199 109.431 112.942C109.364 112.686 109.198 112.466 108.97 112.33ZM41.3471 158.23C32.8411 158.371 24.3351 158.823 15.8362 159.248L13.3554 159.375C12.0696 159.442 12.0624 161.449 13.3554 161.382C20.3271 161.017 27.3035 160.689 34.2799 160.438C36.6364 160.352 38.9906 160.276 41.3471 160.238C41.6133 160.238 41.8686 160.132 42.0569 159.944C42.2451 159.755 42.3509 159.5 42.3509 159.234C42.3509 158.968 42.2451 158.712 42.0569 158.524C41.8686 158.336 41.6133 158.23 41.3471 158.23Z" fill="#FFD35C"/>
<path d="M335.946 360.045L273.218 345.834C272.886 345.757 272.538 345.8 272.235 345.956C271.932 346.113 271.695 346.372 271.566 346.687L269.989 350.487C269.906 350.681 269.868 350.892 269.876 351.103C269.884 351.314 269.939 351.52 270.036 351.708C270.133 351.895 270.271 352.059 270.439 352.187C270.606 352.315 270.801 352.405 271.007 352.449L332.965 366.23C333.244 366.293 333.536 366.271 333.803 366.167C334.069 366.063 334.299 365.882 334.461 365.647L336.811 362.284C336.95 362.09 337.039 361.865 337.069 361.629C337.099 361.393 337.07 361.152 336.984 360.93C336.898 360.708 336.758 360.511 336.577 360.356C336.396 360.201 336.179 360.094 335.946 360.045ZM280.727 332.421L298.623 336.302L314.099 339.648C316.596 340.191 319.089 340.803 321.601 341.276L321.713 341.3C322.973 341.572 323.51 339.639 322.246 339.364L316.08 338.028L301.358 334.835L283.461 330.953L267.986 327.607C265.488 327.065 262.993 326.453 260.481 325.98L260.371 325.956C259.112 325.683 258.574 327.617 259.839 327.892L266.002 329.228L280.727 332.421ZM274.265 338.064C274.521 338.128 274.792 338.092 275.022 337.961C275.252 337.831 275.422 337.617 275.498 337.363C275.566 337.107 275.531 336.834 275.4 336.603C275.269 336.373 275.053 336.203 274.798 336.13L267.912 334.727L266.93 334.529C266.673 334.464 266.402 334.501 266.172 334.631C265.943 334.762 265.772 334.976 265.696 335.229C265.629 335.486 265.664 335.759 265.795 335.99C265.926 336.221 266.142 336.391 266.397 336.465L273.282 337.865L274.265 338.064ZM284.312 338.456L283.33 338.255C283.073 338.192 282.802 338.229 282.573 338.36C282.343 338.491 282.173 338.705 282.097 338.958C282.028 339.214 282.063 339.487 282.194 339.718C282.325 339.948 282.542 340.118 282.797 340.191L289.682 341.594L290.665 341.792C290.921 341.856 291.192 341.819 291.422 341.689C291.651 341.558 291.822 341.345 291.898 341.092C291.966 340.835 291.931 340.562 291.8 340.331C291.669 340.1 291.453 339.93 291.198 339.856L284.312 338.456ZM299.228 342.184L298.248 341.983C297.992 341.919 297.72 341.956 297.49 342.086C297.26 342.217 297.089 342.431 297.013 342.684C296.945 342.94 296.98 343.213 297.111 343.444C297.242 343.675 297.458 343.846 297.713 343.919L304.601 345.32L305.581 345.521C305.837 345.584 306.109 345.546 306.339 345.416C306.569 345.285 306.74 345.071 306.816 344.818C306.885 344.561 306.849 344.288 306.718 344.057C306.586 343.826 306.369 343.657 306.114 343.585L299.228 342.184Z" fill="#FF9CA0"/>
<path d="M351.627 217.282C351.563 216.43 351.199 215.627 350.601 215.017C350.002 214.407 349.206 214.028 348.355 213.948L331.888 212.4C331.411 212.355 330.93 212.406 330.473 212.548C330.016 212.691 329.591 212.922 329.224 213.23C328.857 213.537 328.554 213.914 328.333 214.339C328.112 214.764 327.978 215.228 327.937 215.705L326.245 235.987C326.166 236.932 326.46 237.871 327.066 238.601C327.672 239.332 328.54 239.795 329.484 239.892C335.039 240.504 340.625 240.797 346.214 240.769C352.712 240.59 352.155 224.221 351.627 217.282Z" fill="#B276FF"/>
<path d="M418.196 191.727L392.061 188.401L380.902 204.189L369.908 219.738C370.112 219.883 370.255 220.099 370.309 220.343C370.362 220.588 370.322 220.843 370.197 221.06L369.511 222.03L364.77 228.741L365.582 239.496C365.596 239.624 365.582 239.753 365.54 239.874C365.498 239.995 365.429 240.106 365.339 240.197C365.249 240.289 365.14 240.359 365.02 240.403C364.899 240.447 364.771 240.464 364.643 240.452C364.772 242.334 364.899 244.216 365.023 246.098C365.82 258.126 366.551 270.155 367.217 282.187C367.575 288.431 367.928 294.676 368.273 300.922C368.286 301.125 368.233 301.327 368.123 301.498L385.491 304.397L405.342 307.712L418.681 309.939L423.377 310.721L430.332 206.455C430.564 202.916 429.437 199.423 427.182 196.686C424.927 193.95 421.713 192.176 418.196 191.727ZM275.47 201.634L262.635 171.534L261.044 171.314C259.141 171.054 257.205 171.19 255.357 171.714C253.51 172.237 251.79 173.137 250.307 174.356C248.823 175.576 247.608 177.089 246.737 178.8C245.866 180.512 245.358 182.385 245.246 184.302L239.617 280.107C239.702 280.102 239.787 280.106 239.871 280.119L240.174 280.169C242.564 280.557 244.954 280.965 247.327 281.364L262.439 283.886L280.67 286.928C280.625 285.905 280.577 284.88 280.546 283.855C280.228 273.465 280.721 263.067 282.021 252.754C283.064 244.462 284.66 236.249 286.801 228.17L285.742 225.687C282.305 217.672 278.881 209.655 275.47 201.634Z" fill="#CF52FC"/>
<path d="M224.793 338.849C224.688 337.663 224.296 336.521 223.651 335.52C223.387 335.158 223.022 334.883 222.601 334.729C222.181 334.575 221.724 334.549 221.289 334.655C219.095 335.118 217.442 337.927 216.366 339.796C215.038 342.135 213.896 344.574 212.951 347.092C216.901 345.023 220.913 343.071 224.98 341.239C224.966 340.44 224.904 339.641 224.793 338.849ZM139.688 160.457C142.526 163.389 144.863 166.768 146.607 170.457C147.474 172.539 148.227 174.666 148.923 176.81C151.261 184.266 153.108 191.867 154.451 199.565C156.387 210.045 157.732 220.633 158.753 231.239C159.071 231.99 159.367 232.75 159.639 233.52H159.73L163.667 234.177C169.842 235.214 176.016 236.262 182.189 237.32C187.086 238.161 191.988 238.976 196.873 239.918C197.284 232.549 198.754 185.786 173.248 145.905C173.172 148.006 172.641 150.065 171.692 151.942C171.234 152.936 170.482 153.766 169.539 154.322C168.595 154.877 167.504 155.131 166.413 155.049C164.534 154.676 163.518 152.501 162.847 150.921C162.31 149.65 161.851 148.349 161.47 147.023C161.215 149.024 160.504 150.939 159.393 152.623C158.688 153.698 157.624 154.487 156.39 154.85C155.157 155.212 153.835 155.123 152.661 154.599C151.922 154.174 151.274 153.606 150.756 152.929C150.238 152.251 149.859 151.478 149.642 150.653C149.585 150.821 149.532 150.99 149.468 151.155C149.067 152.404 148.321 153.513 147.317 154.356C146.776 154.771 146.123 155.014 145.443 155.051C145.214 155.053 144.985 155.034 144.759 154.994C144.731 154.994 144.702 154.979 144.673 154.972L144.339 154.927C143.027 154.609 141.826 153.944 140.861 153C139.897 152.057 139.205 150.87 138.858 149.566C137.919 146.824 137.455 143.942 137.486 141.043C134.846 138.285 128.61 132.549 126.287 137.198C124.136 141.5 130.84 149.205 133.103 152.255C135.204 155.063 137.4 157.799 139.688 160.457Z" fill="#FFCEB6"/>
<path d="M139.7 136.658C139.554 138.233 139.509 139.816 139.564 141.397C139.56 143.944 139.96 146.475 140.747 148.897C141.096 149.966 141.676 150.944 142.444 151.765C143.183 152.466 144.135 152.901 145.149 153.001H145.477L145.63 152.965L145.773 152.917C145.902 152.852 146.026 152.778 146.146 152.697L146.182 152.676C146.244 152.621 146.308 152.566 146.366 152.508C147.028 151.749 147.51 150.851 147.776 149.879C148.346 147.922 148.678 145.903 148.765 143.866C148.854 142.588 150.835 142.571 150.773 143.866C150.703 145.393 150.821 146.923 151.124 148.422C151.476 150.133 152.178 152.504 154.114 152.963C156.232 153.476 157.733 151.83 158.512 150.071C159.764 146.755 160.24 143.197 159.903 139.669C159.838 138.546 161.698 138.288 161.874 139.402C162.087 140.733 162.352 142.057 162.656 143.371C163.114 145.54 163.742 147.67 164.532 149.741C164.855 150.605 165.283 151.426 165.806 152.186C165.911 152.331 166.026 152.468 166.15 152.597C166.205 152.654 166.513 152.915 166.389 152.836C166.432 152.867 166.604 152.97 166.654 153.003C166.7 153.023 166.747 153.037 166.795 153.046C168.492 153.168 169.733 151.6 170.323 150.097C171.299 147.005 171.573 143.734 171.124 140.523C171.111 140.409 171.12 140.294 171.152 140.184C171.183 140.074 171.236 139.971 171.308 139.882C170.855 138.694 170.241 137.573 169.482 136.553C164.809 130.36 156.146 129.777 149.05 130.549C146.504 130.826 143.194 130.621 141.038 132.411C140.058 133.285 139.353 134.425 139.007 135.692C139.117 135.707 139.224 135.743 139.32 135.801C139.415 135.858 139.498 135.934 139.563 136.025C139.628 136.115 139.674 136.218 139.698 136.327C139.721 136.436 139.722 136.549 139.7 136.658ZM152.654 285.942C153.599 285.187 154.348 284.215 154.836 283.108C155.323 282.001 155.536 280.792 155.455 279.585L154.475 264.425C146.079 272.912 132.757 275.354 121.35 273.127C117.347 272.352 113.508 270.897 109.997 268.825C110.339 273.785 111.254 278.689 112.722 283.44C112.937 283.384 113.164 283.398 113.37 283.48C113.576 283.562 113.751 283.707 113.87 283.895C113.988 284.083 114.044 284.303 114.029 284.525C114.013 284.746 113.928 284.957 113.785 285.127L113.721 285.206L113.506 285.474C114.164 287.116 115.12 288.623 116.326 289.919C122.095 295.701 144.043 292.761 152.654 285.942Z" fill="#FFCEB6"/>
<path d="M154.299 261.657C154.869 260.994 155.403 260.299 155.898 259.578C162.788 249.375 159.961 235.439 153.567 225.714C151.473 222.47 148.787 219.65 145.649 217.399C145.038 216.967 144.407 216.564 143.759 216.19C142.461 215.435 141.093 214.808 139.674 214.318C133.694 212.374 127.197 212.787 121.51 215.473C115.642 218.023 110.794 222.461 107.737 228.082C104.164 234.989 103.968 243.34 104.173 250.952C104.236 251.136 104.23 251.337 104.154 251.516C104.093 251.748 103.947 251.948 103.745 252.078C103.543 252.207 103.3 252.256 103.064 252.214H102.99C102.797 252.186 102.615 252.103 102.467 251.975C102.389 251.91 102.309 251.847 102.228 251.786L101.924 251.547C101.787 251.447 101.65 251.348 101.511 251.251C100.621 250.623 99.6871 250.059 98.7168 249.564C96.7343 248.379 94.3973 247.933 92.118 248.304C90.714 248.7 89.5017 249.593 88.7075 250.816C88.522 251.097 88.362 251.394 88.2295 251.703C88.0928 252.03 87.9926 252.372 87.9307 252.721C87.8635 253.084 87.845 253.455 87.8758 253.823C88.1148 256.373 90.598 258.151 92.7323 259.119C95.6927 260.433 99.0037 260.737 102.154 259.982C102.367 259.929 102.592 259.945 102.795 260.028C102.999 260.111 103.171 260.256 103.286 260.443C103.365 260.562 103.454 260.682 103.526 260.79L103.537 260.806L103.719 261.031C104.28 261.713 104.879 262.361 105.514 262.974C106.824 264.244 108.253 265.383 109.783 266.377L109.814 266.399C114.707 269.512 120.299 271.356 126.085 271.764C136.211 272.579 147.566 269.592 154.299 261.657ZM126.29 246.524C129.839 246.412 133.371 245.99 136.847 245.264C140.554 244.557 144.097 243.168 147.296 241.165C147.706 240.898 148.101 240.607 148.479 240.295C148.771 240.056 149.055 239.798 149.325 239.528C149.495 239.361 149.648 239.182 149.803 239.005L149.817 238.99C149.952 238.791 150.154 238.648 150.386 238.586C150.605 238.49 150.852 238.484 151.075 238.567C151.299 238.651 151.48 238.82 151.581 239.036C151.69 239.194 151.738 239.386 151.715 239.576C152.132 241.72 152.228 243.914 151.999 246.086C151.77 249.899 150.142 253.494 147.427 256.182C146.948 256.615 146.44 257.014 145.905 257.377C144.443 258.458 142.756 259.195 140.97 259.534C139.183 259.873 137.344 259.805 135.587 259.334C135.067 259.165 134.56 258.959 134.07 258.717C129.883 256.301 126.759 252.399 125.318 247.786C125.28 247.637 125.276 247.481 125.308 247.331C125.339 247.181 125.404 247.04 125.497 246.918C125.591 246.797 125.711 246.698 125.848 246.63C125.986 246.561 126.137 246.525 126.29 246.524ZM263.364 358.419C262.87 357.964 262.265 357.648 261.61 357.503C259.539 357.017 257.406 356.856 255.286 357.025C252.112 357.141 248.953 357.497 245.833 358.091C245.601 358.146 245.357 358.117 245.145 358.009C244.932 357.9 244.765 357.721 244.672 357.501C244.58 357.281 244.568 357.036 244.639 356.808C244.711 356.581 244.86 356.386 245.061 356.258C246.905 354.951 248.668 353.533 250.338 352.011C251.492 351.008 252.554 349.905 253.512 348.715C253.878 348.255 254.195 347.757 254.456 347.231C254.621 346.922 254.703 346.575 254.695 346.225C254.687 346.17 254.675 346.116 254.66 346.062C254.635 346.019 254.608 345.978 254.578 345.938C254.53 345.904 254.484 345.865 254.442 345.823C254.144 345.669 253.82 345.57 253.486 345.532C252.214 345.446 250.936 345.553 249.695 345.85C246.524 346.538 243.412 347.475 240.389 348.653C239.205 349.093 238.029 349.55 236.861 350.025L236.247 350.278L235.936 350.41L235.64 350.536C235.41 350.665 235.139 350.699 234.885 350.63C234.631 350.562 234.414 350.396 234.281 350.168C234.148 349.941 234.11 349.671 234.175 349.415C234.239 349.16 234.402 348.94 234.627 348.804C234.777 348.706 234.923 348.605 235.071 348.505C237.371 347.013 239.421 345.167 241.144 343.034C242.068 342.029 242.598 340.723 242.635 339.358C242.605 339.126 242.548 338.897 242.466 338.677C242.442 338.614 242.409 338.554 242.368 338.5L242.339 338.467L242.296 338.421C242.241 338.383 242.184 338.348 242.124 338.316L242.052 338.283C241.973 338.257 241.897 338.228 241.813 338.209C241.457 338.115 241.088 338.083 240.721 338.113C240.219 338.123 239.719 338.174 239.225 338.264C237.748 338.542 236.293 338.93 234.873 339.423C232.189 340.314 229.567 341.39 226.986 342.544L225.96 343.005C225.621 343.158 225.284 343.316 224.947 343.472C220.562 345.514 216.23 347.668 211.955 349.932L210.695 350.601L209.426 351.277L208.578 351.727C203.32 354.556 198.184 357.632 192.914 360.443C184.302 365.104 174.639 367.48 164.848 367.343C161.035 367.349 157.24 366.819 153.574 365.768C151.047 369.944 148.445 374.072 145.766 378.153C139.839 387.187 133.644 396.109 126.964 404.615C128.319 405.332 129.698 406.011 131.111 406.615C143.933 412.096 158.522 412.478 172.08 409.94C178.586 408.723 184.948 406.835 191.064 404.304C195.667 402.353 200.112 400.051 204.362 397.419C205.136 396.941 205.907 396.463 206.673 395.985C209.568 394.157 212.414 392.253 215.208 390.275C215.907 389.787 216.607 389.296 217.306 388.8C226.065 382.145 235.264 376.088 244.839 370.672C248.293 368.868 251.729 367.03 255.071 365.022C256.917 363.939 258.707 362.762 260.434 361.497C261.092 361.011 261.718 360.483 262.308 359.917C262.731 359.559 263.082 359.122 263.34 358.631L263.354 358.603C263.377 358.555 263.392 358.504 263.397 358.452L263.364 358.419Z" fill="#FFCEB6"/>
<path d="M423.633 449.705C418.332 448.112 413.027 446.53 407.718 444.961C400.274 442.751 392.828 440.544 385.381 438.341C376.358 435.67 367.334 433.004 358.309 430.341C348.399 427.413 338.487 424.488 328.575 421.568L297.931 412.533L268.108 403.75L241.101 395.801L219.77 389.527L217.677 391.004L234.734 396.023L260.678 403.659L289.867 412.263C300.102 415.276 310.339 418.292 320.576 421.312C330.657 424.283 340.738 427.257 350.819 430.234C360.087 432.968 369.355 435.705 378.622 438.446C386.502 440.777 394.381 443.109 402.256 445.444L419.942 450.702L423.109 451.658C423.237 451.692 423.371 451.701 423.503 451.684C423.634 451.666 423.761 451.623 423.876 451.557C423.991 451.49 424.092 451.402 424.173 451.297C424.254 451.191 424.313 451.071 424.347 450.943C424.382 450.815 424.39 450.681 424.373 450.55C424.356 450.418 424.313 450.291 424.246 450.176C424.18 450.061 424.092 449.96 423.986 449.88C423.881 449.799 423.761 449.739 423.633 449.705ZM408.731 453.806C403.577 452.265 398.418 450.744 393.253 449.241C386.16 447.17 379.063 445.114 371.963 443.073C363.495 440.63 355.025 438.196 346.555 435.771C337.277 433.112 327.999 430.459 318.721 427.813C309.199 425.094 299.678 422.382 290.158 419.675C280.958 417.055 271.759 414.44 262.561 411.828C254.249 409.467 245.935 407.108 237.621 404.752L217.039 398.92L209.257 396.716C208.503 397.204 207.746 397.682 206.986 398.15L212.338 399.666C218.76 401.482 225.181 403.301 231.601 405.122L255.635 411.938L282.74 419.641C292.236 422.342 301.731 425.046 311.224 427.753C320.615 430.43 330.004 433.111 339.39 435.798C348.112 438.293 356.831 440.794 365.548 443.302C373.037 445.458 380.52 447.622 387.998 449.793C393.686 451.447 399.37 453.114 405.05 454.793C406.099 455.104 407.148 455.417 408.198 455.733C408.444 455.776 408.698 455.727 408.909 455.593C409.12 455.46 409.274 455.253 409.341 455.012C409.408 454.771 409.382 454.514 409.269 454.291C409.156 454.068 408.964 453.895 408.731 453.806ZM423.633 310.784L423.394 310.741L418.697 309.959L405.359 307.732L385.507 304.417L368.139 301.518L361.447 300.402L335.019 295.99L308.339 291.537L283.454 287.383L282.687 287.257L281.731 287.097L280.672 286.917L262.441 283.875L247.33 281.353C244.94 280.954 242.561 280.546 240.176 280.158L239.873 280.108C239.789 280.095 239.704 280.091 239.619 280.096C239.568 280.099 239.517 280.106 239.466 280.118C239.227 280.135 239.004 280.244 238.843 280.422C238.682 280.6 238.596 280.834 238.604 281.074V304.771C238.607 304.989 238.681 305.201 238.813 305.375C238.946 305.549 239.13 305.677 239.34 305.739C244.411 307.266 249.562 308.537 254.722 309.728C261.175 311.219 267.685 312.564 274.193 313.838C281.564 315.282 288.949 316.646 296.348 317.93C304.255 319.313 312.169 320.641 320.093 321.914C328.06 323.202 336.038 324.448 344.027 325.655C351.632 326.81 359.24 327.935 366.851 329.032C373.624 330.01 380.401 330.966 387.18 331.9C392.798 332.677 398.418 333.443 404.039 334.196C407.962 334.722 411.884 335.242 415.805 335.755C417.617 335.994 419.45 336.328 421.274 336.472C421.35 336.472 421.427 336.493 421.513 336.503C422.079 336.574 422.469 335.982 422.517 335.499L424.146 314.706L424.385 311.752C424.385 311.53 424.311 311.314 424.175 311.139C424.038 310.964 423.848 310.839 423.633 310.784ZM420.731 332.533L420.585 334.366L417.763 334.003C414.331 333.558 410.899 333.107 407.467 332.648C402.314 331.963 397.162 331.265 392.011 330.556C385.448 329.653 378.889 328.734 372.334 327.798C364.904 326.737 357.477 325.651 350.052 324.541C342.152 323.359 334.258 322.142 326.369 320.891C318.393 319.625 310.426 318.312 302.469 316.953C294.917 315.66 287.375 314.306 279.843 312.89C273.101 311.608 266.371 310.261 259.669 308.786C254.143 307.569 248.627 306.274 243.178 304.756C242.322 304.517 241.472 304.278 240.618 304.015V282.259L244.294 282.874L257.633 285.101L277.484 288.414L281.43 289.073L281.755 289.128L301.537 292.429L327.956 296.838L354.636 301.293L379.511 305.445L400.543 308.956L415.655 311.477C417.854 311.845 420.086 312.354 422.306 312.608L420.731 332.533Z" fill="#CF52FC"/>
<path d="M325.562 300.987C324.501 300.433 323.326 300.136 322.129 300.119C320.933 300.103 319.75 300.367 318.674 300.891C317.484 301.538 316.512 302.521 315.879 303.718C315.245 304.915 314.979 306.272 315.113 307.619C315.279 309.42 316.082 311.104 317.378 312.366C318.674 313.628 320.377 314.386 322.183 314.504C323.168 314.549 324.152 314.373 325.061 313.989C325.971 313.606 326.783 313.025 327.44 312.289C328.624 310.847 329.262 309.033 329.24 307.167C329.25 305.899 328.912 304.653 328.263 303.564C327.615 302.474 326.681 301.583 325.562 300.987ZM323.122 312.459C321.739 312.595 320.356 312.202 319.251 311.359C318.146 310.517 317.401 309.287 317.166 307.918C316.979 306.809 317.147 305.669 317.644 304.66C318.024 303.88 318.625 303.229 319.372 302.789C320.496 302.16 321.806 301.949 323.07 302.193C324.334 302.438 325.471 303.122 326.279 304.125C326.779 304.844 327.097 305.675 327.205 306.544C327.312 307.414 327.206 308.297 326.895 309.116C326.585 309.936 326.08 310.667 325.423 311.248C324.766 311.828 323.978 312.239 323.127 312.447L323.122 312.459Z" fill="#FF9CA0"/>
<path d="M414.251 52.6589L402.947 66.6261L401.644 68.2393L396.525 67.4315L393.432 66.9535C393.17 66.8662 392.889 66.8514 392.619 66.9107C392.35 66.97 392.101 67.1013 391.9 67.2905C390.705 68.5405 389.627 69.9195 388.497 71.2125L383.322 77.1756L380.189 80.7821C379.345 81.7524 380.76 83.1721 381.609 82.1993L391.969 70.2493L393.133 68.9085L398.821 69.8048C399.777 69.9578 400.733 70.1155 401.689 70.2589C401.961 70.3156 402.244 70.2833 402.496 70.1666C402.748 70.0499 402.955 69.8552 403.088 69.6112L412.442 58.0508L415.664 54.0714C416.476 53.082 415.064 51.6527 414.251 52.6589ZM299.581 61.7601C298.864 61.2821 298.107 60.8399 297.373 60.381L292.172 57.1354L292.772 39.7219L292.858 37.1789C292.904 35.8859 290.896 35.8883 290.851 37.1789C290.707 41.3981 290.562 45.6156 290.416 49.8316C290.339 52.1164 290.26 54.4012 290.177 56.6861C290.16 57.1904 290.029 57.8596 290.358 58.2874C290.935 58.8215 291.594 59.2604 292.309 59.5875L298.145 63.2323V80.7414C298.145 81.0077 298.251 81.263 298.439 81.4512C298.627 81.6395 298.883 81.7452 299.149 81.7452C299.415 81.7452 299.67 81.6395 299.859 81.4512C300.047 81.263 300.153 81.0077 300.153 80.7414V63.108C300.194 62.8523 300.162 62.5901 300.061 62.3516C299.96 62.1131 299.794 61.9081 299.581 61.7601ZM464.281 154.344L454.625 161.837L448.189 157.711C448.036 157.62 447.861 157.571 447.683 157.571C447.504 157.571 447.329 157.62 447.176 157.711L437.747 164.279C436.693 165.01 437.697 166.753 438.761 166.012L447.704 159.784L454.157 163.925C454.35 164.032 454.572 164.075 454.791 164.046C455.01 164.018 455.214 163.92 455.374 163.768L465.686 155.764C466.719 154.972 465.29 153.562 464.281 154.344ZM222.953 117.32L214.349 110.937L216.206 103.549C216.259 103.336 216.243 103.111 216.16 102.908C216.077 102.704 215.932 102.532 215.745 102.416L204.875 95.1842C203.795 94.4672 202.789 96.2023 203.862 96.917L214.091 103.724L212.246 111.071C212.195 111.284 212.212 111.508 212.294 111.711C212.377 111.914 212.522 112.087 212.707 112.203L221.933 119.053C222.987 119.825 223.981 118.083 222.953 117.32Z" fill="#B26EE6"/>
<path d="M335.204 23.1831C334.702 28.3216 334.313 33.4983 334.248 38.6631C334.205 40.2148 334.263 41.7676 334.422 43.3116C334.575 44.5783 336.585 44.5927 336.43 43.3116C336.164 40.2906 336.153 37.2525 336.397 34.2296C336.548 31.1722 336.759 28.118 337.03 25.0688C337.085 24.4402 337.14 23.8092 337.202 23.1783C337.336 21.8877 335.328 21.8948 335.204 23.1831ZM464.293 103.375C460.731 105.306 457.283 107.438 453.963 109.761C452.921 110.471 451.939 111.264 451.026 112.134C450.838 112.322 450.732 112.578 450.732 112.844C450.732 113.11 450.838 113.365 451.026 113.554C451.214 113.742 451.469 113.848 451.736 113.848C452.002 113.848 452.257 113.742 452.445 113.554C454.16 111.986 456.037 110.605 458.045 109.436C460.001 108.189 461.99 106.994 464.008 105.851C464.438 105.602 464.871 105.357 465.306 105.115C466.437 104.481 465.423 102.746 464.293 103.375ZM229.662 147.79C227.817 146.754 225.949 145.758 224.059 144.805C221.277 143.225 218.323 141.97 215.255 141.063C214 140.759 213.465 142.695 214.722 142.999C217.676 143.874 220.52 145.088 223.197 146.615C225.032 147.547 226.856 148.512 228.651 149.523C228.88 149.645 229.147 149.674 229.397 149.603C229.646 149.532 229.859 149.367 229.99 149.143C230.121 148.919 230.159 148.653 230.098 148.401C230.037 148.149 229.881 147.93 229.662 147.79ZM343.715 182.199C343.489 181.605 343.173 181.048 342.78 180.548C342.105 179.699 341.231 179.029 340.235 178.598L339.946 181.705L339.755 183.746L339.396 187.603C339.318 188.42 339.025 189.201 338.547 189.868C338.07 190.535 337.424 191.064 336.676 191.401C331.616 193.862 326.009 194.986 320.391 194.666C316.615 194.331 310.181 193.131 309.411 188.636C309.091 186.472 308.913 184.29 308.878 182.104C306.961 184.131 305.658 186.66 305.121 189.398C304.784 193.499 309.598 195.708 312.841 196.948C319.772 199.596 332.061 200.055 338.414 195.581C340.472 194.355 342.112 192.538 343.122 190.365C344.132 188.193 344.463 185.767 344.073 183.404C343.997 182.991 343.876 182.587 343.715 182.199Z" fill="#DCBEFF"/>
<path d="M419.777 134.583C419.278 134.644 418.772 134.579 418.304 134.396C417.835 134.213 417.42 133.917 417.094 133.535C416.768 133.152 416.542 132.695 416.436 132.203C416.33 131.712 416.347 131.202 416.486 130.719C416.737 129.382 417.222 128.1 417.92 126.933C417.113 127.434 416.242 127.824 415.332 128.092C414.818 128.266 414.275 128.336 413.734 128.298C413.193 128.26 412.665 128.115 412.181 127.872C411.697 127.628 411.265 127.291 410.912 126.88C410.559 126.468 410.291 125.991 410.124 125.475C409.798 124.566 409.674 123.596 409.762 122.634C409.85 121.673 410.147 120.741 410.633 119.906C408.912 120.962 406.889 121.415 404.883 121.192C404.331 121.022 403.825 120.73 403.401 120.34C402.976 119.949 402.644 119.469 402.428 118.934C402.212 118.399 402.119 117.822 402.153 117.246C402.188 116.671 402.35 116.11 402.629 115.604C403.948 113.066 405.887 110.902 408.267 109.314C408.558 109.092 408.852 108.869 409.149 108.652C408.372 105.741 405.984 97.7344 403.174 97.9567C399.756 98.2244 399.885 115.578 399.885 115.578C397.101 121.149 379.331 144.201 370.526 155.491C369.231 157.164 368.136 158.558 367.3 159.619L369.092 161.347L371.019 163.199C375.356 167.381 379.695 171.562 384.037 175.742L392.163 183.557C401.962 171.925 421.534 147.516 427.958 131.092C427.556 131.331 427.162 131.591 426.763 131.825C424.663 133.243 422.279 134.185 419.777 134.583Z" fill="#E59E70"/>
<path d="M428.956 117.827C423.044 108.537 417.558 107.167 413.899 107.724C413.815 107.913 413.671 108.069 413.491 108.169C412.007 109.039 410.585 110.012 409.237 111.08C407.222 112.428 405.574 114.255 404.44 116.397C404.244 116.765 404.148 117.177 404.161 117.592C404.173 118.008 404.294 118.414 404.511 118.768C404.729 118.999 405.003 119.167 405.307 119.257C405.61 119.347 405.932 119.355 406.239 119.28C408.435 118.862 410.511 117.964 412.32 116.651C413.175 116.119 414.01 115.561 414.824 114.978L415.159 114.739C415.398 114.545 415.637 114.361 415.876 114.189C416.803 113.527 417.979 115.066 417.092 115.767L416.887 115.922L416.865 115.936L416.782 115.998C416.631 116.221 416.841 115.946 416.634 116.113C416.318 116.366 416.01 116.625 415.709 116.892C414.827 117.654 414.027 118.505 413.319 119.43C412.045 121.151 410.89 123.716 412.41 125.668C413.288 126.796 414.8 126.323 416.079 125.668C418.799 124.131 421.218 122.112 423.216 119.71C424.076 118.742 425.488 120.166 424.635 121.13C423.483 122.433 422.408 123.801 421.414 125.229C419.949 126.981 418.913 129.052 418.39 131.275C418.365 131.494 418.365 131.714 418.39 131.932C418.424 132.017 418.449 132.105 418.464 132.195C418.488 132.272 418.529 132.343 418.584 132.402C418.638 132.461 418.705 132.507 418.78 132.537C419.521 132.701 420.294 132.632 420.995 132.341C423.19 131.582 425.275 130.538 427.197 129.234C427.793 128.865 428.383 128.482 428.966 128.087C430.304 123.751 430.464 120.183 428.956 117.827ZM266.484 63.4542C263.308 62.1636 257.001 72.7632 257.001 72.7632C257.001 72.7632 250.811 62.1134 235.907 74.594C234.991 75.5347 234.276 76.6514 233.804 77.8763C233.333 79.1013 233.115 80.4092 233.163 81.721C233.366 81.8927 233.495 82.137 233.521 82.4021C233.521 82.4619 233.55 82.622 233.56 82.7032C233.776 84.2532 234.076 85.7906 234.456 87.3088C234.874 89.6767 235.858 91.9085 237.324 93.8144C237.573 94.1416 237.897 94.4032 238.27 94.5765C238.643 94.7497 239.052 94.8294 239.463 94.8086C239.753 94.7417 240.02 94.5965 240.233 94.3888C240.447 94.181 240.6 93.9187 240.675 93.6303C241.261 91.4235 241.31 89.1083 240.818 86.8786C240.623 85.4613 240.349 84.0562 239.996 82.6698C239.735 81.4126 241.607 80.8773 241.932 82.1368C242.238 83.5851 242.731 84.9877 243.397 86.3098C243.75 87.274 244.325 88.1418 245.074 88.8437C245.824 89.5456 246.728 90.062 247.713 90.3512C249.706 90.6452 250.512 89.5339 250.562 87.7031C250.518 85.5765 250.104 83.4737 249.338 81.4891C249.056 80.6431 248.741 79.8161 248.406 78.9844C248.275 78.657 248.311 78.8147 248.167 78.4084C248.136 78.3262 248.1 78.2464 248.057 78.1694C247.524 77.0031 249.252 75.9826 249.79 77.1561C250.531 78.7606 251.36 80.3229 252.273 81.8357C253.286 83.9064 254.774 85.7082 256.616 87.0937C256.899 87.2853 257.23 87.3923 257.572 87.402C257.705 87.3915 257.831 87.3397 257.933 87.2538C258.138 87.0248 258.29 86.7529 258.377 86.4579C258.495 86.0924 258.58 85.7174 258.633 85.337C258.861 83.0246 258.764 80.6917 258.346 78.406C258.157 77.0915 257.938 75.777 257.648 74.4816C257.371 73.2197 259.307 72.6868 259.584 73.9487C259.991 75.8193 260.3 77.71 260.509 79.613C260.958 82.0584 260.891 84.5704 260.313 86.9885C260.198 87.4457 259.991 87.8744 259.703 88.2478C259.415 88.6211 259.053 88.9312 258.64 89.1586C258.125 89.3585 257.568 89.4265 257.02 89.3564C256.472 89.2863 255.95 89.0803 255.502 88.7571C254.334 87.9759 253.318 86.9878 252.505 85.8413C252.689 87.0274 252.639 88.2381 252.357 89.4048C252.186 89.9667 251.902 90.4877 251.522 90.9356C251.142 91.3836 250.675 91.749 250.148 92.0094C249.622 92.2698 249.048 92.4197 248.461 92.4498C247.875 92.4799 247.288 92.3895 246.738 92.1844C245.299 91.7439 244.032 90.8679 243.112 89.6773C243.424 91.755 242.963 93.8749 241.817 95.6355C241.406 96.0393 240.912 96.3488 240.369 96.5424C239.826 96.7361 239.248 96.8093 238.674 96.757C238.1 96.7047 237.544 96.5281 237.045 96.2396C236.546 95.951 236.116 95.5573 235.785 95.0858C235.215 94.4191 234.727 93.6874 234.329 92.9062C238.717 113.792 253.903 144.977 258.444 154.028C261.427 152.682 264.393 151.303 267.342 149.893C274.053 146.674 280.726 143.326 287.249 139.753C283.2 130.286 265.461 88.5372 264.305 81.2453C264.3 81.2453 269.665 64.7448 266.484 63.4542ZM332.811 178.851C331.753 179.243 330.66 179.594 329.575 179.9C329.171 180.014 328.765 180.115 328.359 180.213C325.232 181.024 321.99 181.294 318.773 181.011C316.995 180.832 315.242 180.462 313.543 179.907C311.873 179.363 310.27 178.633 308.763 177.73C308.785 179.118 308.818 180.509 308.871 181.895V182.111C308.906 184.297 309.084 186.479 309.404 188.642C310.173 193.138 316.607 194.338 320.383 194.672C326.002 194.992 331.608 193.868 336.669 191.408C337.417 191.071 338.062 190.542 338.54 189.875C339.018 189.208 339.31 188.426 339.389 187.61L339.747 183.752L339.938 181.711L340.228 178.604L340.577 174.871C338.467 176.349 336.183 177.561 333.777 178.48C333.459 178.6 333.136 178.729 332.811 178.851Z" fill="#E59E70"/>
<path d="M353.924 155.692C352.917 155.441 351.865 155.435 350.856 155.675C349.847 155.916 348.91 156.395 348.125 157.074C348.01 157.158 347.875 157.213 347.733 157.232C347.591 157.251 347.447 157.235 347.313 157.184C347.137 157.158 346.976 157.073 346.856 156.942C346.736 156.812 346.664 156.644 346.653 156.467C346.634 156.354 346.615 156.242 346.593 156.13C345.59 150.178 342.823 144.664 338.649 140.303C335.338 136.996 330.987 134.934 326.331 134.464C322.898 134.019 319.409 134.398 316.152 135.571C315.47 135.846 314.802 136.154 314.149 136.494C313.274 136.948 312.425 137.45 311.606 137.999C309.527 139.406 307.665 141.11 306.081 143.057C304.092 145.522 302.539 148.308 301.487 151.295C300.46 154.001 299.942 156.873 299.957 159.767C299.968 160.401 300.012 161.034 300.091 161.663C300.499 164.416 301.48 167.054 302.969 169.406C304.458 171.758 306.423 173.773 308.738 175.319C311.512 177.24 314.711 178.459 318.059 178.871L318.164 178.885C320.972 179.21 323.814 179.091 326.584 178.531C329.169 178.022 331.691 177.233 334.106 176.177C336.543 175.167 338.812 173.792 340.836 172.1C341.615 171.428 342.331 170.686 342.973 169.882C343.63 169.066 344.163 168.156 344.552 167.184C344.834 166.467 344.978 165.778 345.798 165.511C346.948 165.279 348.123 165.199 349.294 165.272C352.525 165.152 357.451 163.651 356.844 159.497C356.711 158.671 356.375 157.89 355.865 157.226C355.355 156.561 354.688 156.034 353.924 155.692Z" fill="#E59E70"/>
<path d="M429.091 408.805C427.94 408.462 426.73 408.359 425.538 408.503C424.345 408.647 423.195 409.036 422.16 409.644C420.836 410.24 419.571 410.961 418.383 411.795H418.367C416.05 410.064 413.501 408.667 410.795 407.646C410.119 407.38 409.429 407.152 408.728 406.963C408.471 406.892 408.197 406.926 407.965 407.058C407.734 407.189 407.564 407.407 407.493 407.664C407.423 407.921 407.457 408.195 407.588 408.427C407.72 408.658 407.938 408.828 408.195 408.899C409.969 409.381 411.682 410.069 413.297 410.947C416.912 412.723 420.025 415.374 422.356 418.659C423.923 421.002 424.963 423.657 425.403 426.441C425.611 427.713 427.554 427.172 427.339 425.908C426.459 420.917 423.859 416.391 419.989 413.117C420.883 412.538 421.813 412.017 422.774 411.559C423.704 411.101 424.683 410.751 425.692 410.517C426.117 410.408 426.554 410.358 426.992 410.366C427.126 410.366 427.257 410.366 427.389 410.383H427.506C427.63 410.404 427.745 410.431 427.876 410.464C427.912 410.464 428.264 410.6 428.075 410.519C428.306 410.644 428.577 410.677 428.832 410.611C429.086 410.544 429.306 410.383 429.447 410.16C429.574 409.932 429.608 409.664 429.541 409.411C429.475 409.159 429.314 408.941 429.091 408.805ZM126.192 237.839L126.239 237.944C126.163 237.782 126.27 238.025 126.282 238.057C126.337 238.195 126.388 238.336 126.435 238.477C126.506 238.734 126.676 238.952 126.907 239.084C127.139 239.215 127.413 239.249 127.67 239.179C127.926 239.108 128.145 238.938 128.276 238.707C128.408 238.475 128.442 238.201 128.371 237.944C128.018 236.896 127.513 235.904 126.873 235.002C126.575 234.566 126.241 234.155 125.876 233.774C125.688 233.585 125.432 233.48 125.166 233.48C124.9 233.48 124.645 233.585 124.456 233.774C124.268 233.962 124.162 234.217 124.162 234.483C124.162 234.75 124.268 235.005 124.456 235.193C124.54 235.277 124.619 235.365 124.695 235.456C124.772 235.547 124.865 235.657 124.934 235.757L124.961 235.793L125.123 236.015C125.385 236.38 125.625 236.76 125.84 237.153C125.979 237.378 126.091 237.605 126.192 237.839ZM147.066 227.256C147.152 227.353 147.236 227.454 147.317 227.557L147.345 227.593L147.508 227.815C147.771 228.179 148.01 228.559 148.225 228.953C148.347 229.178 148.464 229.405 148.567 229.637C148.579 229.665 148.689 229.907 148.612 229.744C148.536 229.582 148.646 229.825 148.658 229.856C148.71 229.995 148.76 230.136 148.808 230.277C148.879 230.534 149.049 230.752 149.28 230.883C149.512 231.015 149.786 231.049 150.043 230.979C150.299 230.908 150.517 230.738 150.649 230.507C150.781 230.275 150.815 230.001 150.744 229.744C150.392 228.695 149.887 227.704 149.246 226.802C148.947 226.366 148.614 225.955 148.249 225.574C148.058 225.398 147.807 225.303 147.548 225.308C147.288 225.313 147.041 225.419 146.858 225.602C146.675 225.786 146.57 226.033 146.565 226.292C146.56 226.552 146.656 226.803 146.832 226.993C146.91 227.077 146.985 227.165 147.066 227.256ZM119.724 225.416C119.019 225.754 118.362 226.186 117.772 226.699C116.623 227.635 115.709 228.826 115.103 230.178C114.496 231.529 114.213 233.003 114.277 234.483C114.277 234.75 114.383 235.005 114.571 235.193C114.76 235.382 115.015 235.487 115.281 235.487C115.547 235.487 115.803 235.382 115.991 235.193C116.179 235.005 116.285 234.75 116.285 234.483C116.233 233.524 116.364 232.564 116.672 231.654C116.708 231.546 116.746 231.436 116.787 231.331L116.842 231.183C116.923 230.994 117.012 230.81 117.107 230.628C117.299 230.269 117.515 229.923 117.755 229.594L117.836 229.488L117.977 229.316C118.092 229.178 118.216 229.041 118.338 228.91C118.565 228.67 118.804 228.441 119.055 228.226C119.132 228.162 119.461 227.906 119.225 228.081C119.335 227.999 119.442 227.918 119.555 227.842C119.739 227.713 119.93 227.588 120.123 227.474C120.318 227.353 120.52 227.246 120.728 227.151C120.956 227.015 121.122 226.795 121.189 226.539C121.256 226.282 121.219 226.009 121.087 225.779C120.949 225.556 120.731 225.395 120.478 225.327C120.224 225.259 119.955 225.291 119.724 225.416ZM151.585 239.036C151.484 238.82 151.303 238.652 151.079 238.568C150.856 238.484 150.609 238.491 150.39 238.587C150.329 238.61 150.27 238.637 150.213 238.668C150.086 238.73 149.973 238.819 149.884 238.929L149.821 238.991L149.807 239.005C149.647 239.182 149.494 239.361 149.329 239.529C149.059 239.797 148.776 240.053 148.483 240.296C148.106 240.608 147.711 240.899 147.3 241.166C144.101 243.168 140.558 244.558 136.851 245.265C133.375 245.991 129.843 246.413 126.294 246.524C126.14 246.526 125.989 246.563 125.851 246.632C125.713 246.701 125.593 246.801 125.5 246.924C125.407 247.046 125.343 247.189 125.312 247.34C125.282 247.491 125.287 247.647 125.326 247.796C126.768 252.409 129.892 256.312 134.079 258.728C134.569 258.97 135.076 259.176 135.596 259.344C137.353 259.815 139.192 259.883 140.979 259.544C142.765 259.205 144.452 258.468 145.914 257.387C146.448 257.024 146.957 256.625 147.436 256.192C150.151 253.504 151.779 249.91 152.008 246.096C152.237 243.924 152.141 241.73 151.724 239.586C151.747 239.392 151.698 239.196 151.585 239.036ZM147.197 253.508C146.021 255.011 144.476 256.185 142.712 256.913C140.948 257.642 139.025 257.902 137.131 257.666C134.172 256.896 131.622 255.019 130.008 252.423C129.195 251.258 128.484 250.026 127.881 248.74L127.755 248.455C133.064 248.276 138.311 247.256 143.302 245.434C145.721 244.551 147.977 243.27 149.977 241.646C150.073 242.599 150.112 243.557 150.094 244.514C150.132 247.747 149.115 250.905 147.197 253.508Z" fill="black"/>
<path d="M264.573 356.789C262.931 355.633 260.966 355.028 258.959 355.059C255.742 354.869 252.514 355.019 249.329 355.508C249.97 354.985 250.606 354.454 251.225 353.909C252.499 352.823 253.682 351.634 254.762 350.353C255.686 349.374 256.344 348.174 256.674 346.868C257.183 343.824 253.806 343.327 251.576 343.542C248.113 343.996 244.718 344.866 241.464 346.132C241.256 346.204 241.05 346.288 240.842 346.371L240.979 346.242C243.034 344.192 245.613 341.006 244.325 337.913C243.447 335.82 240.823 336.001 238.966 336.286C235.558 336.958 232.24 338.031 229.084 339.481C228.367 339.777 227.671 340.088 226.966 340.394C226.941 339.961 226.903 339.529 226.851 339.099C226.545 336.534 225.635 333.191 222.657 332.677C219.679 332.163 217.447 334.613 215.903 336.814C214.013 339.674 212.47 342.748 211.307 345.972C210.988 346.798 210.677 347.628 210.372 348.463C208.038 349.705 205.717 350.968 203.408 352.251C199.29 337.134 193.081 322.666 184.962 309.267C183.246 306.461 181.435 303.706 179.529 301.002C182.602 297.381 185.153 293.348 187.108 289.021C189.396 284.075 191.304 278.961 192.813 273.725C195.369 264.93 197.275 255.959 198.518 246.885C198.786 244.995 199.046 243.099 199.235 241.199C199.235 240.98 199.164 240.766 199.031 240.591C198.898 240.416 198.711 240.29 198.499 240.232C197.959 240.124 197.416 240.026 196.876 239.921C191.996 238.979 187.089 238.164 182.192 237.323C176.019 236.262 169.845 235.214 163.669 234.18L159.733 233.523H159.642C159.368 232.753 159.073 231.993 158.755 231.243C158.32 230.215 157.852 229.206 157.348 228.227C154.73 222.943 150.775 218.436 145.876 215.153C146.115 211.304 145.68 207.443 144.59 203.743C143.509 199.841 141.277 196.355 138.185 193.741C133.97 190.613 128.816 189.011 123.57 189.2C117.106 188.986 110.713 190.6 105.126 193.858C101.329 196.353 98.3198 199.876 96.4482 204.016C94.9919 207.534 93.7328 211.13 92.6767 214.788C92.2971 216.108 91.7254 217.366 90.9798 218.521C90.9464 218.569 90.7695 218.805 90.7647 218.817C90.6978 218.901 90.6285 218.984 90.5544 219.056C90.3666 219.263 90.1628 219.455 89.945 219.63C89.8876 219.668 89.7251 219.785 89.6845 219.809C89.5793 219.873 89.4717 219.931 89.3642 219.988L89.2519 220.041C89.2184 220.055 89.1491 220.086 89.1252 220.093C88.5827 220.294 88.033 220.476 87.4809 220.645C84.0703 221.695 80.4471 221.934 77.0676 223.057C75.7832 223.391 74.6127 224.065 73.6793 225.009C72.746 225.952 72.0844 227.13 71.7642 228.418C71.1094 232.431 76.126 234.185 79.6249 234.978C78.0833 236.017 76.8741 237.478 76.1427 239.187C74.5557 243.382 78.657 247.566 82.5957 248.164C83.3478 248.277 84.1101 248.305 84.8686 248.25C84.9751 249.317 85.4102 250.325 86.1138 251.135C86.1592 251.19 86.2118 251.24 86.2596 251.292C86.0446 251.886 85.9135 252.506 85.87 253.135C85.9298 254.638 86.3997 256.096 87.2288 257.351C88.0579 258.606 89.2146 259.61 90.5735 260.255C94.0417 262.195 98.0894 262.832 101.986 262.05C103.249 263.665 104.714 265.111 106.345 266.352C107.504 267.262 108.721 268.094 109.99 268.842C113.5 270.914 117.34 272.369 121.342 273.144C132.75 275.372 146.072 272.929 154.468 264.442C154.776 264.131 155.08 263.814 155.374 263.486C159.341 259.036 161.639 253.346 161.874 247.39C162.019 243.421 161.497 239.456 160.333 235.659C163.615 236.208 166.897 236.759 170.18 237.313C176.853 238.441 183.523 239.588 190.191 240.753C192.505 241.161 194.818 241.572 197.122 242.019C196.62 246.799 195.834 251.519 194.904 256.376C193.132 266.615 190.209 276.622 186.193 286.206C184.221 290.949 181.563 295.378 178.306 299.351C175.159 294.997 171.713 290.869 167.993 286.994C166.913 285.878 165.813 284.755 164.628 283.744C163.65 282.912 162.223 284.325 163.208 285.163C166.699 288.293 169.899 291.733 172.768 295.44C180.446 305.038 186.897 315.555 191.972 326.749C195.886 335.308 199.092 344.174 201.556 353.257L199.55 354.376C194.351 357.579 188.866 360.293 183.165 362.482C178.566 364.051 173.777 364.991 168.927 365.276C164.126 365.57 159.309 365.126 154.642 363.959C154.79 363.72 154.939 363.481 155.084 363.226C155.216 362.995 155.252 362.722 155.185 362.465C155.118 362.209 154.953 361.988 154.726 361.851C151.9 360.252 149.242 358.374 146.791 356.244C140.791 351.257 135.67 345.299 131.641 338.618C128.681 333.672 126.391 328.355 124.832 322.806C124.761 322.549 124.591 322.331 124.36 322.2C124.128 322.068 123.854 322.034 123.597 322.105C123.341 322.175 123.123 322.345 122.991 322.576C122.859 322.808 122.825 323.082 122.896 323.339C125.583 332.779 130.27 341.53 136.638 348.998C140.751 353.869 145.506 358.159 150.773 361.751C151.447 362.208 152.134 362.647 152.835 363.068C144.745 376.603 135.888 389.664 126.306 402.187C125.809 402.838 125.386 403.382 124.887 404.025C118.258 400.678 112.523 395.799 108.157 389.793C104.164 384.096 101.248 377.716 99.5528 370.969C97.962 364.771 97.08 358.412 96.9238 352.014C96.7737 347.009 96.971 342 97.5141 337.022C97.7029 335.27 97.8463 334.178 98.1188 332.481C98.2359 331.745 98.3793 331.016 98.5083 330.282L98.5298 330.184C98.7975 328.924 96.8568 328.384 96.5939 329.651C96.1757 331.616 95.9128 333.623 95.669 335.626C95.0782 340.458 94.8139 345.323 94.8779 350.191C94.9252 356.644 95.6623 363.074 97.0767 369.37C98.6029 376.323 101.333 382.956 105.143 388.968C109.373 395.474 115.099 400.873 121.842 404.714C122.76 405.231 123.692 405.722 124.638 406.186C124.789 406.262 124.954 406.304 125.122 406.309C125.291 406.314 125.458 406.283 125.613 406.217C138.436 413.129 153.433 414.599 167.711 412.687C174.567 411.765 181.304 410.105 187.804 407.737C194.451 405.256 200.821 402.089 206.811 398.287L206.959 398.194C207.719 397.716 208.476 397.238 209.23 396.76C212.073 394.909 214.881 393.004 217.652 391.048L219.746 389.571C222.136 387.876 224.526 386.172 226.916 384.485C232.736 380.205 238.827 376.304 245.149 372.807C248.495 371.046 251.841 369.289 255.096 367.375C257.051 366.225 258.99 365.032 260.832 363.711C262.309 362.76 263.623 361.579 264.726 360.212C264.948 359.981 265.122 359.708 265.235 359.408C265.349 359.108 265.4 358.788 265.386 358.468C265.371 358.147 265.292 357.833 265.152 357.545C265.012 357.256 264.815 356.999 264.573 356.789ZM155.897 259.579C155.402 260.3 154.868 260.994 154.298 261.658C147.565 269.583 136.211 272.58 126.118 271.77C120.332 271.361 114.74 269.517 109.846 266.404L109.815 266.383C108.286 265.389 106.857 264.249 105.547 262.98C104.913 262.366 104.314 261.717 103.752 261.036L103.57 260.812L103.558 260.795C103.475 260.68 103.386 260.568 103.319 260.449C103.204 260.262 103.032 260.117 102.828 260.034C102.624 259.951 102.4 259.935 102.187 259.987C99.0366 260.742 95.7256 260.439 92.7652 259.124C90.6309 258.156 88.1453 256.378 87.9087 253.828C87.8779 253.46 87.8964 253.09 87.9636 252.726C88.0255 252.377 88.1257 252.036 88.2624 251.708C88.3949 251.399 88.5549 251.102 88.7404 250.822C89.5346 249.598 90.7469 248.705 92.1509 248.31C94.4302 247.939 96.7673 248.385 98.7497 249.569C99.72 250.064 100.654 250.628 101.544 251.257L101.957 251.553L102.261 251.792L102.5 251.981C102.648 252.108 102.829 252.191 103.023 252.22H103.097C103.333 252.261 103.576 252.213 103.778 252.083C103.98 251.954 104.126 251.754 104.187 251.522C104.262 251.343 104.269 251.142 104.206 250.958C104.001 243.346 104.206 234.995 107.77 228.088C110.827 222.467 115.675 218.028 121.543 215.478C127.229 212.793 133.727 212.38 139.707 214.324C141.126 214.814 142.494 215.44 143.792 216.195C144.117 216.382 144.435 216.575 144.748 216.778C145.061 216.982 145.376 217.19 145.682 217.405C148.82 219.655 151.506 222.476 153.6 225.719C159.958 235.449 162.787 249.376 155.897 259.579ZM216.364 339.796C217.44 337.928 219.093 335.119 221.287 334.656C221.722 334.55 222.179 334.576 222.599 334.73C223.02 334.884 223.385 335.159 223.649 335.521C224.294 336.522 224.686 337.664 224.791 338.85C224.902 339.642 224.964 340.44 224.978 341.24C220.911 343.072 216.9 345.024 212.949 347.093C213.895 344.575 215.038 342.135 216.366 339.796H216.364ZM263.347 358.615V358.632C263.378 358.577 263.414 358.486 263.349 358.615H263.347ZM263.394 358.453C263.389 358.505 263.374 358.556 263.351 358.603L263.337 358.632C263.079 359.123 262.728 359.56 262.305 359.918C261.715 360.484 261.089 361.012 260.431 361.498C258.704 362.763 256.914 363.939 255.068 365.023C251.722 367.031 248.29 368.868 244.836 370.673C235.261 376.089 226.062 382.145 217.303 388.801C216.605 389.295 215.906 389.787 215.205 390.276C213.345 391.583 211.468 392.863 209.572 394.116C208.616 394.75 207.643 395.369 206.67 395.985C205.905 396.463 205.135 396.941 204.359 397.419C200.109 400.052 195.664 402.354 191.061 404.305C184.946 406.835 178.585 408.722 172.08 409.938C158.521 412.476 143.933 412.089 131.11 406.614C129.701 406.005 128.317 405.338 126.964 404.613C133.656 396.107 139.839 387.185 145.766 378.151C148.444 374.071 151.047 369.942 153.574 365.766C157.239 366.818 161.034 367.348 164.848 367.341C174.636 367.474 184.296 365.095 192.904 360.432C198.174 357.621 203.305 354.545 208.568 351.715L209.416 351.266L210.685 350.59L211.945 349.921C215.63 347.977 219.354 346.097 223.116 344.311C223.72 344.024 224.327 343.742 224.937 343.46C225.274 343.305 225.611 343.147 225.95 342.994L226.976 342.533C229.552 341.364 232.184 340.323 234.863 339.412C236.283 338.919 237.737 338.531 239.215 338.253C239.709 338.162 240.209 338.112 240.711 338.102C241.078 338.072 241.447 338.104 241.803 338.198C241.884 338.217 241.961 338.245 242.042 338.272L242.114 338.305C242.173 338.336 242.231 338.372 242.286 338.41L242.329 338.456L242.358 338.489C242.398 338.543 242.432 338.603 242.456 338.666C242.538 338.886 242.595 339.114 242.625 339.347C242.588 340.712 242.058 342.018 241.134 343.023C239.411 345.156 237.361 347.002 235.061 348.494C234.913 348.594 234.767 348.694 234.616 348.792C234.391 348.929 234.229 349.149 234.165 349.404C234.1 349.659 234.138 349.93 234.271 350.157C234.404 350.384 234.621 350.55 234.875 350.619C235.129 350.688 235.4 350.654 235.63 350.525L235.926 350.399L236.237 350.267L236.851 350.014C238.021 349.536 239.196 349.078 240.379 348.642C243.402 347.464 246.514 346.526 249.685 345.838C250.926 345.542 252.204 345.435 253.476 345.521C253.81 345.559 254.134 345.658 254.432 345.812C254.474 345.854 254.52 345.893 254.568 345.927C254.598 345.967 254.625 346.008 254.649 346.051C254.665 346.105 254.677 346.159 254.685 346.214C254.693 346.564 254.611 346.91 254.446 347.22C254.184 347.746 253.868 348.244 253.502 348.704C252.544 349.894 251.482 350.997 250.328 352C248.657 353.522 246.895 354.94 245.051 356.247C244.85 356.375 244.7 356.57 244.629 356.797C244.558 357.025 244.57 357.27 244.662 357.49C244.755 357.709 244.922 357.889 245.135 357.997C245.347 358.105 245.591 358.135 245.823 358.08C248.942 357.486 252.102 357.13 255.276 357.014C257.396 356.845 259.529 357.006 261.6 357.492C262.255 357.637 262.86 357.953 263.354 358.407L263.387 358.441L263.394 358.453Z" fill="black"/>
<path d="M109.347 291.341C110.327 289.838 111.343 288.354 112.414 286.91C112.588 286.671 112.763 286.432 112.942 286.208L113.124 285.969L113.224 285.837L113.506 285.488L113.721 285.221L113.786 285.142C113.929 284.972 114.014 284.761 114.029 284.539C114.044 284.318 113.989 284.097 113.87 283.91C113.752 283.722 113.577 283.576 113.37 283.495C113.164 283.413 112.937 283.399 112.722 283.454C112.584 283.514 112.462 283.606 112.366 283.722C110.981 285.407 109.689 287.167 108.497 288.994C105.241 293.876 102.307 298.966 99.7157 304.231C95.6386 312.465 92.1795 320.992 89.367 329.739C85.6001 341.448 82.8087 353.449 81.0211 365.618C78.7857 380.833 77.8574 396.211 78.2463 411.585C78.2941 413.715 78.3658 415.845 78.4614 417.976C78.5188 419.261 80.5264 419.269 80.469 417.976C79.7321 402.258 80.3438 386.506 82.2974 370.893C83.8751 358.441 86.486 346.141 90.1031 334.122C92.8143 325.075 96.2075 316.245 100.253 307.711C102.921 302.06 105.959 296.591 109.347 291.341ZM125.8 301.53C132.525 302.473 139.378 301.734 145.747 299.379C150.68 297.505 155.28 294.85 159.37 291.516C160.381 290.708 158.952 289.296 157.95 290.096C151.574 295.372 143.819 298.711 135.604 299.718C130.67 300.255 125.679 299.811 120.917 298.411C120.259 298.214 119.609 297.994 118.967 297.749L118.542 297.575L118.489 297.553C117.325 297.01 116.305 298.748 117.476 299.286C120.127 300.434 122.931 301.19 125.8 301.53ZM144.332 154.913L144.667 154.958C144.696 154.958 144.724 154.975 144.753 154.98C144.978 155.02 145.207 155.04 145.436 155.037C146.117 155 146.77 154.758 147.31 154.342C148.315 153.499 149.06 152.39 149.461 151.142C149.526 150.977 149.578 150.807 149.636 150.64C149.853 151.464 150.232 152.238 150.75 152.915C151.268 153.592 151.915 154.16 152.654 154.586C153.828 155.109 155.151 155.198 156.384 154.836C157.618 154.474 158.682 153.684 159.387 152.609C160.498 150.926 161.208 149.01 161.464 147.009C161.844 148.335 162.304 149.637 162.84 150.907C163.512 152.487 164.528 154.662 166.406 155.035C167.498 155.117 168.589 154.863 169.532 154.308C170.476 153.753 171.227 152.922 171.686 151.928C172.635 150.052 173.165 147.992 173.242 145.891C173.335 144.108 173.299 142.32 173.134 140.542C173.114 140.34 173.037 140.148 172.912 139.988C172.786 139.828 172.618 139.708 172.427 139.64C172.235 139.573 172.028 139.562 171.83 139.608C171.633 139.654 171.452 139.756 171.311 139.901C171.239 139.991 171.186 140.093 171.154 140.203C171.123 140.313 171.113 140.428 171.127 140.542C171.575 143.753 171.302 147.024 170.326 150.116C169.736 151.62 168.495 153.187 166.798 153.066C166.75 153.056 166.703 153.042 166.657 153.023C166.607 152.989 166.435 152.886 166.392 152.855C166.509 152.939 166.201 152.678 166.153 152.616C166.028 152.488 165.913 152.35 165.809 152.205C165.286 151.445 164.858 150.624 164.535 149.76C163.745 147.692 163.118 145.566 162.659 143.4C162.362 142.086 162.09 140.771 161.877 139.431C161.7 138.317 159.841 138.575 159.905 139.698C160.243 143.226 159.767 146.784 158.514 150.1C157.735 151.859 156.234 153.505 154.117 152.991C152.181 152.513 151.488 150.152 151.127 148.45C150.824 146.952 150.706 145.422 150.776 143.895C150.838 142.6 148.864 142.616 148.768 143.895C148.681 145.932 148.349 147.951 147.779 149.908C147.512 150.88 147.03 151.778 146.369 152.537C146.311 152.595 146.247 152.65 146.184 152.705L146.149 152.726C146.029 152.807 145.905 152.881 145.776 152.946L145.632 152.994L145.479 153.03H145.152C144.133 152.923 143.18 152.478 142.444 151.765C141.674 150.941 141.095 149.957 140.747 148.883C139.96 146.463 139.561 143.933 139.564 141.388C139.509 139.807 139.555 138.224 139.7 136.649C139.718 136.542 139.714 136.433 139.689 136.328C139.664 136.223 139.619 136.124 139.555 136.037C139.492 135.95 139.411 135.876 139.319 135.82C139.226 135.764 139.124 135.727 139.017 135.712C138.868 135.677 138.713 135.675 138.563 135.705C138.412 135.734 138.27 135.795 138.145 135.884C138.02 135.972 137.915 136.086 137.837 136.218C137.759 136.35 137.71 136.497 137.693 136.649C137.547 138.106 137.479 139.57 137.49 141.034C137.456 143.936 137.919 146.821 138.859 149.567C139.207 150.867 139.899 152.05 140.862 152.991C141.825 153.932 143.024 154.596 144.332 154.913ZM351.679 219.462L330.58 217.373L327.59 217.077C326.307 216.95 326.316 218.958 327.59 219.085L348.689 221.173L351.679 221.47C352.963 221.596 352.955 219.589 351.679 219.462ZM359.848 146.887C356.344 146.144 361.863 140.912 355.658 131.216C349.454 121.52 320.117 117.07 308.188 123.351C296.26 129.632 299.242 137.196 299.242 137.196C296.157 138.238 293.394 140.062 291.224 142.49L291.58 143.207L298.157 156.225C297.96 157.557 297.893 158.905 297.957 160.25C298.19 163.761 299.262 167.165 301.085 170.176C302.907 173.186 305.426 175.715 308.43 177.549L308.618 177.659L308.762 177.742C310.268 178.645 311.872 179.376 313.542 179.92C315.24 180.475 316.993 180.845 318.771 181.024C321.989 181.306 325.231 181.036 328.357 180.226C328.764 180.128 329.17 180.027 329.574 179.912C330.669 179.607 331.751 179.255 332.81 178.863C333.135 178.741 333.458 178.612 333.783 178.486C336.189 177.567 338.473 176.355 340.582 174.877L340.233 178.61C341.229 179.041 342.103 179.711 342.779 180.56L355.52 167.071L364.052 158.037C364.264 157.831 364.548 157.716 364.843 157.716C365.139 157.716 365.422 157.831 365.634 158.037L367.307 159.638C368.137 158.577 369.238 157.172 370.534 155.511C369.529 153.353 368.044 151.454 366.191 149.959C364.339 148.464 362.169 147.414 359.848 146.887ZM349.301 165.276C348.13 165.203 346.955 165.284 345.805 165.515C344.985 165.773 344.849 166.45 344.559 167.188C344.17 168.161 343.637 169.07 342.979 169.886C342.338 170.69 341.622 171.433 340.843 172.104C338.819 173.797 336.55 175.172 334.113 176.182C331.698 177.237 329.176 178.026 326.591 178.536C323.821 179.095 320.979 179.215 318.171 178.89L318.066 178.875C314.717 178.463 311.519 177.245 308.745 175.324C306.43 173.777 304.465 171.763 302.976 169.411C301.487 167.059 300.506 164.421 300.098 161.667C300.019 161.038 299.975 160.406 299.964 159.772C299.949 156.878 300.467 154.005 301.494 151.299C302.546 148.312 304.099 145.526 306.087 143.061C307.672 141.114 309.534 139.41 311.613 138.004C312.432 137.455 313.281 136.952 314.156 136.498C314.854 136.137 315.59 135.8 316.159 135.576C319.416 134.403 322.905 134.023 326.338 134.469C330.994 134.938 335.345 137.001 338.656 140.308C342.83 144.668 345.597 150.182 346.6 156.134L346.66 156.471C346.671 156.648 346.743 156.816 346.863 156.947C346.983 157.077 347.144 157.162 347.32 157.188C347.454 157.239 347.598 157.256 347.74 157.236C347.882 157.217 348.017 157.163 348.132 157.078C348.917 156.4 349.854 155.92 350.863 155.68C351.872 155.439 352.924 155.445 353.93 155.697C354.697 156.038 355.366 156.566 355.877 157.231C356.388 157.896 356.725 158.678 356.858 159.507C357.458 163.656 352.525 165.149 349.301 165.276ZM259.58 73.9374C259.303 72.6755 257.367 73.2204 257.645 74.4704C257.934 75.7682 258.154 77.0803 258.342 78.3948C258.76 80.6805 258.857 83.0134 258.629 85.3258C258.577 85.7061 258.491 86.0812 258.374 86.4467C258.286 86.7417 258.134 87.0136 257.929 87.2426C257.827 87.3284 257.701 87.3802 257.568 87.3907C257.227 87.3811 256.895 87.2741 256.612 87.0824C254.77 85.6969 253.282 83.8952 252.269 81.8244C251.356 80.3116 250.527 78.7494 249.786 77.1448C249.248 75.9713 247.521 76.9919 248.053 78.1582C248.092 78.2394 248.132 78.3207 248.163 78.3972C248.312 78.8035 248.276 78.6362 248.402 78.9732C248.737 79.7977 249.052 80.6318 249.335 81.4779C250.1 83.4625 250.514 85.5652 250.558 87.6919C250.508 89.5226 249.703 90.634 247.709 90.34C246.724 90.0507 245.82 89.5344 245.071 88.8325C244.321 88.1306 243.746 87.2627 243.393 86.2985C242.727 84.9765 242.234 83.5739 241.928 82.1256C241.603 80.866 239.731 81.4086 239.992 82.6585C240.345 84.045 240.619 85.4501 240.814 86.8673C241.306 89.0971 241.257 91.4123 240.671 93.6191C240.596 93.9075 240.443 94.1698 240.23 94.3775C240.016 94.5853 239.749 94.7305 239.459 94.7974C239.049 94.8182 238.639 94.7385 238.266 94.5652C237.894 94.392 237.569 94.1304 237.32 93.8031C235.854 91.8973 234.87 89.6654 234.452 87.2975C234.07 85.7797 233.771 84.2423 233.556 82.692C233.556 82.6107 233.525 82.453 233.517 82.3909C233.491 82.1258 233.363 81.8814 233.159 81.7097C232.55 81.1911 231.4 81.4086 231.51 82.3909C231.704 84.0714 232.004 85.7381 232.406 87.3812C232.817 89.2899 233.459 91.1414 234.318 92.8949C234.716 93.6762 235.204 94.4078 235.774 95.0746C236.105 95.546 236.535 95.9397 237.034 96.2283C237.533 96.5169 238.089 96.6935 238.663 96.7458C239.237 96.7981 239.815 96.7248 240.358 96.5312C240.901 96.3375 241.395 96.0281 241.806 95.6243C242.952 93.8636 243.413 91.7437 243.101 89.666C244.021 90.8567 245.288 91.7326 246.727 92.1731C247.277 92.3783 247.864 92.4686 248.45 92.4385C249.037 92.4085 249.611 92.2586 250.137 91.9982C250.664 91.7378 251.131 91.3723 251.511 90.9244C251.891 90.4764 252.175 89.9555 252.346 89.3936C252.628 88.2268 252.678 87.0162 252.494 85.8301C253.307 86.9765 254.323 87.9647 255.491 88.7459C255.939 89.069 256.461 89.275 257.009 89.3451C257.557 89.4153 258.114 89.3473 258.629 89.1474C259.042 88.92 259.404 88.6099 259.692 88.2365C259.98 87.8632 260.187 87.4345 260.302 86.9773C260.882 84.5638 260.953 82.056 260.51 79.6137C260.3 77.7066 259.989 75.812 259.58 73.9374ZM430.525 126.986C430.026 127.352 429.517 127.703 429.003 128.047C428.42 128.441 427.83 128.823 427.234 129.194C425.312 130.498 423.227 131.543 421.032 132.301C420.331 132.592 419.558 132.661 418.817 132.497C418.742 132.467 418.675 132.421 418.621 132.362C418.566 132.303 418.525 132.232 418.501 132.155C418.486 132.065 418.461 131.977 418.427 131.893C418.402 131.674 418.402 131.454 418.427 131.235C418.95 129.012 419.985 126.941 421.45 125.189C422.444 123.761 423.52 122.393 424.672 121.09C425.525 120.134 424.113 118.7 423.252 119.67C421.254 122.072 418.836 124.091 416.116 125.628C414.835 126.288 413.324 126.761 412.447 125.628C410.927 123.676 412.082 121.111 413.355 119.39C414.063 118.465 414.864 117.615 415.745 116.852C416.047 116.585 416.355 116.326 416.67 116.073C416.878 115.906 416.67 116.181 416.819 115.958L416.902 115.896L416.924 115.882L417.129 115.727C418.016 115.026 416.84 113.487 415.913 114.149C415.674 114.321 415.435 114.505 415.196 114.699L414.861 114.938C414.045 115.527 413.21 116.085 412.356 116.611C410.548 117.924 408.472 118.822 406.276 119.24C405.969 119.315 405.647 119.307 405.343 119.217C405.04 119.127 404.766 118.959 404.548 118.728C404.331 118.374 404.21 117.968 404.198 117.553C404.185 117.137 404.281 116.725 404.477 116.358C405.611 114.215 407.259 112.388 409.273 111.04C410.622 109.972 412.044 108.999 413.528 108.129C413.708 108.029 413.852 107.873 413.936 107.684C414.016 107.49 414.033 107.276 413.987 107.072C413.94 106.868 413.832 106.682 413.677 106.542C413.521 106.401 413.326 106.311 413.118 106.285C412.91 106.259 412.699 106.298 412.514 106.396C411.359 107.077 410.242 107.82 409.168 108.624C408.872 108.841 408.578 109.063 408.286 109.286C405.907 110.874 403.967 113.037 402.648 115.576C402.37 116.081 402.207 116.642 402.173 117.218C402.138 117.794 402.232 118.37 402.448 118.905C402.664 119.44 402.996 119.921 403.42 120.311C403.845 120.702 404.351 120.993 404.902 121.164C406.908 121.386 408.932 120.934 410.652 119.878C410.167 120.713 409.87 121.644 409.782 122.606C409.694 123.568 409.817 124.537 410.143 125.447C410.306 125.964 410.571 126.444 410.921 126.858C411.271 127.273 411.7 127.614 412.183 127.861C412.666 128.108 413.193 128.257 413.734 128.299C414.275 128.341 414.819 128.274 415.334 128.104C416.245 127.836 417.116 127.446 417.923 126.945C417.225 128.113 416.74 129.394 416.489 130.731C416.35 131.214 416.333 131.724 416.439 132.215C416.545 132.707 416.771 133.164 417.097 133.547C417.423 133.93 417.838 134.226 418.306 134.409C418.775 134.592 419.281 134.656 419.78 134.596C422.275 134.196 424.652 133.258 426.747 131.845C427.151 131.606 427.545 131.367 427.942 131.111C429.168 130.361 430.379 129.579 431.527 128.721C432.569 127.961 431.567 126.219 430.525 126.986ZM325.736 110.442C325.929 110.648 326.116 110.863 326.295 111.083L326.422 111.243L326.493 111.336C326.606 111.492 326.718 111.644 326.825 111.814C328.114 113.725 329.049 115.852 329.586 118.093C329.666 118.339 329.837 118.544 330.065 118.667C330.292 118.79 330.558 118.82 330.808 118.751C331.057 118.682 331.27 118.52 331.403 118.298C331.535 118.076 331.577 117.812 331.519 117.56C330.941 115.149 329.939 112.861 328.561 110.801C328.025 109.97 327.382 109.214 326.649 108.552C326.458 108.37 326.204 108.268 325.94 108.268C325.676 108.268 325.422 108.37 325.231 108.552C325.045 108.741 324.94 108.996 324.94 109.262C324.94 109.527 325.045 109.782 325.231 109.971C325.408 110.119 325.576 110.276 325.736 110.442ZM333.869 117.003C334.125 117.07 334.398 117.034 334.629 116.903C334.859 116.771 335.029 116.555 335.102 116.3C335.127 116.173 335.159 116.047 335.198 115.923C335.238 115.786 335.286 115.652 335.334 115.519L335.439 115.253C335.305 115.612 335.439 115.232 335.489 115.148C335.721 114.662 335.991 114.195 336.297 113.752C336.386 113.61 336.484 113.473 336.591 113.344C336.419 113.533 336.61 113.322 336.646 113.279L336.82 113.067C337.079 112.762 337.35 112.471 337.635 112.194C337.824 112.006 337.929 111.751 337.929 111.484C337.929 111.218 337.824 110.963 337.635 110.775C337.447 110.586 337.192 110.48 336.926 110.48C336.659 110.48 336.404 110.586 336.216 110.775C335.204 111.741 334.371 112.88 333.757 114.137C333.49 114.653 333.291 115.201 333.166 115.767C333.102 116.024 333.139 116.296 333.27 116.526C333.401 116.756 333.615 116.927 333.869 117.003ZM300.947 192.873C300.13 194.179 299.371 195.518 298.669 196.889C296.658 200.739 294.843 204.688 293.232 208.721C290.776 214.825 288.689 221.07 286.982 227.423C286.912 227.662 286.853 227.923 286.786 228.174C284.646 236.252 283.049 244.465 282.006 252.757C280.71 263.066 280.219 273.461 280.538 283.846C280.569 284.872 280.617 285.897 280.663 286.92L281.721 287.099L282.677 287.259C282.319 279.595 282.393 271.916 282.897 264.26C283.069 261.67 283.293 259.081 283.569 256.495C283.648 255.761 283.736 255.028 283.825 254.294C284.765 246.338 286.222 238.452 288.186 230.686C289.851 224.083 291.916 217.588 294.369 211.236C295.985 207.026 297.82 202.903 299.866 198.884C300.729 197.211 301.719 195.608 302.612 193.951L302.655 193.887C303.38 192.795 301.642 191.786 300.947 192.873ZM369.915 219.739C369.892 219.721 369.868 219.705 369.843 219.689C369.612 219.561 369.341 219.526 369.085 219.593C368.83 219.66 368.61 219.823 368.471 220.048L364.54 225.616L364.461 224.558L364.301 222.428C364.203 221.149 362.195 221.138 362.293 222.428L363.421 237.378L363.581 239.507C363.602 239.773 363.725 240.021 363.924 240.199C364.123 240.377 364.383 240.472 364.65 240.463C364.777 240.475 364.906 240.458 365.027 240.414C365.147 240.37 365.256 240.299 365.346 240.208C365.436 240.116 365.504 240.006 365.546 239.885C365.588 239.764 365.603 239.635 365.589 239.507C365.32 235.92 365.049 232.335 364.776 228.752L369.518 222.031L370.204 221.061C370.329 220.844 370.369 220.589 370.316 220.344C370.262 220.1 370.119 219.884 369.915 219.739Z" fill="black"/>
<path d="M320.425 163.715C319.199 164.327 317.813 164.54 316.46 164.324C315.678 164.12 314.877 163.995 314.07 163.951C313.693 163.993 313.332 164.127 313.019 164.341C312.706 164.554 312.449 164.841 312.273 165.177C312.096 165.512 312.004 165.886 312.005 166.265C312.006 166.644 312.099 167.018 312.277 167.352C312.555 167.863 312.936 168.31 313.397 168.664C313.857 169.018 314.387 169.271 314.952 169.408C318.002 170.282 322.731 170.048 324.901 167.34L325.047 167.152C325.506 166.555 325.796 165.846 325.887 165.099C325.978 164.352 325.867 163.594 325.566 162.905C324.29 160.95 321.802 163.017 320.425 163.715ZM310.939 146.767L308.329 144.81L307.956 144.53C307.84 144.463 307.712 144.419 307.579 144.402C307.446 144.385 307.311 144.394 307.182 144.43C307.055 144.465 306.936 144.524 306.832 144.605C306.728 144.686 306.641 144.787 306.576 144.901C306.511 145.016 306.469 145.142 306.453 145.273C306.437 145.403 306.447 145.536 306.482 145.663C306.565 145.908 306.727 146.119 306.943 146.263L309.553 148.22L309.926 148.5C310.041 148.567 310.169 148.611 310.302 148.628C310.434 148.646 310.569 148.636 310.698 148.6C310.949 148.529 311.164 148.364 311.298 148.139C311.365 148.024 311.409 147.896 311.427 147.763C311.445 147.631 311.435 147.496 311.4 147.367C311.317 147.122 311.155 146.911 310.939 146.767ZM332.769 147.857L329.727 149.035L329.294 149.203C329.045 149.279 328.832 149.443 328.694 149.664C328.594 149.836 328.546 150.035 328.559 150.234C328.572 150.433 328.643 150.624 328.765 150.782C328.886 150.941 329.052 151.059 329.242 151.122C329.431 151.186 329.635 151.192 329.827 151.139L332.87 149.96L333.302 149.791C333.551 149.714 333.764 149.55 333.902 149.329C334.003 149.157 334.051 148.959 334.039 148.759C334.026 148.56 333.955 148.369 333.833 148.211C333.711 148.053 333.545 147.934 333.355 147.871C333.166 147.808 332.962 147.803 332.769 147.857ZM308.829 152.257C308.699 152.222 308.564 152.213 308.431 152.23C308.299 152.247 308.17 152.29 308.054 152.357C307.828 152.49 307.662 152.706 307.593 152.96C307.521 153.29 307.462 153.622 307.404 153.954C307.28 154.574 307.206 155.203 307.184 155.835C307.184 156.101 307.29 156.356 307.478 156.545C307.667 156.733 307.922 156.839 308.188 156.839C308.454 156.839 308.71 156.733 308.898 156.545C309.086 156.356 309.192 156.101 309.192 155.835C309.196 155.589 309.214 155.344 309.247 155.101C309.321 154.563 309.414 154.026 309.529 153.493C309.595 153.232 309.559 152.956 309.429 152.721C309.295 152.495 309.08 152.33 308.829 152.257ZM332.688 155.237C332.559 155.203 332.423 155.194 332.291 155.212C332.158 155.229 332.03 155.273 331.914 155.34C331.687 155.472 331.522 155.687 331.452 155.94C331.383 156.27 331.321 156.602 331.264 156.934C331.139 157.554 331.066 158.183 331.044 158.815C331.044 159.081 331.149 159.337 331.338 159.525C331.526 159.713 331.781 159.819 332.048 159.819C332.314 159.819 332.569 159.713 332.757 159.525C332.946 159.337 333.051 159.081 333.051 158.815C333.056 158.57 333.075 158.325 333.106 158.082C333.183 157.541 333.277 157.005 333.388 156.473C333.454 156.212 333.418 155.935 333.288 155.699C333.154 155.474 332.939 155.309 332.688 155.237Z" fill="black"/>
</svg>
